<?xml version="1.0" standalone="no"?>
<!DOCTYPE svg PUBLIC "-//W3C//DTD SVG 1.1//EN" "http://www.w3.org/Graphics/SVG/1.1/DTD/svg11.dtd" >
<svg xmlns="http://www.w3.org/2000/svg">
<metadata>
Created by FontPrep 20130207 at Fri Oct 16 16:21:58 2015
 By Matthew Higley
Digitized data copyright (c) 2007, Google Corporation.
</metadata>
<defs>
<font id="d209f49a3ee236863ef396274df64fc8" horiz-adv-x='1024' >
  <font-face 
    font-family="DroidSerif-Bold"
    font-weight="700"
    font-stretch="normal"
    units-per-em="2048"
    panose-1="2 2 8 0 6 5 0 2 2 0"
    ascent="1638"
    descent="-410"
    x-height="1098"
    cap-height="1462"
    bbox="-1145 -571 2675 2167"
    underline-thickness="102"
    underline-position="-103"
    unicode-range="U+0020-FFFD"
  />
<missing-glyph horiz-adv-x="1229" 
d="M297 104h633v1254h-633v-1254zM193 1462h841v-1462h-841v1462z" />
    <glyph glyph-name=".notdef" horiz-adv-x="1229" 
d="M297 104h633v1254h-633v-1254zM193 1462h841v-1462h-841v1462z" />
    <glyph glyph-name=".null" horiz-adv-x="0" 
 />
    <glyph glyph-name="nonmarkingreturn" horiz-adv-x="1044" 
 />
    <glyph glyph-name="space" unicode=" " horiz-adv-x="532" 
 />
    <glyph glyph-name="exclam" unicode="!" horiz-adv-x="782" 
d="M393 -16q-168 0 -168 164t168 163q168 1 168 -163t-168 -164zM213 1462h356l-120 -995h-115z" />
    <glyph glyph-name="quotedbl" unicode="&#x22;" horiz-adv-x="1040" 
d="M137 1462h320l-92 -563h-136zM584 1462h319l-72 -563h-135z" />
    <glyph glyph-name="numbersign" unicode="#" 
d="M434 551h215l72 371h-215zM1022 551v-141h-256l-76 -410h-145l76 410h-213l-78 -410h-146l78 410h-205v141h232l71 371h-237v143h264l72 397h147l-74 -397h213l76 397h146l-76 -397h196v-143h-223l-69 -371h227z" />
    <glyph glyph-name="dollar" unicode="$" 
d="M385 1133q0 -65 30 -109t109 -88v354q-60 -11 -99.5 -51.5t-39.5 -105.5zM799 387q0 67 -40 113t-120 88v-387q77 17 118.5 68t41.5 118zM639 1401q350 -12 350 -217q0 -53 -56 -95t-169 -42q0 115 -45.5 166.5t-79.5 66.5v-399q6 -3 23.5 -9.5t69.5 -27.5
q151 -60 230.5 -146.5t79.5 -229.5t-106 -248.5t-297 -127.5v-254h-115v250q-216 6 -320 90.5t-104 196.5q0 83 56 123.5t137 40.5q0 -224 89.5 -279t141.5 -63v442l-35 14q-190 78 -267 166t-77 228t105 237t274 115v157h115v-155z" />
    <glyph glyph-name="percent" unicode="%" horiz-adv-x="1855" 
d="M1386 784q-106 0 -106 -351t137 -351q108 0 121.5 135t13.5 218q0 174 -30 261.5t-136 87.5zM1693 103q-93 -123 -276 -123q-368 0 -368 392.5t136 454.5t231 62t164 -32t137.5 -120.5t68.5 -299.5t-93 -334zM651 0h-159l706 1462h158zM407 1378q-106 0 -106 -351
t137 -351q108 0 121.5 135t13.5 218q0 174 -30 261.5t-136 87.5zM713.5 696.5q-93.5 -123.5 -275.5 -123.5q-280 0 -324 177t-44 335.5t90 278t275 119.5t278.5 -120.5t93.5 -331.5t-93.5 -334.5z" />
    <glyph glyph-name="ampersand" unicode="&#x26;" horiz-adv-x="1640" 
d="M814.5 1314.5q-31.5 45.5 -121.5 45.5t-107 -67.5t-17 -103.5q0 -67 29 -126t98 -137q120 67 135 142t15 138t-31.5 108.5zM397 399q0 -116 74.5 -199t190.5 -83q206 0 315 131l-438 467q-117 -84 -129.5 -173t-12.5 -143zM1067 150q-170 -170 -436 -170t-400.5 114.5
t-134.5 321.5q0 232 140 303.5t210 99.5q-84 101 -119.5 181.5t-35.5 164.5q0 154 105 236t301 82q195 0 296 -83t101 -208q0 -174 -116 -247.5t-196 -110.5q5 -8 15 -15l290 -305q21 115 21 268v90h448v-108h-32q-84 0 -135.5 -27t-71.5 -98q-45 -163 -94 -266l204 -213
q48 -51 168 -51h19v-109h-406z" />
    <glyph glyph-name="quotesingle" unicode="'" horiz-adv-x="594" 
d="M137 1462h320l-92 -563h-136z" />
    <glyph glyph-name="parenleft" unicode="(" horiz-adv-x="819" 
d="M446 572q0 -201 66.5 -405.5t241.5 -320.5v-131q-493 199 -565 484t-72 451q0 339 151 568.5t486 362.5v-129q-253 -168 -280.5 -423.5t-27.5 -456.5z" />
    <glyph glyph-name="parenright" unicode=")" horiz-adv-x="819" 
d="M373 728.5q0 199.5 -65.5 403t-241.5 320.5v129q494 -197 565 -481t71 -450q0 -340 -150.5 -570t-485.5 -365v131q252 167 279.5 425t27.5 457.5z" />
    <glyph glyph-name="asterisk" unicode="*" horiz-adv-x="1028" 
d="M72 1237l92 207l305 -221l-68 333h230l-74 -329l307 213l92 -205l-319 -80l319 -82l-92 -203l-307 213l72 -331h-228l66 333l-303 -217l-92 203l319 84z" />
    <glyph glyph-name="plus" unicode="+" 
d="M645 659v-366h-147v366h-365v146h365v366h147v-366h367v-146h-367z" />
    <glyph glyph-name="comma" unicode="," horiz-adv-x="602" 
d="M459 106q0 -322 -367 -421v106q94 34 137 69t43 91q0 29 -27.5 47.5t-74.5 46t-47 125.5q0 70 42 105.5t117 35.5t126 -60t51 -145z" />
    <glyph glyph-name="hyphen" unicode="-" horiz-adv-x="635" 
d="M51 451v215h533v-215h-533z" />
    <glyph glyph-name="period" unicode="." horiz-adv-x="623" 
d="M311 -16q-168 0 -168 164t168 163q168 1 168 -163t-168 -164z" />
    <glyph glyph-name="slash" unicode="/" horiz-adv-x="590" 
d="M147 -250l-147 2l446 1804h144z" />
    <glyph glyph-name="zero" unicode="0" 
d="M387 733q0 -147 8 -262t28.5 -194.5t56.5 -121.5t93 -42t93 42t56.5 121.5t28 194.5t7.5 347t-38 382t-145 150q-155 0 -171.5 -235t-16.5 -382zM952.5 178.5q-122.5 -198.5 -379.5 -198.5q-394 0 -448.5 292.5t-54.5 557.5t117.5 459t381.5 194t385 -196.5t121 -552.5
q0 -357 -122.5 -555.5z" />
    <glyph glyph-name="one" unicode="1" 
d="M199 0v109h168q53 0 77.5 28.5t24.5 104.5v1026q-89 -109 -148 -161t-116 -52q-79 0 -99 58.5t-20 92.5q110 28 187 74.5t128 83.5l144 106h229v-1228q0 -69 22 -101t83 -32h165v-109h-845z" />
    <glyph glyph-name="two" unicode="2" 
d="M342 1004q-262 0 -262 202q0 117 117.5 197t338.5 80t342 -89.5t121 -250.5q0 -97 -46.5 -187.5t-161 -216t-320.5 -319.5l-205 -195h477q63 0 107.5 36.5t62.5 105.5l17 63h121l-11 -430h-968v211l303 309q186 190 250.5 321t64.5 292q0 225 -160 225q-104 0 -146 -89.5
t-42 -264.5z" />
    <glyph glyph-name="three" unicode="3" 
d="M426 819q260 -1 260 323q0 90 -43 153t-127 63q-144 0 -160 -129t-16 -189q-266 0 -266 183q0 114 117.5 187t334.5 73q338 0 405.5 -127.5t67.5 -201.5q0 -138 -86 -232t-227 -142q243 -43 304 -156.5t61 -219.5t-86.5 -265t-466.5 -159q-220 0 -330.5 70t-110.5 175
q0 75 49.5 117.5t124.5 42.5q0 -126 68 -194t184 -68q252 0 252 301q0 187 -120 227.5t-197 40.5h-127v127h135z" />
    <glyph glyph-name="four" unicode="4" 
d="M594 874q0 226 14 394q-47 -113 -162 -295l-276 -457h424v358zM893 381v-125q0 -125 67 -136t101 -11h26v-109h-718v109h57q81 0 124.5 30t43.5 117v125h-567v125l581 956h285v-946h213v-135h-213z" />
    <glyph glyph-name="five" unicode="5" 
d="M500 889q255 0 395.5 -112t140.5 -341q0 -230 -158.5 -343t-374.5 -113t-318.5 70.5t-102.5 176.5q0 72 44.5 107t119.5 35q0 -163 81 -204.5t138 -41.5q119 0 188.5 76t69.5 240q0 315 -279 315q-105 0 -227 -37l-94 37l65 708h775l10 -372h-117l-16 69q-12 42 -31 60
t-64 18h-426q0 -1 -1.5 -17.5t-3.5 -43.5t-5 -61t-6 -69l-16 -188q82 31 213 31z" />
    <glyph glyph-name="six" unicode="6" 
d="M588 772q-87 0 -140.5 -40t-66.5 -58q3 -421 90.5 -490t134.5 -69q79 0 124.5 80.5t45.5 252.5q0 324 -188 324zM381 821q114 76 292 76t289 -113t111 -325t-122.5 -345.5t-350.5 -133.5q-362 0 -435 258.5t-73 432.5q0 361 150 586.5t434 225.5q185 0 273.5 -65
t88.5 -168t-88.5 -127.5t-156.5 -24.5q0 178 -47.5 221t-97.5 43t-149.5 -73.5t-117.5 -467.5z" />
    <glyph glyph-name="seven" unicode="7" 
d="M344 1239q-107 0 -119 -104l-12 -103h-123l10 430h977v-100l-565 -1362h-174l545 1239h-539z" />
    <glyph glyph-name="eight" unicode="8" 
d="M762 1124q0 98 -51.5 169t-136.5 71t-131 -64t-46 -141t14.5 -117t52 -83t154.5 -97q112 65 128 139.5t16 122.5zM338 365q0 -121 64 -195t167 -74q104 0 167 71t63 177t-68.5 172.5t-230.5 140.5q-162 -105 -162 -292zM109 1110q0 254 171.5 313.5t291.5 59.5
q221 0 334.5 -99t113.5 -260t-106.5 -229.5t-170.5 -101.5q185 -90 262.5 -185t77.5 -207q0 -208 -138.5 -314.5t-384.5 -106.5q-245 0 -372 109.5t-127 285.5t117 253t184 111q-253 147 -253 371z" />
    <glyph glyph-name="nine" unicode="9" 
d="M369 999q0 -288 192 -288q142 0 211 137q-3 376 -87 437t-132 61q-88 0 -136 -86.5t-48 -260.5zM772 702q-111 -139 -295 -139t-294.5 110.5t-110.5 323.5t126 349.5t351 136.5q226 0 365 -170.5t139 -517.5q0 -568 -214.5 -691.5t-380.5 -123.5t-247.5 66t-81.5 164
q0 97 100 118q71 -219 246 -219q277 0 297 593z" />
    <glyph glyph-name="colon" unicode=":" horiz-adv-x="623" 
d="M311 788q-168 0 -168 164t168 164t168 -164t-168 -164zM311 -16q-168 0 -168 164t168 163q168 1 168 -163t-168 -164z" />
    <glyph glyph-name="semicolon" unicode=";" horiz-adv-x="602" 
d="M311 788q-168 0 -168 164t168 164t168 -164t-168 -164zM459 106q0 -322 -367 -421v106q94 34 137 69t43 91q0 29 -27.5 47.5t-74.5 46t-47 125.5q0 70 42 105.5t117 35.5t126 -60t51 -145z" />
    <glyph glyph-name="less" unicode="&#x3c;" 
d="M133 690v84l879 479v-161l-660 -361l660 -356v-162z" />
    <glyph glyph-name="equal" unicode="=" 
d="M1016 1001v-143h-887v143h887zM1016 604v-143h-887v143h887z" />
    <glyph glyph-name="greater" unicode="&#x3e;" 
d="M133 213v162l660 356l-660 361v161l879 -479v-84z" />
    <glyph glyph-name="question" unicode="?" horiz-adv-x="1126" 
d="M500 -16q-168 0 -168 164t168 163q168 1 168 -163t-168 -164zM365 1102q-289 0 -289 150q0 99 110.5 165t328.5 66t358.5 -101.5t140.5 -275.5q0 -229 -153 -320t-255 -133l-41 -186h-125l-41 252q289 115 289 420q0 221 -162 221q-83 0 -122 -71.5t-39 -186.5z" />
    <glyph glyph-name="at" unicode="@" horiz-adv-x="1886" 
d="M892 276q88 0 131.5 70t61.5 172l82 418q-24 57 -114 57q-89 0 -154 -84.5t-98 -204.5t-33 -219q0 -100 36 -154.5t88 -54.5zM1307 414q0 -138 98 -138q89 0 162 141t73 395t-156 400t-413 146q-197 0 -373 -107t-284.5 -304.5t-108.5 -459.5q0 -342 189 -507.5
t486 -165.5q298 0 556 172l49 -78q-180 -137 -356.5 -168t-284.5 -31t-215.5 21.5t-254 89.5t-258.5 246t-112 441q0 264 126.5 483t350.5 345.5t504 126.5q344 0 532.5 -184.5t188.5 -475.5t-128.5 -467.5t-304.5 -176.5t-240 192h-13q-101 -192 -282 -192q-138 0 -230 89
t-92 273t138.5 373.5t426.5 189.5q113 0 191 -61l86 43h49l-86 -512q-14 -84 -14 -139z" />
    <glyph glyph-name="A" unicode="A" horiz-adv-x="1542" 
d="M795 942q-61 193 -86 307q-17 -60 -23 -75l-34 -101q-30 -85 -42 -121l-121 -346h414zM390 129.5q28 -20.5 65 -20.5h86v-109h-533v109h25q58 0 93.5 30.5t70.5 118.5l444 1204h281l428 -1206q29 -84 66.5 -115.5t88.5 -31.5h37v-109h-676v109h80q57 0 72.5 29t15.5 58
t-18 80l-72 205h-498l-59 -176q-25 -78 -25 -117q0 -38 28 -58.5z" />
    <glyph glyph-name="B" unicode="B" horiz-adv-x="1376" 
d="M571 827h78q140 0 194 60t54 200.5t-56.5 195t-195.5 54.5h-74v-510zM571 125h136q137 0 194 63.5t57 219.5t-55.5 225t-191.5 69h-140v-577zM1303 401q0 -401 -586 -401h-660v109h84q53 0 80 27t27 106v981q0 107 -42.5 119t-64.5 12h-84v108h598q292 0 439 -90
t147 -278t-100 -243t-158 -73v-10q228 -58 274 -175t46 -192z" />
    <glyph glyph-name="C" unicode="C" horiz-adv-x="1368" 
d="M1284 259q0 -113 -112 -196t-351 -83q-348 0 -528 202.5t-180 547.5t182.5 549t523.5 204q226 0 346.5 -66.5t120.5 -171.5q0 -79 -67.5 -128.5t-188.5 -49.5q0 190 -81 237.5t-161 47.5t-147 -41t-107.5 -120t-58.5 -194.5t-18 -341.5t95.5 -369t321.5 -143t375 195
q35 -27 35 -79z" />
    <glyph glyph-name="D" unicode="D" horiz-adv-x="1571" 
d="M1112 758q0 579 -424 579h-117v-1210h115q208 0 317 167t109 464zM1269.5 206q-188.5 -206 -536.5 -206h-676v109h86q52 0 78.5 26.5t26.5 106.5v987q0 105 -41.5 115t-63.5 10h-86v108h676q345 0 535 -180t190 -525t-188.5 -551z" />
    <glyph glyph-name="E" unicode="E" horiz-adv-x="1337" 
d="M573 125h410q108 0 131 156l16 96h142l-15 -377h-1200v109h86q51 0 78 23.5t27 98.5v990q0 114 -41 123.5t-64 9.5h-86v108h1137l8 -377h-143l-10 97q-8 75 -38 115t-93 40h-345v-512h486v-123h-486v-577z" />
    <glyph glyph-name="F" unicode="F" horiz-adv-x="1272" 
d="M571 1337v-559h486v-121h-486v-415q0 -114 42.5 -123.5t64.5 -9.5h127v-109h-748v109h86q51 0 78 23.5t27 98.5v998q0 105 -41.5 115t-63.5 10h-86v108h1135l10 -377h-143l-10 99q-19 153 -152 153h-326z" />
    <glyph glyph-name="G" unicode="G" horiz-adv-x="1575" 
d="M866 -20q-370 0 -561.5 201.5t-191.5 546.5q0 346 198.5 550.5t565.5 204.5q244 0 378 -66.5t134 -171.5q0 -75 -70 -124.5t-195 -49.5q0 200 -95 240.5t-183 40.5t-166.5 -41t-128 -120t-72 -194.5t-22.5 -343t103.5 -381t336.5 -153.5q87 0 150 14v301q0 82 -37 114
t-109 32h-27v108h644v-108h-27q-64 0 -92.5 -34t-28.5 -120v-336q-240 -110 -504 -110z" />
    <glyph glyph-name="H" unicode="H" horiz-adv-x="1677" 
d="M913 0v109h88q51 0 78 26t27 107v458h-535v-458q0 -113 41.5 -123t63.5 -10h88v-109h-707v109h86q51 0 78 26t27 107v986q0 105 -42 115t-63 10h-86v109h707v-109h-88q-51 0 -78 -27t-27 -106v-395h535v395q0 113 -41.5 123t-63.5 10h-88v109h707v-109h-86q-50 0 -77 -26
t-27 -107v-989q0 -104 41.5 -113t62.5 -9h86v-109h-707z" />
    <glyph glyph-name="I" unicode="I" horiz-adv-x="821" 
d="M57 0v109h86q52 0 78.5 26.5t26.5 106.5v978q0 114 -41 123.5t-64 9.5h-86v109h707v-109h-86q-52 0 -78.5 -26.5t-26.5 -106.5v-978q0 -114 41.5 -123.5t63.5 -9.5h86v-109h-707z" />
    <glyph glyph-name="J" unicode="J" horiz-adv-x="754" 
d="M731 1354h-86q-52 0 -79 -27t-27 -106v-1225q0 -338 -197.5 -413t-347.5 -75h-74v119h37q176 0 217 132t41 235v1235q0 105 -41.5 115t-62.5 10h-86v108h706v-108z" />
    <glyph glyph-name="K" unicode="K" horiz-adv-x="1503" 
d="M1006 1302q0 54 -115 54v106h555v-106q-111 0 -185 -70t-110 -110l-270 -297l381 -605q83 -133 141 -149t92 -16h8v-109h-110q-223 0 -299.5 37t-106.5 78t-49 73l-276 471l-91 -71v-346q0 -114 42.5 -123.5t64.5 -9.5h86v-109h-707v109h86q51 0 78 23.5t27 98.5v998
q0 105 -41.5 115t-63.5 10h-86v108h707v-108h-86q-53 0 -80 -27t-27 -106v-478l318 347q94 99 105.5 141.5t11.5 70.5z" />
    <glyph glyph-name="L" unicode="L" horiz-adv-x="1339" 
d="M57 0v109h86q52 0 78.5 26.5t26.5 106.5v979q0 114 -41 123.5t-64 9.5h-86v108h707v-108h-86q-50 0 -77.5 -25.5t-27.5 -99.5v-1104h381q72 0 112 45.5t58 132.5l33 154h115l-15 -457h-1200z" />
    <glyph glyph-name="M" unicode="M" horiz-adv-x="1950" 
d="M1237 0v109h20q70 0 99.5 22t29.5 92v1037l-413 -1260h-139l-433 1260v-1018q0 -114 58 -123.5t94 -9.5h12v-109h-508v109h86q51 0 78 23.5t27 98.5v998q0 105 -41.5 115t-63.5 10h-86v108h590l340 -989l326 989h579v-108h-86q-51 0 -77.5 -26.5t-26.5 -106.5v-979
q0 -114 41 -123.5t63 -9.5h86v-109h-655z" />
    <glyph glyph-name="N" unicode="N" horiz-adv-x="1614" 
d="M401 242q0 -114 42 -123.5t63 -9.5h86v-109h-535v109h86q51 0 78 26t27 107v987q0 105 -42 115t-63 10h-86v108h455l723 -1022v789q0 105 -42 115t-63 10h-86v108h535v-108h-86q-50 0 -77 -26t-27 -107v-1221h-189l-799 1128v-886z" />
    <glyph glyph-name="O" unicode="O" horiz-adv-x="1612" 
d="M457 654q0 -226 83 -383.5t267 -157.5q272 0 310 236.5t38 462.5t-81 383t-265 157q-274 0 -313 -236t-39 -462zM1316.5 184q-182.5 -204 -516.5 -204q-335 0 -511 202.5t-176 552.5t176.5 550t511.5 200t516.5 -203t181.5 -549q0 -345 -182.5 -549z" />
    <glyph glyph-name="P" unicode="P" horiz-adv-x="1307" 
d="M571 678h50q151 0 215.5 79t64.5 263q0 247 -90.5 284t-159.5 37h-80v-663zM1245 1032q0 -209 -146.5 -341t-457.5 -132h-70v-328q0 -104 44 -113t65 -9h125v-109h-748v109h86q52 0 78.5 26.5t26.5 106.5v987q0 105 -41.5 115t-63.5 10h-86v108h629q417 0 488 -167
t71 -263z" />
    <glyph glyph-name="Q" unicode="Q" horiz-adv-x="1612" 
d="M457 654q0 -226 83 -383.5t267 -157.5q272 0 310 236.5t38 462.5t-81 383t-265 157q-274 0 -313 -236t-39 -462zM1329 -373v-119h-147q-204 0 -354 121t-169 363q-269 41 -407.5 237t-138.5 526t176.5 530t511.5 200t516.5 -203t181.5 -549q0 -443 -188.5 -573.5
t-309.5 -159.5q30 -373 295 -373h33z" />
    <glyph glyph-name="R" unicode="R" horiz-adv-x="1448" 
d="M571 754h115q137 0 192.5 73t55.5 227t-57.5 220.5t-194.5 66.5h-111v-587zM717 1462q561 0 561 -379q0 -274 -279 -387l244 -420q77 -131 126.5 -149t78.5 -18h8v-109h-67q-194 0 -263 27.5t-106.5 63.5t-69.5 93l-243 451h-136v-404q0 -104 42 -113t63 -9h88v-109h-707
v109h86q50 0 77.5 24t27.5 98v998q0 105 -42 115t-63 10h-86v108h660z" />
    <glyph glyph-name="S" unicode="S" horiz-adv-x="1200" 
d="M175 64.5q-114 84.5 -114 191.5t66 154t166 47q0 -170 76.5 -262.5t198.5 -92.5t190.5 62.5t68.5 160.5t-75 159t-224 123q-150 62 -223.5 108.5t-138 124t-64.5 231.5q0 185 141 298.5t359 113.5t328 -66t110 -178t-94.5 -138t-157.5 -26q0 104 -54.5 193.5t-162.5 89.5
q-138 0 -170 -72t-32 -116q0 -93 69 -160t274 -151q205 -83 295.5 -181.5t90.5 -249.5q0 -201 -153 -324.5t-409 -123.5q-247 0 -361 84.5z" />
    <glyph glyph-name="T" unicode="T" horiz-adv-x="1337" 
d="M831 242q0 -113 41.5 -123t63.5 -10h86v-109h-707v109h86q52 0 78.5 26.5t26.5 106.5v1095h-164q-127 0 -146.5 -55.5t-23.5 -89.5l-14 -127h-138l11 397h1276l10 -397h-137l-15 127q-9 74 -46 109.5t-124 35.5h-164v-1095z" />
    <glyph glyph-name="U" unicode="U" horiz-adv-x="1530" 
d="M1497 1354h-88q-50 0 -77 -26t-27 -107v-799q0 -323 -189 -382.5t-395.5 -59.5t-351 111t-144.5 355v783q0 105 -41.5 115t-62.5 10h-88v108h706v-108h-86q-50 0 -77 -26t-27 -107v-791q0 -240 117.5 -272.5t186.5 -32.5q143 0 220.5 74.5t77.5 226.5v803
q0 105 -41.5 115t-62.5 10h-86v108h536v-108z" />
    <glyph glyph-name="V" unicode="V" horiz-adv-x="1430" 
d="M1430 1354h-99q-28 0 -47.5 -29t-50.5 -121l-418 -1204h-205l-436 1255q-34 99 -127 99h-47v108h676v-108h-94q-54 0 -67 -24.5t-13 -52.5t18 -79l209 -631q44 -126 57 -248q12 68 68 242l211 623q25 69 25 101q0 33 -22.5 51t-59.5 18h-107v108h529v-108z" />
    <glyph glyph-name="W" unicode="W" horiz-adv-x="2185" 
d="M637 1354q-123 0 -123 -99q0 -36 21 -110l137 -473q68 -240 80 -342q18 83 65 241l270 877h150l283 -782q73 -195 100 -340q8 37 29.5 145.5t52.5 233.5l108 442q19 75 19 119q0 88 -131 88h-47v108h534v-108h-39q-64 0 -96 -31.5t-59 -128.5l-318 -1194h-233l-344 961
l-295 -961h-254l-375 1245q-17 61 -50.5 85t-94.5 24h-27v108h684v-108h-47z" />
    <glyph glyph-name="X" unicode="X" horiz-adv-x="1499" 
d="M735 1354q-121 0 -121 -60q0 -38 54 -120l170 -254l178 249q55 86 55 125q0 60 -115 60h-6v108h480v-108h-19q-58 0 -100 -31.5t-103 -116.5l-297 -405l377 -584q69 -108 164 -108h27v-109h-676v109h10q123 0 123 67q0 43 -68 141l-188 285l-221 -299q-53 -73 -53 -125
q0 -69 124 -69h7v-109h-517v109h13q67 0 111.5 33.5t101.5 109.5l358 467l-338 526q-38 60 -75 84.5t-101 24.5h-27v108h678v-108h-6z" />
    <glyph glyph-name="Y" unicode="Y" horiz-adv-x="1419" 
d="M1065 1253q0 101 -135 101h-47v108h536v-108h-39q-50 0 -77.5 -30t-77.5 -130l-348 -678v-280q0 -114 45 -120.5t69 -6.5h101v-109h-756v109h96q60 0 89.5 23t29.5 101v285l-379 727q-32 64 -60.5 86.5t-84.5 22.5h-27v108h686v-108h-35q-62 0 -92.5 -25t-30.5 -69
t31 -111l152 -301q52 -105 90 -213q49 127 110 250l119 245q35 72 35 123z" />
    <glyph glyph-name="Z" unicode="Z" horiz-adv-x="1364" 
d="M901 125q163 0 187 83t28 122l10 92h148l-10 -422h-1178v102l768 1235h-403q-129 0 -146.5 -72t-21.5 -114l-11 -111h-147l10 422h1094v-104l-770 -1233h442z" />
    <glyph glyph-name="bracketleft" unicode="[" horiz-adv-x="848" 
d="M205 -262v1818h567v-108h-88q-81 0 -124.5 -30t-43.5 -118v-1306q0 -126 67 -137t101 -11h88v-108h-567z" />
    <glyph glyph-name="backslash" unicode="\" horiz-adv-x="590" 
d="M0 1556h145l445 -1804h-148z" />
    <glyph glyph-name="bracketright" unicode="]" horiz-adv-x="848" 
d="M643 1556v-1818h-567v108h88q81 0 124.5 30t43.5 118v1306q0 126 -66.5 137t-101.5 11h-88v108h567z" />
    <glyph glyph-name="asciicircum" unicode="^" 
d="M526 1462h88l435 -925h-160l-320 702l-315 -702h-160z" />
    <glyph glyph-name="underscore" unicode="_" horiz-adv-x="940" 
d="M950 -291h-960v121h960v-121z" />
    <glyph glyph-name="grave" unicode="`" horiz-adv-x="1182" 
d="M852 1241h-139q-158 92 -260 186t-121 121v21h321q48 -102 199 -301v-27z" />
    <glyph glyph-name="a" unicode="a" horiz-adv-x="1227" 
d="M455 778q-277 0 -277 128q0 116 117.5 167t264.5 51q148 0 228.5 -18.5t161 -80t80.5 -249.5v-522q0 -83 26.5 -114t96.5 -31h8v-109h-381l-43 141h-18q-76 -91 -135 -126t-149 -35q-164 0 -253.5 85.5t-89.5 249.5q0 165 114.5 245t344.5 87l168 6v113q0 118 -17 158.5
t-42.5 57.5t-67.5 17q-137 0 -137 -221zM410 305q0 -176 116 -176q87 0 140 70.5t53 191.5v154l-92 -6q-173 -8 -195 -93t-22 -141z" />
    <glyph glyph-name="b" unicode="b" horiz-adv-x="1329" 
d="M918 558q0 206 -45 309.5t-155 103.5t-156 -99t-46 -316t46.5 -320t155.5 -103q110 0 155 109.5t45 315.5zM1233 553q0 -437 -159 -505t-261 -68q-214 0 -313 180h-19l-57 -160h-389v109h14q70 0 113 29t43 114v1059q0 115 -64.5 126t-97.5 11h-8v108h481v-350
q0 -60 -16 -248h14q95 164 307 164q412 0 412 -569z" />
    <glyph glyph-name="c" unicode="c" horiz-adv-x="1079" 
d="M604 -20q-508 0 -508 572t502 572q292 0 349 -85t57 -124q0 -180 -265 -180q0 264 -133 264q-144 0 -169 -160.5t-25 -291.5q0 -208 57 -311t200 -103t204 65.5t79 100.5q49 -29 49 -81q0 -101 -102 -169.5t-295 -68.5z" />
    <glyph glyph-name="d" unicode="d" horiz-adv-x="1329" 
d="M410 549q0 -209 43.5 -312.5t153.5 -103.5t157 98.5t47 316.5q0 217 -47 320t-164 103q-190 0 -190 -422zM811 1208v113q0 109 -66 118t-100 9h-16v108h493v-1304q0 -121 68 -132t102 -11h8v-109h-397l-57 160h-19q-99 -180 -315 -180q-418 0 -418 571t414 571
q209 0 305 -164h14q-16 228 -16 250z" />
    <glyph glyph-name="e" unicode="e" horiz-adv-x="1169" 
d="M1030 199q0 -94 -104 -156.5t-266 -62.5t-363 76.5t-201 497.5t193.5 495.5t309.5 74.5q231 0 357.5 -126.5t126.5 -366.5v-105h-671q11 -393 274 -393q153 0 212 65.5t77 100.5q55 -30 55 -100zM770 657q0 334 -162 334q-86 0 -136.5 -85t-55.5 -249h354z" />
    <glyph glyph-name="f" unicode="f" horiz-adv-x="834" 
d="M541 242q0 -133 145 -133h96v-109h-743v109h45q145 0 145 133v716h-182v140h182v76q0 401 418 401q342 0 342 -150q0 -133 -252 -133q0 104 -36.5 135t-63.5 31q-52 0 -74 -56t-22 -192v-112h282v-140h-282v-716z" />
    <glyph glyph-name="g" unicode="g" horiz-adv-x="1147" 
d="M666 748q0 253 -142 253q-142 -1 -141 -247q0 -246 143 -246q113 0 126.5 92.5t13.5 147.5zM428 -47q-182 0 -182 -156q0 -166 241 -166q344 0 344 205q0 65 -41 91t-124 26h-238zM846 1006q100 -110 100 -280q0 -58 -24.5 -123.5t-104 -140.5t-285.5 -75q-11 0 -28 0.5
t-38.5 1t-51.5 4.5q-74 -40 -74 -105t96 -65h248q393 0 393 -313q0 -293 -221 -347.5t-373 -54.5q-479 0 -479 285q0 215 277 238q-150 59 -150 182q0 92 71 142t111 73q-145 52 -177 153.5t-32 163.5q0 180 104.5 279.5t323.5 99.5q133 0 244 -63q52 55 98 85t99 30
q86 0 125 -33.5t39 -70.5q0 -66 -33.5 -98t-112.5 -32q0 61 -31.5 73.5t-57.5 12.5t-56 -22z" />
    <glyph glyph-name="h" unicode="h" horiz-adv-x="1366" 
d="M831 1124q338 0 338 -395v-475q0 -90 31 -117.5t107 -27.5h6v-109h-455v674q0 206 -59.5 241t-107.5 35q-91 0 -133 -88.5t-42 -228.5v-391q0 -114 57 -123.5t91 -9.5h6v-109h-629v109h4q80 0 120 28t40 113v1073q0 125 -146 125h-24v108h481v-337q0 -85 -16 -261h18
q78 147 171.5 156.5t141.5 9.5z" />
    <glyph glyph-name="i" unicode="i" horiz-adv-x="721" 
d="M516 242q0 -133 146 -133h24v-109h-651v109h24q146 0 146 133v622q0 125 -146 125h-24v109h481v-856zM329 1577q197 0 197 -147q0 -108 -70.5 -128t-106.5 -20t-67.5 9t-55 27t-37 46t-13.5 66q0 74 48.5 110.5t104.5 36.5z" />
    <glyph glyph-name="j" unicode="j" horiz-adv-x="707" 
d="M331 1577q197 0 197 -147q0 -108 -70.5 -128t-106.5 -20t-67.5 9t-55 27t-37 46t-13.5 66q0 74 48.5 110.5t104.5 36.5zM516 1098v-1114q0 -378 -201.5 -427t-314.5 -49h-41v127h14q118 0 175 81.5t57 283.5v854q0 115 -65.5 125t-98.5 10h-6v109h481z" />
    <glyph glyph-name="k" unicode="k" horiz-adv-x="1303" 
d="M819 940q0 55 -106 55v103h516v-103q-71 0 -139.5 -41.5t-149.5 -132.5l-129 -147l272 -406q106 -159 213 -159h7v-109h-29q-233 0 -303.5 23t-110.5 59.5t-80 99.5l-182 287l-82 -61v-166q0 -133 146 -133h24v-109h-651v109h24q146 0 146 133v1081q0 125 -146 125h-24
v108h481v-790q0 -52 -4 -112q-4 -61 -6 -101l258 289q55 61 55 98z" />
    <glyph glyph-name="l" unicode="l" horiz-adv-x="721" 
d="M516 242q0 -133 146 -133h24v-109h-651v109h24q146 0 146 133v1081q0 125 -146 125h-24v108h481v-1314z" />
    <glyph glyph-name="m" unicode="m" horiz-adv-x="2019" 
d="M1485 1124q338 0 338 -395v-475q0 -90 31 -117.5t106 -27.5h6v-109h-455v674q0 132 -36.5 204t-126.5 72q-135 0 -157 -117t-22 -176v-403q0 -90 31 -117.5t107 -27.5h6v-109h-455v674q0 206 -59.5 241t-107.5 35q-91 0 -133 -88.5t-42 -228.5v-391q0 -114 57 -123.5
t91 -9.5h6v-109h-629v109h4q80 0 120 28t40 113v612q0 114 -57 123.5t-91 9.5h-6v103h430l27 -146h10q81 151 173 161.5t140 10.5q240 0 310 -172h18q80 150 179 161t147 11z" />
    <glyph glyph-name="n" unicode="n" horiz-adv-x="1366" 
d="M831 1124q338 0 338 -395v-475q0 -90 31 -117.5t107 -27.5h6v-109h-455v674q0 206 -59.5 241t-107.5 35q-91 0 -133 -88.5t-42 -228.5v-391q0 -114 57 -123.5t91 -9.5h6v-109h-629v109h4q80 0 120 28t40 113v606q0 114 -57 123.5t-91 9.5h-6v109h430l27 -146h10
q81 151 173 161.5t140 10.5z" />
    <glyph glyph-name="o" unicode="o" horiz-adv-x="1255" 
d="M414 554q0 -110 11.5 -193t37 -139t66.5 -84.5t127.5 -28.5t136 108.5t49.5 335.5q0 335 -78 387.5t-137 52.5t-100 -27.5t-66 -82.5t-36 -137t-11 -192zM96 553q0 571 535 571q383 0 455.5 -213.5t72.5 -357.5q0 -573 -534 -573q-384 0 -456.5 214.5t-72.5 358.5z" />
    <glyph glyph-name="p" unicode="p" horiz-adv-x="1321" 
d="M909 540q0 206 -44.5 315.5t-154.5 109.5t-156 -103.5t-46 -319.5q0 -217 46 -316t156 -99t154.5 103.5t44.5 309.5zM508 -250q0 -133 145 -133h45v-109h-671v109h24q146 0 146 133v1096q0 122 -54.5 132.5t-83.5 10.5h-14v109h401l37 -160h9q99 180 313 180
q420 0 420 -572t-412 -571q-211 0 -307 164h-14q16 -188 16 -248v-141z" />
    <glyph glyph-name="q" unicode="q" horiz-adv-x="1327" 
d="M410 551q0 -207 43.5 -313.5t146.5 -106.5q170 0 190.5 157t20.5 261q0 219 -46.5 317.5t-157.5 98.5q-110 0 -153.5 -103.5t-43.5 -310.5zM512 1118q216 0 315 -180h19l41 160h413v-109h-8q-79 0 -124.5 -29t-45.5 -114v-1102q0 -109 66 -118t100 -9h37v-109h-717v109
h37q80 0 123 25t43 102v150q0 17 16 249h-14q-98 -163 -305 -163q-414 0 -414 569t418 569z" />
    <glyph glyph-name="r" unicode="r" horiz-adv-x="1071" 
d="M805 1122q235 0 235 -166q0 -94 -68 -146t-192 -52q0 90 -22 130t-68 40t-72 -18t-64 -78t-38 -232v-354q0 -118 56.5 -127.5t86.5 -9.5h66v-109h-684v109h6q79 0 118.5 29t39.5 118v594q0 120 -57 129.5t-91 9.5h-6v109h414l41 -160h10q42 97 105.5 140.5t183.5 43.5z
" />
    <glyph glyph-name="s" unicode="s" horiz-adv-x="999" 
d="M470 -20q-210 0 -309.5 64.5t-99.5 163.5q0 167 191 167q0 -127 60.5 -201t160.5 -74q150 0 176.5 56t26.5 87q0 64 -53.5 107.5t-167.5 82.5q-206 72 -289.5 151.5t-83.5 225.5q0 147 118 229.5t310 82.5t281.5 -56t89.5 -130q0 -73 -48.5 -109t-160.5 -36
q0 102 -45.5 158.5t-145.5 56.5t-127.5 -48t-27.5 -80q0 -66 57.5 -108.5t173.5 -82.5q117 -41 239 -105.5t122 -241.5q0 -260 -170 -310t-278 -50z" />
    <glyph glyph-name="t" unicode="t" horiz-adv-x="829" 
d="M43 1063q230 0 295 289h170v-254h262v-140h-262v-634q0 -93 32 -136t102 -43t146 19v-133q-102 -51 -290 -51q-301 0 -301 323v655h-154v105z" />
    <glyph glyph-name="u" unicode="u" horiz-adv-x="1366" 
d="M664 154q186 0 186 311v393q0 116 -59 123.5t-89 7.5h-6v109h465v-860q0 -114 53.5 -121.5t83.5 -7.5h17v-109h-408l-45 145h-10q-82 -139 -179 -152t-145 -13q-160 0 -245.5 99t-85.5 306v459q0 86 -31.5 115.5t-108.5 29.5h-4v109h455v-656q0 -141 25.5 -194
t55.5 -73.5t75 -20.5z" />
    <glyph glyph-name="v" unicode="v" horiz-adv-x="1241" 
d="M930 930q0 59 -80 59h-59v109h450v-109h-41q-44 0 -71 -27t-62 -122l-297 -840h-270l-336 891q-31 80 -80.5 89t-83.5 9v109h635v-109h-86q-68 0 -68 -65q0 -36 19 -90l137 -388q48 -125 72 -249q8 40 14 60l45 149l139 411q23 64 23 113z" />
    <glyph glyph-name="w" unicode="w" horiz-adv-x="1753" 
d="M1436 889q0 100 -136 100h-14v109h469v-109h-26q-62 0 -92.5 -31t-61.5 -129l-264 -829h-221l-224 680l-235 -680h-223l-263 881q-22 63 -53.5 85.5t-91.5 22.5h-6v109h600v-109h-27q-62 0 -92.5 -17.5t-30.5 -54.5t17 -102l76 -266q41 -153 61 -281h6q16 89 66 236
l209 583h133l200 -604q32 -94 54 -215h6q22 115 55 219l90 299q19 62 19 103z" />
    <glyph glyph-name="x" unicode="x" horiz-adv-x="1323" 
d="M698 989q-116 0 -116 -59q0 -36 47 -94l114 -140l97 117q51 66 51 109t-28.5 55t-76.5 12h-6v109h473v-109h-18q-59 0 -99.5 -25t-107.5 -106l-211 -258l301 -383q86 -108 164 -108h27v-109h-652v109h11q123 0 123 67q0 37 -26.5 74t-51.5 67l-117 142l-143 -178
q-43 -57 -43 -103q0 -69 127 -69h6v-109h-520v109h18q72 0 116 27t107 104l258 311l-258 330q-86 108 -176 108h-27v109h644v-109h-7z" />
    <glyph glyph-name="y" unicode="y" horiz-adv-x="1186" 
d="M1186 1098v-109q-63 0 -97.5 -32t-68.5 -126q-34 -93 -73 -199t-78.5 -212.5t-79 -212t-75.5 -205.5t-68.5 -175.5t-85 -156.5t-159.5 -121.5t-311 -40.5h-35v119q287 0 357.5 141t95.5 222l-369 901q-31 75 -73.5 80.5t-65.5 5.5v121h584v-109q-60 0 -94.5 -15.5
t-34.5 -52.5t19 -83q38 -94 68.5 -177t59.5 -162q64 -175 72 -257q6 60 24 108l21 56l135 401q20 51 20 99t-39 65.5t-110 17.5v109h461z" />
    <glyph glyph-name="z" unicode="z" horiz-adv-x="1083" 
d="M754 139q60 0 88 36.5t47 129.5l12 66h121l-10 -371h-975v84l604 874h-299q-46 0 -70.5 -30t-46.5 -113l-12 -49h-123l25 332h884v-88l-606 -871h361z" />
    <glyph glyph-name="braceleft" unicode="{" horiz-adv-x="905" 
d="M649 -256q-256 0 -303 116.5t-47 186.5v350q0 154 -94 172.5t-144 20.5v125q117 5 177.5 44.5t60.5 145.5v352q0 144 88.5 221.5t261.5 77.5h195v-108h-80q-120 0 -133 -75.5t-13 -123.5v-348q0 -93 -53 -152.5t-172 -86.5v-17q118 -29 171.5 -89t53.5 -153v-350
q0 -103 23 -138.5t51 -48.5t72 -13h80v-109h-195z" />
    <glyph glyph-name="bar" unicode="|" 
d="M645 -492h-147v2048h147v-2048z" />
    <glyph glyph-name="braceright" unicode="}" horiz-adv-x="905" 
d="M61 -256v109h80q120 0 133 76t13 124v350q0 93 53.5 153t171.5 89v17q-119 27 -172 86.5t-53 152.5v348q0 103 -23 138t-51 48t-72 13h-80v108h195q173 0 261.5 -77.5t88.5 -221.5v-352q0 -153 94 -170.5t144 -19.5v-125q-115 -5 -158 -33t-61.5 -64.5t-18.5 -95.5v-350
q0 -218 -132 -260.5t-218 -42.5h-195z" />
    <glyph glyph-name="asciitilde" unicode="~" horiz-adv-x="1149" 
d="M801 745q118 0 235 121v-157q-98 -109 -248 -109q-82 0 -141 22t-101 40t-70 28.5t-50.5 17t-43 9t-45.5 2.5q-50 0 -112.5 -34t-111.5 -87v158q99 108 247 108q86 0 143.5 -21.5t99.5 -39.5q135 -58 198 -58z" />
    <glyph glyph-name="nonbreakingspace" unicode="&#xa0;" horiz-adv-x="532" 
 />
    <glyph glyph-name="exclamdown" unicode="&#xa1;" horiz-adv-x="782" 
d="M389 1110q168 0 168 -164t-168 -164t-168 164t168 164zM569 -369h-356l121 996h115z" />
    <glyph glyph-name="cent" unicode="&#xa2;" 
d="M430 735q0 -318 141 -389v828q-141 -64 -141 -439zM117 737q0 537 454 574v151h127v-151q262 -15 312.5 -93.5t50.5 -115.5q0 -178 -264 -178q0 212 -99 254v-856q152 3 213.5 66.5t79.5 98.5q51 -29 51 -101q0 -71 -89 -138t-255 -78v-170h-127v170q-454 30 -454 567z
" />
    <glyph glyph-name="sterling" unicode="&#xa3;" 
d="M584 543q0 -161 -185 -281l7 -10q54 18 98 18q63 0 96 -9t118 -35q85 -27 152 -27q126 0 215 151v-229q-79 -141 -237 -141q-129 0 -244 45q-132 45 -185 45q-82 0 -134 -15t-117 -47l-90 -47v184l65 41q80 50 133.5 126.5t53.5 176.5t-45 220h-236v125h191
q-66 150 -66 278q0 180 117 275.5t338 95.5q310 0 357.5 -94t47.5 -155t-65 -108t-191 -47q0 186 -57 232.5t-121 46.5t-109 -58.5t-45 -191.5t68 -274h363v-125l-324 2q31 -102 31 -168z" />
    <glyph glyph-name="currency" unicode="&#xa4;" 
d="M402 562q68 -70 168 -70q101 0 168 69t67 169t-67.5 169.5t-167.5 69.5q-101 0 -168.5 -70.5t-67.5 -168.5t68 -168zM195 732q0 119 65 210l-123 123l103 102l122 -123q96 62 209 62q112 0 205 -64l127 127l103 -104l-125 -127q65 -94 65 -207.5t-61 -208.5l121 -121
l-103 -102l-121 121q-98 -66 -215 -66t-209 64l-118 -119l-105 104l119 119q-59 91 -59 210z" />
    <glyph glyph-name="yen" unicode="&#xa5;" horiz-adv-x="1104" 
d="M565 1354q-116 0 -116 -72q0 -51 32 -129l78 -195q55 -137 72 -227q6 29 53 150l86 225q41 110 41 159t-28.5 69t-96.5 20h-6v108h426v-108h-6q-52 0 -83 -31.5t-73 -128.5l-211 -496h268v-120h-286v-119h286v-121h-286v-102q0 -121 67 -124t101 -3h47v-109h-735v109h47
q90 0 128 18t40 98v113h-287v121h287v119h-287v120h252l-242 547q-29 65 -55.5 87t-77.5 22h-6v108h586v-108h-15z" />
    <glyph glyph-name="brokenbar" unicode="&#xa6;" 
d="M645 -492h-147v820h147v-820zM645 737h-147v819h147v-819z" />
    <glyph glyph-name="section" unicode="&#xa7;" horiz-adv-x="1114" 
d="M836 519q0 79 -52.5 138.5t-159.5 110.5q-213 103 -276 147q-33 -37 -33 -85q0 -87 58.5 -140t217.5 -132t218 -120q27 39 27 81zM977 137q0 -168 -106 -268t-312 -100q-205 0 -298 76.5t-93 189.5t71 135.5t111 22.5q0 -220 91 -267t171 -47t134.5 54t54.5 142t-64 145
t-218 133q-155 76 -270.5 158t-115.5 261q0 69 37 124.5t96 86.5q-88 93 -88 246t112.5 240t289.5 87t272.5 -64.5t95.5 -168.5q0 -63 -50 -105t-144 -42q0 177 -63.5 222.5t-133.5 45.5t-122 -50t-52 -141t53.5 -135t176.5 -102q240 -113 331.5 -202.5t91.5 -208.5
t-52 -175.5t-79 -73.5q72 -91 72 -219z" />
    <glyph glyph-name="dieresis" unicode="&#xa8;" horiz-adv-x="1182" 
d="M814 1282q-136 0 -136 128q0 66 34.5 96t72.5 30q67 0 102 -31t35 -80q0 -80 -35 -111.5t-73 -31.5zM258 1410q0 34 10 58.5t26.5 39.5t38.5 21.5t60.5 6.5t73.5 -31t35 -80q0 -50 -10.5 -74.5t-27.5 -39.5t-39 -22t-46 -7t-46 7t-38.5 22t-26.5 40t-10 59z" />
    <glyph glyph-name="copyright" unicode="&#xa9;" horiz-adv-x="1731" 
d="M1044 944q0 156 -160 156q-250 0 -251 -364q0 -180 69 -275.5t199 -95.5t184 57t68 82q29 -22 29 -57q0 -69 -82 -120t-205 -51q-219 0 -324.5 122.5t-105.5 331.5t114.5 332.5t321.5 123.5t245 -58t38 -84q0 -48 -40 -74t-100 -26zM225 732q0 -88 23 -170t86 -190
t210.5 -194t319.5 -86q266 0 419 153t187.5 275.5t34.5 210.5t-23 170t-86 190.5t-210.5 194.5t-320.5 86t-359.5 -109t-233.5 -276t-47 -255zM113 731q0 104 27 200.5t75.5 180t117 152.5t152 118t179.5 76t200 27t200.5 -27t180 -76t152.5 -118t118 -152.5t76 -180
t27 -200.5t-27 -200t-76 -179.5t-118 -152t-152.5 -117.5t-180 -75.5t-200.5 -26.5t-200 26.5t-179.5 75.5t-152 117.5t-117 152t-75.5 179.5t-27 200z" />
    <glyph glyph-name="ordfeminine" unicode="&#xaa;" horiz-adv-x="860" 
d="M283 778q-104 0 -164 53t-60 155t86 151t261 57l92 4v55q0 98 -27.5 114.5t-53.5 16.5q-47 0 -63 -33t-16 -94q-223 0 -223 89q0 127 305 127q155 0 232 -48.5t77 -164.5v-302q0 -45 19.5 -61t68.5 -16v-90h-239l-50 100h-14q-92 -113 -231 -113zM295 994
q0 -56 22.5 -78.5t70.5 -22.5t79 39.5t31 101.5v84l-47 -2q-156 -5 -156 -122z" />
    <glyph glyph-name="guillemotleft" unicode="&#xab;" horiz-adv-x="1135" 
d="M545 606l313 357h143l-206 -410l206 -410h-143l-313 357v106zM133 606l313 357h144l-207 -410l207 -410h-144l-313 357v106z" />
    <glyph glyph-name="logicalnot" unicode="&#xac;" 
d="M1012 805v-512h-148v366h-731v146h879z" />
    <glyph glyph-name="uni00AD" unicode="&#xad;" horiz-adv-x="635" 
d="M51 451v215h533v-215h-533z" />
    <glyph glyph-name="registered" unicode="&#xae;" horiz-adv-x="1731" 
d="M225 732q0 -88 23 -170t86 -190t210.5 -194t319.5 -86q266 0 419 153t187.5 275.5t34.5 210.5t-23 170t-86 190.5t-210.5 194.5t-320.5 86t-359.5 -109t-233.5 -276t-47 -255zM113 731q0 104 27 200.5t75.5 180t117 152.5t152 118t179.5 76t200 27t200.5 -27t180 -76
t152.5 -118t118 -152.5t76 -180t27 -200.5t-27 -200t-76 -179.5t-118 -152t-152.5 -117.5t-180 -75.5t-200.5 -26.5t-200 26.5t-179.5 75.5t-152 117.5t-117 152t-75.5 179.5t-27 200zM758 748h86q155 0 173.5 67t18.5 113q0 91 -45.5 128.5t-152.5 37.5h-80v-346zM477 358
h27q73 0 86.5 24t13.5 48v600q0 63 -40 67.5t-60 4.5h-27v72h369q352 0 352 -244q0 -167 -186 -225l182 -293q20 -34 42 -44t73 -10v-69h-217l-226 381h-108v-240q4 -44 29 -58t71 -14h29v-69h-410v69z" />
    <glyph glyph-name="overscore" unicode="&#xaf;" horiz-adv-x="940" 
d="M950 1556h-960v121h960v-121z" />
    <glyph glyph-name="degree" unicode="&#xb0;" horiz-adv-x="819" 
d="M289 1031.5q49 -50.5 120 -50.5t120 50.5t49 121.5t-49.5 120.5t-119.5 49.5t-119.5 -49.5t-49.5 -120.5t49 -121.5zM98 1152q0 128 91 219t219 91t219.5 -91t91.5 -219t-90.5 -219t-220.5 -91t-220 91t-90 219z" />
    <glyph glyph-name="plusminus" unicode="&#xb1;" 
d="M645 659v-366h-147v366h-365v146h365v366h147v-366h367v-146h-367zM1012 0h-879v145h879v-145z" />
    <glyph glyph-name="twosuperior" unicode="&#xb2;" horiz-adv-x="819" 
d="M383 1483q315 0 315 -219q0 -92 -58 -169t-237 -218l-167 -132h327q72 0 86 68l10 55h76l-8 -282h-651v147l225 189q145 120 161.5 203.5t16.5 137.5q0 128 -96 128q-107 0 -107 -203q-123 0 -153.5 45t-30.5 80q0 74 77 122t214 48z" />
    <glyph glyph-name="threesuperior" unicode="&#xb3;" horiz-adv-x="819" 
d="M520 846q0 143 -223 143h-68v96h68q78 0 130 48.5t52 119.5q0 70 -21.5 104t-74.5 34q-111 0 -111 -179q-133 0 -155.5 31t-22.5 63t19 65.5t56 58t92 39t161 14.5t191 -54t85 -146q0 -178 -209 -230v-11q117 -18 180.5 -59t63.5 -129q0 -149 -122.5 -215t-276.5 -66
t-254 50v106q125 -51 233 -51q207 0 207 168z" />
    <glyph glyph-name="acute" unicode="&#xb4;" horiz-adv-x="1182" 
d="M850 1569v-21q-60 -85 -196.5 -182t-184.5 -125h-139v27q148 196 198 301h322z" />
    <glyph glyph-name="mu" unicode="&#xb5;" horiz-adv-x="1362" 
d="M502 422q0 -268 155 -268q85 0 136 86.5t51 230.5v627h311v-815q0 -94 34 -134t105 -40h15v-109h-179q-105 0 -172.5 49t-93.5 129h-10q-54 -101 -116.5 -149.5t-164.5 -48.5q-161 0 -245 120q0 -196 30 -266.5t73.5 -104t115.5 -42.5q0 -123 -72.5 -151t-113.5 -28
q-87 0 -141 64t-54 205q0 86 11 288.5t13 395.5v637h312v-676z" />
    <glyph glyph-name="paragraph" unicode="&#xb6;" horiz-adv-x="1284" 
d="M82 1192q0 364 317 364h803v-108h-26q-81 0 -124.5 -29.5t-43.5 -118.5v-1273q0 -126 66.5 -136t101.5 -10h26v-108h-342v1657h-172v-1657h-342v108h27q83 0 125.5 29.5t42.5 116.5v764h-146q-168 0 -240.5 112t-72.5 289z" />
    <glyph glyph-name="periodcentered" unicode="&#xb7;" horiz-adv-x="623" 
d="M311 563q-168 0 -168 164t168 164t168 -164t-168 -164z" />
    <glyph glyph-name="cedilla" unicode="&#xb8;" horiz-adv-x="682" 
d="M239 -360q128 0 128 82q0 67 -40.5 89.5t-113.5 26.5l43 180h117l-21 -88q156 -13 187.5 -80.5t31.5 -114.5q0 -100 -79 -163.5t-191 -63.5t-199 23v125q76 -16 137 -16z" />
    <glyph glyph-name="onesuperior" unicode="&#xb9;" horiz-adv-x="819" 
d="M528 1473v-717q0 -67 38 -72.5t57 -5.5h84v-90h-578v90h104q70 0 81.5 26t11.5 52v581q-48 -57 -85.5 -92t-70.5 -35t-53.5 29.5t-20.5 71.5q89 22 189 94l92 68h151z" />
    <glyph glyph-name="ordmasculine" unicode="&#xba;" horiz-adv-x="895" 
d="M72 1126q0 347 379 347q268 0 320 -129.5t52 -217.5q0 -348 -377 -348q-178 0 -276 86.5t-98 261.5zM311 1126q0 -121 30.5 -183t106.5 -62t107 62t31 183t-32 180.5t-108 59.5t-105.5 -59.5t-29.5 -180.5z" />
    <glyph glyph-name="guillemotright" unicode="&#xbb;" horiz-adv-x="1135" 
d="M590 500l-314 -357h-143l207 410l-207 410h143l314 -357v-106zM1001 500l-313 -357h-143l207 410l-207 410h143l313 -357v-106z" />
    <glyph glyph-name="onequarter" unicode="&#xbc;" horiz-adv-x="1720" 
d="M443 1473v-717q1 -68 59 -76q18 -2 36 -2h84v-90h-578v90h104q70 0 86 36q7 16 7 42v581q-47 -57 -85 -92t-71 -35t-53 30t-21 71q89 22 189 94l92 68h151zM578 0h-160l731 1462h158zM1319 595q0 57 10 133q-16 -34 -31 -58l-233 -321h254v246zM1522 240v-71
q0 -48 23 -63t63 -15h41v-90h-471v90h57q61 1 77 37q7 16 7 41v71h-389v82l407 564h185v-537h159v-109h-159z" />
    <glyph glyph-name="onehalf" unicode="&#xbd;" horiz-adv-x="1720" 
d="M443 1473v-717q1 -68 59 -76q18 -2 36 -2h84v-90h-578v90h104q70 0 86 36q7 16 7 42v581q-47 -57 -85 -92t-71 -35t-53 30t-21 71q89 22 189 94l92 68h151zM537 0h-160l731 1462h158zM1313 898q315 0 315 -219q0 -92 -58 -169t-237 -218l-167 -132h327q72 0 86 68l10 55
h76l-8 -282h-651v147l225 189q145 120 170 247q8 40 8 94q0 128 -96 128q-107 0 -107 -203q-123 1 -168 67q-16 24 -16 58q0 74 77 122t214 48z" />
    <glyph glyph-name="threequarters" unicode="&#xbe;" horiz-adv-x="1720" 
d="M520 846q0 143 -223 143h-68v96h68q78 0 130 49t52 119q1 70 -21 104t-75 34q-111 0 -111 -179q-134 0 -166 44q-12 18 -12 50t19 66t56 58t92 38t126 15q141 0 226 -54t85 -146q0 -178 -209 -230v-11q117 -18 159 -45q85 -55 85 -143q-1 -150 -135 -222
q-110 -60 -264 -59q-154 0 -254 50v106q125 -51 233 -51q207 0 207 168zM619 0h-160l731 1462h158zM1319 595q0 57 10 133q-16 -34 -31 -58l-233 -321h254v246zM1522 240v-71q0 -48 23 -63t63 -15h41v-90h-471v90h57q61 1 77 37q7 16 7 41v71h-389v82l407 564h185v-537h159
v-109h-159z" />
    <glyph glyph-name="questiondown" unicode="&#xbf;" horiz-adv-x="1126" 
d="M627 1108q168 0 168 -164t-168 -164t-168 164t168 164zM438 -47q0 -221 162 -221q85 0 123.5 72t38.5 186q203 0 246 -54t43 -97q0 -98 -110.5 -164t-329.5 -66t-358.5 101.5t-139.5 275.5q0 231 152.5 320.5t254.5 131.5l41 187h125l41 -252q-289 -116 -289 -420z" />
    <glyph glyph-name="Agrave" unicode="&#xc0;" horiz-adv-x="1542" 
d="M795 942q-61 193 -86 307q-17 -60 -39 -121l-34 -101q-14 -39 -26 -75l-121 -346h414zM390 129q28 -20 65 -20h86v-109h-533v109h25q58 0 94 30t70 119l444 1204h281l428 -1206q29 -84 66 -116q37 -31 89 -31h37v-109h-676v109h80q57 0 80 43q8 15 8 44t-18 80l-72 205
h-498l-59 -176q-25 -78 -25 -117t28 -59zM897 1579h-139q-158 91 -318 239q-44 40 -63 68v21h321q48 -102 199 -301v-27z" />
    <glyph glyph-name="Aacute" unicode="&#xc1;" horiz-adv-x="1542" 
d="M795 942q-61 193 -86 307q-17 -60 -39 -121l-34 -101q-14 -39 -26 -75l-121 -346h414zM390 129q28 -20 65 -20h86v-109h-533v109h25q58 0 94 30t70 119l444 1204h281l428 -1206q29 -84 66 -116q37 -31 89 -31h37v-109h-676v109h80q57 0 80 43q8 15 8 44t-18 80l-72 205
h-498l-59 -176q-25 -78 -25 -117t28 -59zM1161 1907v-21q-61 -86 -275 -238q-58 -42 -106 -69h-139v27q148 196 198 301h322z" />
    <glyph glyph-name="Acircumflex" unicode="&#xc2;" horiz-adv-x="1542" 
d="M795 942q-61 193 -86 307q-17 -60 -39 -121l-34 -101q-14 -39 -26 -75l-121 -346h414zM390 129q28 -20 65 -20h86v-109h-533v109h25q58 0 94 30t70 119l444 1204h281l428 -1206q29 -84 66 -116q37 -31 89 -31h37v-109h-676v109h80q57 0 80 43q8 15 8 44t-18 80l-72 205
h-498l-59 -176q-25 -78 -25 -117t28 -59zM415 1579v27q25 29 57 67q132 154 169 234h276q36 -76 169 -234q32 -38 56 -67v-27h-141q-189 153 -223 184q-49 -45 -221 -184h-142z" />
    <glyph glyph-name="Atilde" unicode="&#xc3;" horiz-adv-x="1542" 
d="M795 942q-61 193 -86 307q-17 -60 -39 -121l-34 -101q-14 -39 -26 -75l-121 -346h414zM390 129q28 -20 65 -20h86v-109h-533v109h25q58 0 94 30t70 119l444 1204h281l428 -1206q29 -84 66 -116q37 -31 89 -31h37v-109h-676v109h80q57 0 80 43q8 15 8 44t-18 80l-72 205
h-498l-59 -176q-25 -78 -25 -117t28 -59zM603 1708q-91 0 -106 -108h-133q6 125 78 214t166 89q94 -1 196 -65q38 -24 72 -44t61 -20q90 0 105 108h133q-6 -126 -77 -215q-71 -88 -166 -88q-94 1 -196 65q-38 24 -72 44t-61 20z" />
    <glyph glyph-name="Adieresis" unicode="&#xc4;" horiz-adv-x="1542" 
d="M795 942q-61 193 -86 307q-17 -60 -39 -121l-34 -101q-14 -39 -26 -75l-121 -346h414zM390 129q28 -20 65 -20h86v-109h-533v109h25q58 0 94 30t70 119l444 1204h281l428 -1206q29 -84 66 -116q37 -31 89 -31h37v-109h-676v109h80q57 0 80 43q8 15 8 44t-18 80l-72 205
h-498l-59 -176q-25 -78 -25 -117t28 -59zM992 1620q-136 0 -136 128q0 66 34 96t73 30q67 0 102 -31t35 -80q0 -80 -35 -112q-35 -31 -73 -31zM436 1748q0 34 10 58t26 40t39 22q22 6 46 6q53 0 88 -31t35 -80q0 -51 -10 -75t-28 -39q-17 -15 -39 -22t-46 -7t-46 7
q-23 7 -39 22t-26 39q-10 26 -10 60z" />
    <glyph glyph-name="Aring" unicode="&#xc5;" horiz-adv-x="1542" 
d="M795 942q-61 193 -86 307q-17 -60 -39 -121l-34 -101q-14 -39 -26 -75l-121 -346h414zM1542 109v-109h-676v109h80q57 0 80 43q8 15 8 44t-18 80l-72 205h-498l-59 -176q-25 -78 -25 -108q0 -48 28 -68t65 -20h86v-109h-533v109h25q58 0 94 30t70 119l420 1139
q-85 60 -85 171t70 170q70 58 176 58t176 -58t70 -168q0 -109 -80 -170l406 -1144q29 -84 66 -116q37 -31 89 -31h37zM899 1573q1 30 -9 51t-26 34t-39 19q-22 6 -47 6t-47 -6q-23 -6 -39 -19t-26 -34t-9 -51q-1 -30 9 -51q10 -20 26 -34t39 -20q22 -6 47 -6t47 6
q23 6 39 20t26 34q10 21 9 51z" />
    <glyph glyph-name="AE" unicode="&#xc6;" horiz-adv-x="2034" 
d="M944 592v745h-20l-385 -745h405zM354 188q0 -79 123 -79h35v-109h-512v109h25q53 0 95 38.5t87 120.5l575 1075l-135 11v108h1243l8 -377h-143l-10 97q-8 75 -38 115t-93 40h-344v-512h485v-123h-485v-577h409q108 0 131 156l17 96h141l-14 -377h-1200v109h86
q104 0 104 122v238h-471l-86 -172q-33 -62 -33 -109z" />
    <glyph glyph-name="Ccedilla" unicode="&#xc7;" horiz-adv-x="1368" 
d="M630 -360q128 0 128 82q0 67 -40 89t-114 27l38 158q-220 42 -353 191q-176 198 -176 543t183 549t523 204q226 -1 346 -67q121 -66 121 -171q0 -79 -67 -128q-67 -50 -189 -50q0 189 -118 259q-44 26 -124 26t-147 -41t-107 -120t-59 -195q-18 -116 -18 -263
q0 -304 95 -447t322 -143q226 0 375 195q35 -26 35 -79q0 -113 -100 -187q-124 -92 -363 -92q-34 0 -66 2l-12 -52q155 -12 203 -114q16 -34 16 -81q0 -100 -79 -164q-79 -63 -191 -63t-199 23v125q76 -16 137 -16z" />
    <glyph glyph-name="Egrave" unicode="&#xc8;" horiz-adv-x="1337" 
d="M573 125h410q108 0 131 156l16 96h142l-15 -377h-1200v109h86q51 1 70 17q35 30 35 105v990q0 115 -63 129q-19 4 -42 4h-86v108h1137l8 -377h-143l-10 97q-8 75 -38 115t-93 40h-345v-512h486v-123h-486v-577zM828 1579h-139q-158 91 -318 239q-44 40 -63 68v21h321
q48 -102 199 -301v-27z" />
    <glyph glyph-name="Eacute" unicode="&#xc9;" horiz-adv-x="1337" 
d="M573 125h410q108 0 131 156l16 96h142l-15 -377h-1200v109h86q51 1 70 17q35 30 35 105v990q0 115 -63 129q-19 4 -42 4h-86v108h1137l8 -377h-143l-10 97q-8 75 -38 115t-93 40h-345v-512h486v-123h-486v-577zM1043 1907v-21q-61 -86 -275 -238q-58 -42 -106 -69h-139
v27q148 196 198 301h322z" />
    <glyph glyph-name="Ecircumflex" unicode="&#xca;" horiz-adv-x="1337" 
d="M573 125h410q108 0 131 156l16 96h142l-15 -377h-1200v109h86q51 1 70 17q35 30 35 105v990q0 115 -63 129q-19 4 -42 4h-86v108h1137l8 -377h-143l-10 97q-8 75 -38 115t-93 40h-345v-512h486v-123h-486v-577zM288 1579v27q24 29 56 67q132 154 170 234h276
q36 -76 169 -234q32 -38 56 -67v-27h-141q-189 153 -223 184q-49 -45 -221 -184h-142z" />
    <glyph glyph-name="Edieresis" unicode="&#xcb;" horiz-adv-x="1337" 
d="M573 125h410q108 0 131 156l16 96h142l-15 -377h-1200v109h86q51 1 70 17q35 30 35 105v990q0 115 -63 129q-19 4 -42 4h-86v108h1137l8 -377h-143l-10 97q-8 75 -38 115t-93 40h-345v-512h486v-123h-486v-577zM912 1620q-136 0 -136 128q0 66 34 96t73 30q67 0 102 -31
t35 -80q0 -80 -35 -112q-35 -31 -73 -31zM356 1748q0 34 10 58t26 40t39 22q22 6 46 6q53 0 88 -31t35 -80q0 -51 -10 -75t-28 -39q-17 -15 -39 -22t-46 -7t-46 7q-23 7 -39 22t-26 39q-10 26 -10 60z" />
    <glyph glyph-name="Igrave" unicode="&#xcc;" horiz-adv-x="821" 
d="M57 0v109h86q53 1 71 19q34 34 34 114v978q0 114 -63 128q-19 4 -42 5h-86v109h707v-109h-86q-52 -1 -70 -19q-34 -34 -35 -114v-978q-1 -114 63 -128q20 -4 42 -5h86v-109h-707zM568 1579h-139q-158 91 -318 239q-44 40 -63 68v21h321q48 -102 199 -301v-27z" />
    <glyph glyph-name="Iacute" unicode="&#xcd;" horiz-adv-x="821" 
d="M57 0v109h86q53 1 71 19q34 34 34 114v978q0 114 -63 128q-19 4 -42 5h-86v109h707v-109h-86q-52 -1 -70 -19q-34 -34 -35 -114v-978q-1 -114 63 -128q20 -4 42 -5h86v-109h-707zM773 1907v-21q-61 -86 -275 -238q-58 -42 -106 -69h-139v27q148 196 198 301h322z" />
    <glyph glyph-name="Icircumflex" unicode="&#xce;" horiz-adv-x="821" 
d="M57 0v109h86q53 1 71 19q34 34 34 114v978q0 114 -63 128q-19 4 -42 5h-86v109h707v-109h-86q-52 -1 -70 -19q-34 -34 -35 -114v-978q-1 -114 63 -128q20 -4 42 -5h86v-109h-707zM48 1579v27q24 29 56 67q132 154 170 234h276q36 -76 169 -234q32 -38 56 -67v-27h-141
q-189 153 -223 184q-49 -45 -221 -184h-142z" />
    <glyph glyph-name="Idieresis" unicode="&#xcf;" horiz-adv-x="821" 
d="M57 0v109h86q53 1 71 19q34 34 34 114v978q0 114 -63 128q-19 4 -42 5h-86v109h707v-109h-86q-52 -1 -70 -19q-34 -34 -35 -114v-978q-1 -114 63 -128q20 -4 42 -5h86v-109h-707zM635 1620q-136 0 -136 128q0 66 34 96t73 30q67 0 102 -31t35 -80q0 -80 -35 -112
q-35 -31 -73 -31zM79 1748q0 34 10 58q11 24 27 40t38 22t46 6q53 0 88 -31t35 -80q-1 -51 -11 -75t-27 -39t-39 -22t-46 -7t-46 7t-38 22t-27 39q-10 26 -10 60z" />
    <glyph glyph-name="Eth" unicode="&#xd0;" horiz-adv-x="1571" 
d="M1112 758q0 579 -424 579h-117v-510h256v-125h-256v-575h115q208 0 317 167t109 464zM1269.5 206q-188.5 -206 -536.5 -206h-676v109h86q52 0 78.5 26.5t26.5 106.5v460h-170v125h170v402q0 105 -41.5 115t-63.5 10h-86v108h676q345 0 535 -180t190 -525t-188.5 -551z
" />
    <glyph glyph-name="Ntilde" unicode="&#xd1;" horiz-adv-x="1614" 
d="M401 242q1 -114 65 -128q20 -4 40 -5h86v-109h-535v109h86q51 1 70 19q35 34 35 114v987q0 105 -65 121q-19 4 -40 4h-86v108h455l723 -1022v789q0 105 -65 121q-19 4 -40 4h-86v108h535v-108h-86q-50 0 -69 -18q-35 -34 -35 -115v-1221h-189l-799 1128v-886zM659 1708
q-91 0 -106 -108h-133q6 125 78 214t166 89q94 -1 196 -65q38 -24 72 -44t61 -20q90 0 105 108h133q-6 -126 -77 -215q-71 -88 -166 -88q-94 1 -196 65q-38 24 -72 44t-61 20z" />
    <glyph glyph-name="Ograve" unicode="&#xd2;" horiz-adv-x="1612" 
d="M457 733q0 -305 83 -463q83 -157 267 -157q271 0 329 358q18 115 19 262q0 305 -81 462t-265 157q-274 0 -333 -357q-19 -115 -19 -262zM1317 184q-182 -204 -517 -204t-511 202t-176 553q0 350 177 550t511 200q335 0 517 -203q181 -203 181 -549q0 -345 -182 -549z
M952 1579h-139q-158 91 -318 239q-44 40 -63 68v21h321q48 -102 199 -301v-27z" />
    <glyph glyph-name="Oacute" unicode="&#xd3;" horiz-adv-x="1612" 
d="M457 733q0 -305 83 -463q83 -157 267 -157q271 0 329 358q18 115 19 262q0 305 -81 462t-265 157q-274 0 -333 -357q-19 -115 -19 -262zM1317 184q-182 -204 -517 -204t-511 202t-176 553q0 350 177 550t511 200q335 0 517 -203q181 -203 181 -549q0 -345 -182 -549z
M1186 1907v-21q-60 -86 -274 -238q-58 -42 -107 -69h-139v27q148 196 198 301h322z" />
    <glyph glyph-name="Ocircumflex" unicode="&#xd4;" horiz-adv-x="1612" 
d="M457 733q0 -305 83 -463q83 -157 267 -157q271 0 329 358q18 115 19 262q0 305 -81 462t-265 157q-274 0 -333 -357q-19 -115 -19 -262zM1317 184q-182 -204 -517 -204t-511 202t-176 553q0 350 177 550t511 200q335 0 517 -203q181 -203 181 -549q0 -345 -182 -549z
M440 1579v27q24 29 56 67q132 154 170 234h276q36 -76 169 -234q32 -38 56 -67v-27h-141q-189 153 -223 184q-49 -45 -221 -184h-142z" />
    <glyph glyph-name="Otilde" unicode="&#xd5;" horiz-adv-x="1612" 
d="M457 733q0 -305 83 -463q83 -157 267 -157q271 0 329 358q18 115 19 262q0 305 -81 462t-265 157q-274 0 -333 -357q-19 -115 -19 -262zM1317 184q-182 -204 -517 -204t-511 202t-176 553q0 350 177 550t511 200q335 0 517 -203q181 -203 181 -549q0 -345 -182 -549z
M636 1708q-91 0 -106 -108h-133q6 125 78 214t166 89q95 -1 197 -65q38 -24 72 -44t60 -20q90 0 105 108h133q-6 -126 -77 -215q-71 -88 -166 -88q-93 1 -195 65q-38 24 -72 44t-62 20z" />
    <glyph glyph-name="Odieresis" unicode="&#xd6;" horiz-adv-x="1612" 
d="M457 733q0 -305 83 -463q83 -157 267 -157q271 0 329 358q18 115 19 262q0 305 -81 462t-265 157q-274 0 -333 -357q-19 -115 -19 -262zM1317 184q-182 -204 -517 -204t-511 202t-176 553q0 350 177 550t511 200q335 0 517 -203q181 -203 181 -549q0 -345 -182 -549z
M1019 1620q-136 0 -136 128q0 66 34 96t73 30q67 0 102 -31t35 -80q0 -80 -35 -112q-35 -31 -73 -31zM463 1748q0 34 10 58q11 24 27 40t38 22t46 6q53 0 88 -31t35 -80q-1 -51 -11 -75t-27 -39t-39 -22t-46 -7t-46 7t-38 22t-27 39q-10 26 -10 60z" />
    <glyph glyph-name="multiply" unicode="&#xd7;" 
d="M571 631l-301 -303l-104 104l301 303l-301 301l104 103l301 -301l301 303l105 -105l-303 -303l303 -303l-103 -102z" />
    <glyph glyph-name="Oslash" unicode="&#xd8;" horiz-adv-x="1612" 
d="M807 113q272 0 310 236.5t38 373.5q0 265 -57 418l-506 -944q80 -84 215 -84zM809 1352q-274 0 -313 -236t-39 -374q0 -272 59 -418l506 942q-78 86 -213 86zM1499 733q0 -345 -182.5 -549t-509.5 -204q-173 0 -303 53l-62 -115h-145l94 174q-278 191 -278 643
q0 350 176.5 550t519.5 200q164 0 301 -58l64 119h143l-96 -178q278 -196 278 -635z" />
    <glyph glyph-name="Ugrave" unicode="&#xd9;" horiz-adv-x="1530" 
d="M1497 1354h-88q-50 0 -69 -18q-35 -34 -35 -115v-799q0 -324 -281 -412q-97 -30 -231 -30q-279 0 -423 111q-145 111 -145 355v783q-1 105 -65 121q-18 4 -39 4h-88v108h706v-108h-86q-50 0 -69 -18q-35 -34 -35 -115v-791q0 -240 179 -290q56 -16 125 -15q143 0 220 75
q78 75 78 226v803q0 105 -64 121q-19 4 -40 4h-86v108h536v-108zM952 1579h-139q-158 91 -318 239q-44 40 -63 68v21h321q48 -102 199 -301v-27z" />
    <glyph glyph-name="Uacute" unicode="&#xda;" horiz-adv-x="1530" 
d="M1497 1354h-88q-50 0 -69 -18q-35 -34 -35 -115v-799q0 -324 -281 -412q-97 -30 -231 -30q-279 0 -423 111q-145 111 -145 355v783q-1 105 -65 121q-18 4 -39 4h-88v108h706v-108h-86q-50 0 -69 -18q-35 -34 -35 -115v-791q0 -240 179 -290q56 -16 125 -15q143 0 220 75
q78 75 78 226v803q0 105 -64 121q-19 4 -40 4h-86v108h536v-108zM1163 1907v-21q-61 -86 -275 -238q-58 -42 -106 -69h-139v27q148 196 198 301h322z" />
    <glyph glyph-name="Ucircumflex" unicode="&#xdb;" horiz-adv-x="1530" 
d="M1497 1354h-88q-50 0 -69 -18q-35 -34 -35 -115v-799q0 -324 -281 -412q-97 -30 -231 -30q-279 0 -423 111q-145 111 -145 355v783q-1 105 -65 121q-18 4 -39 4h-88v108h706v-108h-86q-50 0 -69 -18q-35 -34 -35 -115v-791q0 -240 179 -290q56 -16 125 -15q143 0 220 75
q78 75 78 226v803q0 105 -64 121q-19 4 -40 4h-86v108h536v-108zM454 1579v27q24 29 56 67q132 154 170 234h276q36 -76 169 -234q32 -38 56 -67v-27h-141q-189 153 -223 184q-49 -45 -221 -184h-142z" />
    <glyph glyph-name="Udieresis" unicode="&#xdc;" horiz-adv-x="1530" 
d="M1497 1354h-88q-50 0 -69 -18q-35 -34 -35 -115v-799q0 -324 -281 -412q-97 -30 -231 -30q-279 0 -423 111q-145 111 -145 355v783q-1 105 -65 121q-18 4 -39 4h-88v108h706v-108h-86q-50 0 -69 -18q-35 -34 -35 -115v-791q0 -240 179 -290q56 -16 125 -15q143 0 220 75
q78 75 78 226v803q0 105 -64 121q-19 4 -40 4h-86v108h536v-108zM1050 1620q-136 0 -136 128q0 66 34 96t73 30q67 0 102 -31t35 -80q0 -80 -35 -112q-35 -31 -73 -31zM494 1748q0 34 10 58t26 40t39 22q22 6 46 6q53 0 88 -31t35 -80q0 -51 -10 -75t-28 -39
q-17 -15 -39 -22t-46 -7t-46 7q-23 7 -39 22t-26 39q-10 26 -10 60z" />
    <glyph glyph-name="Yacute" unicode="&#xdd;" horiz-adv-x="1419" 
d="M1065 1253q0 101 -135 101h-47v108h536v-108h-39q-50 0 -77 -30t-78 -130l-348 -678v-280q-1 -114 69 -124q20 -3 45 -3h101v-109h-756v109h96q60 -1 80 15q39 30 39 109v285l-379 727q-32 64 -61 87q-29 22 -84 22h-27v108h686v-108h-35q-63 0 -93 -25t-30 -69t31 -111
l152 -301q52 -105 90 -213q49 127 110 250l119 245q35 72 35 123zM1122 1907v-21q-60 -86 -274 -238q-58 -42 -107 -69h-139v27q148 196 198 301h322z" />
    <glyph glyph-name="Thorn" unicode="&#xde;" horiz-adv-x="1307" 
d="M1245 764q0 -209 -146.5 -341t-457.5 -132h-70v-60q5 -105 46.5 -113.5t62.5 -8.5h84v-109h-707v109h86q52 0 78.5 26.5t26.5 106.5v979q0 114 -41 123.5t-64 9.5h-86v108h707v-108h-84q-52 0 -80.5 -25t-28.5 -98v-37h115q419 -6 489 -170t70 -260zM571 410h50
q151 0 215.5 79t64.5 263q0 247 -90.5 284t-159.5 37h-80v-663z" />
    <glyph glyph-name="germandbls" unicode="&#xdf;" horiz-adv-x="1446" 
d="M635 303h110q23 -136 94 -169.5t127 -33.5t96 36t40 87q0 89 -45 142.5t-141 98.5q-163 75 -221 165.5t-58 182.5q0 93 47.5 193t284.5 113q-3 268 -88 306t-137 38q-109 0 -169.5 -71.5t-60.5 -216.5v-1174h-502v109h88q51 0 78 26t27 107v714h-164v142h164v20
q0 242 143.5 350.5t388.5 108.5q406 0 464 -216t59 -355h-115q-240 0 -240 -138q0 -68 47.5 -109.5t145.5 -87.5q99 -46 182.5 -117t83.5 -222q0 -352 -404 -352q-195 0 -325 75v248z" />
    <glyph glyph-name="agrave" unicode="&#xe0;" horiz-adv-x="1227" 
d="M455 778q-277 0 -277 128q0 116 117 167t265 51t228 -18t134 -60q108 -82 108 -270v-522q0 -83 26 -114t97 -31h8v-109h-381l-43 141h-18q-76 -91 -135 -126t-149 -35q-164 0 -254 85q-89 85 -89 250t114 245t345 87l168 6v113q0 118 -17 158q-16 41 -42 58t-68 17
q-137 0 -137 -221zM410 305q0 -176 116 -176q87 1 140 71t53 191v154l-92 -6q-173 -8 -206 -136q-11 -42 -11 -98zM757 1241h-139q-158 91 -318 239q-44 40 -63 68v21h321q48 -102 199 -301v-27z" />
    <glyph glyph-name="aacute" unicode="&#xe1;" horiz-adv-x="1227" 
d="M455 778q-277 0 -277 128q0 116 117 167t265 51t228 -18t134 -60q108 -82 108 -270v-522q0 -83 26 -114t97 -31h8v-109h-381l-43 141h-18q-76 -91 -135 -126t-149 -35q-164 0 -254 85q-89 85 -89 250t114 245t345 87l168 6v113q0 118 -17 158q-16 41 -42 58t-68 17
q-137 0 -137 -221zM410 305q0 -176 116 -176q87 1 140 71t53 191v154l-92 -6q-173 -8 -206 -136q-11 -42 -11 -98zM987 1569v-21q-61 -86 -275 -238q-58 -42 -106 -69h-139v27q148 196 198 301h322z" />
    <glyph glyph-name="acircumflex" unicode="&#xe2;" horiz-adv-x="1227" 
d="M455 778q-277 0 -277 128q0 116 117 167t265 51t228 -18t134 -60q108 -82 108 -270v-522q0 -83 26 -114t97 -31h8v-109h-381l-43 141h-18q-76 -91 -135 -126t-149 -35q-164 0 -254 85q-89 85 -89 250t114 245t345 87l168 6v113q0 118 -17 158q-16 41 -42 58t-68 17
q-137 0 -137 -221zM410 305q0 -176 116 -176q87 1 140 71t53 191v154l-92 -6q-173 -8 -206 -136q-11 -42 -11 -98zM256 1241v27q24 29 56 67q132 154 170 234h276q36 -76 169 -234q32 -38 56 -67v-27h-141q-189 153 -223 184q-49 -45 -221 -184h-142z" />
    <glyph glyph-name="atilde" unicode="&#xe3;" horiz-adv-x="1227" 
d="M455 778q-277 0 -277 128q0 116 117 167t265 51t228 -18t134 -60q108 -82 108 -270v-522q0 -83 26 -114t97 -31h8v-109h-381l-43 141h-18q-76 -91 -135 -126t-149 -35q-164 0 -254 85q-89 85 -89 250t114 245t345 87l168 6v113q0 118 -17 158q-16 41 -42 58t-68 17
q-137 0 -137 -221zM410 305q0 -176 116 -176q87 1 140 71t53 191v154l-92 -6q-173 -8 -206 -136q-11 -42 -11 -98zM450 1370q-91 0 -106 -108h-133q6 125 78 214t166 89q95 -1 197 -65q38 -24 72 -44t60 -20q90 0 105 108h133q-6 -126 -77 -215q-71 -88 -166 -88
q-93 1 -195 65q-38 24 -72 44t-62 20z" />
    <glyph glyph-name="adieresis" unicode="&#xe4;" horiz-adv-x="1227" 
d="M455 778q-277 0 -277 128q0 116 117 167t265 51t228 -18t134 -60q108 -82 108 -270v-522q0 -83 26 -114t97 -31h8v-109h-381l-43 141h-18q-76 -91 -135 -126t-149 -35q-164 0 -254 85q-89 85 -89 250t114 245t345 87l168 6v113q0 118 -17 158q-16 41 -42 58t-68 17
q-137 0 -137 -221zM410 305q0 -176 116 -176q87 1 140 71t53 191v154l-92 -6q-173 -8 -206 -136q-11 -42 -11 -98zM834 1282q-136 0 -136 128q0 66 34 96t73 30q67 0 102 -31t35 -80q0 -80 -35 -112q-35 -31 -73 -31zM278 1410q0 34 10 58t26 40t39 22q22 6 46 6
q53 0 88 -31t35 -80q0 -51 -10 -75t-28 -39q-17 -15 -39 -22t-46 -7t-46 7q-23 7 -39 22t-26 39q-10 26 -10 60z" />
    <glyph glyph-name="aring" unicode="&#xe5;" horiz-adv-x="1227" 
d="M455 778q-277 0 -277 128q0 116 117 167t265 51t228 -18t134 -60q108 -82 108 -270v-522q0 -83 26 -114t97 -31h8v-109h-381l-43 141h-18q-76 -91 -135 -126t-149 -35q-164 0 -254 85q-89 85 -89 250t114 245t345 87l168 6v113q0 118 -17 158q-16 41 -42 58t-68 17
q-137 0 -137 -221zM410 305q0 -176 116 -176q87 1 140 71t53 191v154l-92 -6q-173 -8 -206 -136q-11 -42 -11 -98zM740 1444q0 30 -10 51t-26 34t-38 19t-47 6t-47 -6t-38 -19t-26 -34t-10 -51t10 -51t26 -35t38 -19q22 -6 47 -6t47 6q22 5 38 19t26 35t10 51zM619 1221
q-106 0 -176 58t-70 165q0 106 70 165q70 58 176 58t176 -58t70 -165q0 -106 -70 -165q-70 -58 -176 -58z" />
    <glyph glyph-name="ae" unicode="&#xe6;" horiz-adv-x="1792" 
d="M455 778q-277 0 -277 128q0 218 441 218q206 0 307 -116q122 116 301 116q226 0 352.5 -126.5t126.5 -366.5v-105h-672q11 -393 275 -393q203 0 288 166q56 -30 56 -100q0 -94 -102 -156.5t-298 -62.5q-301 0 -436 196q-131 -196 -403 -196q-223 0 -272.5 124t-49.5 209
q0 167 114.5 247t344.5 87l168 6v113q0 118 -17 158.5t-42.5 57.5t-67.5 17q-137 0 -137 -221zM1393 657q0 334 -162 334q-85 0 -136.5 -85t-56.5 -249h355zM410 305q0 -176 116 -176q87 0 140 70.5t53 191.5v154l-92 -6q-173 -8 -195 -93t-22 -141z" />
    <glyph glyph-name="ccedilla" unicode="&#xe7;" horiz-adv-x="1079" 
d="M96 545q0 579 502 579q292 0 380 -130q26 -40 26 -79q0 -180 -265 -180q0 264 -133 264q-144 0 -180 -234q-14 -87 -14 -218q0 -208 57 -311t200 -103q143 1 237 101q28 30 46 65q49 -29 49 -81q0 -158 -218 -218q-65 -18 -151 -20l-12 -50q156 -12 204 -114
q16 -34 15 -81q0 -100 -79 -164q-79 -63 -191 -63t-199 23v125q76 -16 137 -16q128 0 128 82q0 67 -40 89t-114 27l35 147q-63 7 -137 30q-75 23 -142 90q-141 141 -141 440z" />
    <glyph glyph-name="egrave" unicode="&#xe8;" horiz-adv-x="1169" 
d="M1030 199q0 -94 -104 -157q-104 -62 -266 -62t-262 38q-302 115 -302 536q0 422 292 534q94 36 211 36q231 0 357 -126t127 -367v-105h-671q11 -393 274 -393q154 1 244 101q28 30 45 65q55 -30 55 -100zM770 657q0 334 -162 334q-86 0 -136 -85t-56 -249h354zM781 1241
h-139q-158 91 -318 239q-44 40 -63 68v21h321q48 -102 199 -301v-27z" />
    <glyph glyph-name="eacute" unicode="&#xe9;" horiz-adv-x="1169" 
d="M1030 199q0 -94 -104 -157q-104 -62 -266 -62t-262 38q-302 115 -302 536q0 422 292 534q94 36 211 36q231 0 357 -126t127 -367v-105h-671q11 -393 274 -393q154 1 244 101q28 30 45 65q55 -30 55 -100zM770 657q0 334 -162 334q-86 0 -136 -85t-56 -249h354zM993 1569
v-21q-61 -86 -275 -238q-58 -42 -106 -69h-139v27q148 196 198 301h322z" />
    <glyph glyph-name="ecircumflex" unicode="&#xea;" horiz-adv-x="1169" 
d="M1030 199q0 -94 -104 -157q-104 -62 -266 -62t-262 38q-302 115 -302 536q0 422 292 534q94 36 211 36q231 0 357 -126t127 -367v-105h-671q11 -393 274 -393q154 1 244 101q28 30 45 65q55 -30 55 -100zM770 657q0 334 -162 334q-86 0 -136 -85t-56 -249h354zM254 1241
v27q24 29 56 67q132 154 170 234h276q36 -76 169 -234q32 -38 56 -67v-27h-141q-189 153 -223 184q-49 -45 -221 -184h-142z" />
    <glyph glyph-name="edieresis" unicode="&#xeb;" horiz-adv-x="1169" 
d="M1030 199q0 -94 -104 -157q-104 -62 -266 -62t-262 38q-302 115 -302 536q0 422 292 534q94 36 211 36q231 0 357 -126t127 -367v-105h-671q11 -393 274 -393q154 1 244 101q28 30 45 65q55 -30 55 -100zM770 657q0 334 -162 334q-86 0 -136 -85t-56 -249h354zM837 1282
q-136 0 -136 128q0 66 34 96t73 30q67 0 102 -31t35 -80q0 -80 -35 -112q-35 -31 -73 -31zM281 1410q0 34 10 58q11 24 27 40t38 22t46 6q53 0 88 -31t35 -80q-1 -51 -11 -75t-27 -39t-39 -22t-46 -7t-46 7t-38 22t-27 39q-10 26 -10 60z" />
    <glyph glyph-name="igrave" unicode="&#xec;" horiz-adv-x="721" 
d="M516 242q0 -133 146 -133h24v-109h-651v109h24q146 0 146 133v622q0 125 -146 125h-24v109h481v-856zM509 1241h-139q-158 91 -318 239q-44 40 -63 68v21h321q48 -102 199 -301v-27z" />
    <glyph glyph-name="iacute" unicode="&#xed;" horiz-adv-x="721" 
d="M516 242q0 -133 146 -133h24v-109h-651v109h24q146 0 146 133v622q0 125 -146 125h-24v109h481v-856zM787 1569v-21q-61 -86 -275 -238q-58 -42 -106 -69h-139v27q148 196 198 301h322z" />
    <glyph glyph-name="icircumflex" unicode="&#xee;" horiz-adv-x="721" 
d="M516 242q0 -133 146 -133h24v-109h-651v109h24q146 0 146 133v622q0 125 -146 125h-24v109h481v-856zM-30 1241v27q24 29 56 67q132 154 170 234h276q36 -76 169 -234q32 -38 56 -67v-27h-141q-189 153 -223 184q-49 -45 -221 -184h-142z" />
    <glyph glyph-name="idieresis" unicode="&#xef;" horiz-adv-x="721" 
d="M516 242q0 -133 146 -133h24v-109h-651v109h24q146 0 146 133v622q0 125 -146 125h-24v109h481v-856zM555 1282q-136 0 -136 128q0 66 34 96t73 30q67 0 102 -31t35 -80q0 -80 -35 -112q-35 -31 -73 -31zM-1 1410q0 34 10 58q11 24 27 40t38 22t46 6q53 0 88 -31t35 -80
q-1 -51 -11 -75t-27 -39t-39 -22t-46 -7t-46 7t-38 22t-27 39q-10 26 -10 60z" />
    <glyph glyph-name="eth" unicode="&#xf0;" horiz-adv-x="1253" 
d="M464 210q50 -101 165 -101q167 0 190 155t23 258q0 212 -49.5 311t-165.5 99t-164.5 -98t-48.5 -311q0 -212 50 -313zM1157 596q0 -616 -534 -616q-382 0 -454.5 203t-72.5 339q0 270 127 405.5t367 135.5q132 0 223 -55q-54 161 -174 260l-289 -148v133l182 95
q-89 56 -241 82v129q132 -10 247 -57.5t154 -71.5l258 131v-136l-143 -73q249 -195 299.5 -414t50.5 -342z" />
    <glyph glyph-name="ntilde" unicode="&#xf1;" horiz-adv-x="1366" 
d="M831 1124q338 0 338 -395v-475q0 -90 31 -118t107 -27h6v-109h-455v674q0 206 -88 258q-32 18 -79 18q-91 0 -133 -89t-42 -228v-391q0 -114 86 -128q28 -4 62 -5h6v-109h-629v109h4q80 -1 108 19q52 36 52 122v606q0 114 -87 128q-27 4 -61 5h-6v109h430l27 -146h10
q82 151 222 167q44 5 91 5zM503 1370q-91 0 -106 -108h-133q6 125 78 214t166 89q94 -1 196 -65q38 -24 72 -44t61 -20q90 0 105 108h133q-6 -126 -77 -215q-71 -88 -166 -88q-94 1 -196 65q-38 24 -72 44t-61 20z" />
    <glyph glyph-name="ograve" unicode="&#xf2;" horiz-adv-x="1255" 
d="M414 554q0 -110 12 -193t36 -139q26 -56 67 -84t100 -29q114 0 164 109q49 109 49 335q0 335 -115 413q-41 28 -100 27q-59 1 -100 -27t-66 -83t-36 -137t-11 -192zM96 553q0 571 535 571q383 0 491 -320q36 -108 37 -251q0 -573 -534 -573q-385 0 -493 321
q-36 108 -36 252zM757 1241h-139q-158 91 -318 239q-44 40 -63 68v21h321q48 -102 199 -301v-27z" />
    <glyph glyph-name="oacute" unicode="&#xf3;" horiz-adv-x="1255" 
d="M414 554q0 -110 12 -193t36 -139q26 -56 67 -84t100 -29q114 0 164 109q49 109 49 335q0 335 -115 413q-41 28 -100 27q-59 1 -100 -27t-66 -83t-36 -137t-11 -192zM96 553q0 571 535 571q383 0 491 -320q36 -108 37 -251q0 -573 -534 -573q-385 0 -493 321
q-36 108 -36 252zM1024 1569v-21q-60 -86 -274 -238q-58 -42 -107 -69h-139v27q148 196 198 301h322z" />
    <glyph glyph-name="ocircumflex" unicode="&#xf4;" horiz-adv-x="1255" 
d="M414 554q0 -110 12 -193t36 -139q26 -56 67 -84t100 -29q114 0 164 109q49 109 49 335q0 335 -115 413q-41 28 -100 27q-59 1 -100 -27t-66 -83t-36 -137t-11 -192zM96 553q0 571 535 571q383 0 491 -320q36 -108 37 -251q0 -573 -534 -573q-385 0 -493 321
q-36 108 -36 252zM262 1241v27q24 29 56 67q132 154 170 234h276q36 -76 169 -234q32 -38 56 -67v-27h-141q-189 153 -223 184q-49 -45 -221 -184h-142z" />
    <glyph glyph-name="otilde" unicode="&#xf5;" horiz-adv-x="1255" 
d="M414 554q0 -110 12 -193t36 -139q26 -56 67 -84t100 -29q114 0 164 109q49 109 49 335q0 335 -115 413q-41 28 -100 27q-59 1 -100 -27t-66 -83t-36 -137t-11 -192zM96 553q0 571 535 571q383 0 491 -320q36 -108 37 -251q0 -573 -534 -573q-385 0 -493 321
q-36 108 -36 252zM456 1370q-91 0 -106 -108h-133q6 125 78 214t166 89q95 -1 197 -65q38 -24 72 -44t60 -20q90 0 105 108h133q-6 -126 -77 -215q-71 -88 -166 -88q-93 1 -195 65q-38 24 -72 44t-62 20z" />
    <glyph glyph-name="odieresis" unicode="&#xf6;" horiz-adv-x="1255" 
d="M414 554q0 -110 12 -193t36 -139q26 -56 67 -84t100 -29q114 0 164 109q49 109 49 335q0 335 -115 413q-41 28 -100 27q-59 1 -100 -27t-66 -83t-36 -137t-11 -192zM96 553q0 571 535 571q383 0 491 -320q36 -108 37 -251q0 -573 -534 -573q-385 0 -493 321
q-36 108 -36 252zM849 1282q-136 0 -136 128q0 66 34 96t73 30q67 0 102 -31t35 -80q0 -80 -35 -112q-35 -31 -73 -31zM293 1410q0 34 10 58q11 24 27 40t38 22t46 6q53 0 88 -31t35 -80q-1 -51 -11 -75t-27 -39t-39 -22t-46 -7t-46 7t-38 22t-27 39q-10 26 -10 60z" />
    <glyph glyph-name="divide" unicode="&#xf7;" 
d="M1012 659h-879v146h879v-146zM688 344q0 -125 -115 -125q-49 0 -81.5 28t-32.5 97q0 125 114.5 125t114.5 -125zM688 1120q0 -125 -115 -125q-49 0 -81.5 28t-32.5 97q0 125 114.5 125t114.5 -125z" />
    <glyph glyph-name="oslash" unicode="&#xf8;" horiz-adv-x="1255" 
d="M842 526q0 142 -13 224l-348 -566q51 -75 148 -75q213 -1 213 417zM436 828q-22 -165 -22 -289t14 -203l352 571q-52 86 -153 86q-169 0 -191 -165zM1159 553q0 -573 -534 -573q-138 0 -242 43l-66 -105h-145l102 168q-178 147 -178 467q0 571 535 571q148 0 254 -49
l65 105h144l-105 -172q170 -149 170 -455z" />
    <glyph glyph-name="ugrave" unicode="&#xf9;" horiz-adv-x="1366" 
d="M664 154q186 0 186 311v393q0 116 -91 128q-27 4 -57 3h-6v109h465v-860q0 -114 82 -126q25 -4 55 -3h17v-109h-408l-45 145h-10q-82 -139 -230 -159q-46 -6 -94 -6q-160 0 -246 99t-85 306v459q0 86 -31 115q-31 30 -109 30h-4v109h455v-656q0 -141 26 -194
q26 -54 55 -74q30 -20 75 -20zM773 1241h-139q-158 91 -318 239q-44 40 -63 68v21h321q48 -102 199 -301v-27z" />
    <glyph glyph-name="uacute" unicode="&#xfa;" horiz-adv-x="1366" 
d="M664 154q186 0 186 311v393q0 116 -91 128q-27 4 -57 3h-6v109h465v-860q0 -114 82 -126q25 -4 55 -3h17v-109h-408l-45 145h-10q-82 -139 -230 -159q-46 -6 -94 -6q-160 0 -246 99t-85 306v459q0 86 -31 115q-31 30 -109 30h-4v109h455v-656q0 -141 26 -194
q26 -54 55 -74q30 -20 75 -20zM1047 1569v-21q-61 -86 -275 -238q-58 -42 -106 -69h-139v27q148 196 198 301h322z" />
    <glyph glyph-name="ucircumflex" unicode="&#xfb;" horiz-adv-x="1366" 
d="M664 154q186 0 186 311v393q0 116 -91 128q-27 4 -57 3h-6v109h465v-860q0 -114 82 -126q25 -4 55 -3h17v-109h-408l-45 145h-10q-82 -139 -230 -159q-46 -6 -94 -6q-160 0 -246 99t-85 306v459q0 86 -31 115q-31 30 -109 30h-4v109h455v-656q0 -141 26 -194
q26 -54 55 -74q30 -20 75 -20zM295 1241v27q25 29 57 67q132 154 169 234h276q36 -76 169 -234q32 -38 56 -67v-27h-141q-189 153 -223 184q-49 -45 -221 -184h-142z" />
    <glyph glyph-name="udieresis" unicode="&#xfc;" horiz-adv-x="1366" 
d="M664 154q186 0 186 311v393q0 116 -91 128q-27 4 -57 3h-6v109h465v-860q0 -114 82 -126q25 -4 55 -3h17v-109h-408l-45 145h-10q-82 -139 -230 -159q-46 -6 -94 -6q-160 0 -246 99t-85 306v459q0 86 -31 115q-31 30 -109 30h-4v109h455v-656q0 -141 26 -194
q26 -54 55 -74q30 -20 75 -20zM888 1282q-136 0 -136 128q0 66 34 96t73 30q67 0 102 -31t35 -80q0 -80 -35 -112q-35 -31 -73 -31zM332 1410q0 34 10 58t26 40t39 22q22 6 46 6q53 0 88 -31t35 -80q0 -51 -10 -75t-28 -39q-17 -15 -39 -22t-46 -7t-46 7q-23 7 -39 22
t-26 39q-10 26 -10 60z" />
    <glyph glyph-name="yacute" unicode="&#xfd;" horiz-adv-x="1186" 
d="M1186 1098v-109q-63 0 -98 -32t-68 -126q-34 -93 -73 -199t-79 -212t-78 -212q-40 -106 -76 -206t-69 -176q-31 -75 -67 -130q-69 -107 -177 -148q-107 -40 -311 -40h-35v119q287 0 395 215q34 67 58 148l-369 901q-31 75 -96 83q-20 2 -43 3v121h584v-109q-60 1 -94 -15
t-35 -53q0 -37 19 -83q38 -94 69 -177q30 -83 59 -162q64 -175 72 -257q6 60 24 108l21 56l135 401q20 51 20 99t-39 66t-110 17v109h461zM983 1569v-21q-61 -86 -275 -238q-58 -42 -106 -69h-139v27q148 196 198 301h322z" />
    <glyph glyph-name="thorn" unicode="&#xfe;" horiz-adv-x="1321" 
d="M909 540q0 206 -44.5 315.5t-154.5 109.5t-156 -103.5t-46 -319.5q0 -217 46 -316t156 -99t154.5 103.5t44.5 309.5zM508 -250q0 -133 145 -133h45v-109h-671v109h24q146 0 146 133v1555q0 122 -54.5 132.5t-83.5 10.5h-14v108h463v-376q0 -74 -25 -242h9q99 180 313 180
q420 0 420 -572t-412 -571q-211 0 -307 164h-14q16 -188 16 -248v-141z" />
    <glyph glyph-name="ydieresis" unicode="&#xff;" horiz-adv-x="1186" 
d="M1186 1098v-109q-63 0 -98 -32t-68 -126q-34 -93 -73 -199t-79 -212t-78 -212q-40 -106 -76 -206t-69 -176q-31 -75 -67 -130q-69 -107 -177 -148q-107 -40 -311 -40h-35v119q287 0 395 215q34 67 58 148l-369 901q-31 75 -96 83q-20 2 -43 3v121h584v-109q-60 1 -94 -15
t-35 -53q0 -37 19 -83q38 -94 69 -177q30 -83 59 -162q64 -175 72 -257q6 60 24 108l21 56l135 401q20 51 20 99t-39 66t-110 17v109h461zM822 1282q-136 0 -136 128q0 66 34 96t73 30q67 0 102 -31t35 -80q0 -80 -35 -112q-35 -31 -73 -31zM266 1410q0 34 10 58t26 40
t39 22q22 6 46 6q53 0 88 -31t35 -80q0 -51 -10 -75t-28 -39q-17 -15 -39 -22t-46 -7t-46 7q-23 7 -39 22t-26 39q-10 26 -10 60z" />
    <glyph glyph-name="Amacron" unicode="&#x100;" horiz-adv-x="1542" 
d="M795 942q-61 193 -86 307q-17 -60 -39 -121l-34 -101q-14 -39 -26 -75l-121 -346h414zM390 129q28 -20 65 -20h86v-109h-533v109h25q58 0 94 30t70 119l444 1204h281l428 -1206q29 -84 66 -116q37 -31 89 -31h37v-109h-676v109h80q57 0 80 43q8 15 8 44t-18 80l-72 205
h-498l-59 -176q-25 -78 -25 -117t28 -59zM1065 1579h-594v162h594v-162z" />
    <glyph glyph-name="amacron" unicode="&#x101;" horiz-adv-x="1227" 
d="M455 778q-277 0 -277 128q0 116 117 167t265 51t228 -18t134 -60q108 -82 108 -270v-522q0 -83 26 -114t97 -31h8v-109h-381l-43 141h-18q-76 -91 -135 -126t-149 -35q-164 0 -254 85q-89 85 -89 250t114 245t345 87l168 6v113q0 118 -17 158q-16 41 -42 58t-68 17
q-137 0 -137 -221zM410 305q0 -176 116 -176q87 1 140 71t53 191v154l-92 -6q-173 -8 -206 -136q-11 -42 -11 -98zM885 1241h-594v162h594v-162z" />
    <glyph glyph-name="Abreve" unicode="&#x102;" horiz-adv-x="1542" 
d="M795 942q-61 193 -86 307q-17 -60 -39 -121l-34 -101q-14 -39 -26 -75l-121 -346h414zM390 129q28 -20 65 -20h86v-109h-533v109h25q58 0 94 30t70 119l444 1204h281l428 -1206q29 -84 66 -116q37 -31 89 -31h37v-109h-676v109h80q57 0 80 43q8 15 8 44t-18 80l-72 205
h-498l-59 -176q-25 -78 -25 -117t28 -59zM778 1761q161 0 192 140h136q-4 -129 -91 -225q-86 -97 -237 -97t-237 97t-91 225h135q32 -140 193 -140z" />
    <glyph glyph-name="abreve" unicode="&#x103;" horiz-adv-x="1227" 
d="M455 778q-277 0 -277 128q0 116 117 167t265 51t228 -18t134 -60q108 -82 108 -270v-522q0 -83 26 -114t97 -31h8v-109h-381l-43 141h-18q-76 -91 -135 -126t-149 -35q-164 0 -254 85q-89 85 -89 250t114 245t345 87l168 6v113q0 118 -17 158q-16 41 -42 58t-68 17
q-137 0 -137 -221zM410 305q0 -176 116 -176q87 1 140 71t53 191v154l-92 -6q-173 -8 -206 -136q-11 -42 -11 -98zM584 1423q161 0 193 140h136q-4 -129 -91 -225q-86 -97 -237 -97t-237 97t-91 225h135q31 -140 192 -140z" />
    <glyph glyph-name="Aogonek" unicode="&#x104;" horiz-adv-x="1542" 
d="M795 942q-61 193 -86 307q-17 -60 -39 -121l-34 -101q-14 -39 -26 -75l-121 -346h414zM1255 -344q42 0 118 16v-131q-66 -33 -195 -33t-207 54t-78 159t72 181q72 75 170 98h-269v109h80q57 0 80 43q8 15 8 44t-18 80l-72 205h-498l-59 -176q-25 -78 -25 -108
q0 -48 28 -68t65 -20h86v-109h-533v109h25q58 0 94 30t70 119l444 1204h281l428 -1206q29 -84 66 -116q37 -31 89 -31h37v-109h-249q-122 -38 -173 -148q-18 -40 -18 -78t10 -58t30 -34q19 -14 45 -20t68 -6z" />
    <glyph glyph-name="aogonek" unicode="&#x105;" horiz-adv-x="1227" 
d="M455 778q-277 0 -277 128q0 116 117 167t265 51t228 -18t134 -60q108 -82 108 -270v-522q0 -83 26 -114t97 -31h8v-109h-219q-122 -38 -173 -148q-18 -40 -18 -78q1 -38 11 -58t29 -34t45 -20t68 -6t118 16v-131q-66 -33 -195 -33t-207 54t-78 159t72 181q72 75 170 98
h-4l-43 141h-18q-76 -91 -135 -126t-149 -35q-164 0 -254 85q-89 85 -89 250t114 245t345 87l168 6v113q0 118 -17 158q-16 41 -42 58t-68 17q-137 0 -137 -221zM410 305q0 -176 116 -176q87 1 140 71t53 191v154l-92 -6q-173 -8 -206 -136q-11 -42 -11 -98z" />
    <glyph glyph-name="Cacute" unicode="&#x106;" horiz-adv-x="1368" 
d="M1284 259q0 -113 -100 -187q-124 -92 -363 -92q-348 0 -528 202t-180 548q0 345 183 549t523 204q226 -1 346 -67q121 -66 121 -171q0 -79 -67 -128q-67 -50 -189 -50q0 189 -118 259q-44 26 -124 26t-147 -41t-107 -120t-59 -195q-18 -116 -18 -263q0 -304 95 -447
t322 -143q226 0 375 195q35 -27 35 -79zM1190 1907v-21q-60 -86 -274 -238q-58 -42 -107 -69h-139v27q148 196 198 301h322z" />
    <glyph glyph-name="cacute" unicode="&#x107;" horiz-adv-x="1079" 
d="M604 -20q-508 0 -508 572t502 572q292 0 380 -130q26 -40 26 -79q0 -180 -265 -180q0 264 -133 264q-144 0 -180 -234q-14 -87 -14 -218q0 -208 57 -311t200 -103q143 1 237 101q28 30 46 65q49 -29 49 -81q0 -101 -102 -170q-102 -68 -295 -68zM967 1569v-21
q-61 -86 -275 -238q-58 -42 -106 -69h-139v27q148 196 198 301h322z" />
    <glyph glyph-name="Ccircumflex" unicode="&#x108;" horiz-adv-x="1368" 
d="M1284 259q0 -113 -100 -187q-124 -92 -363 -92q-348 0 -528 202t-180 548q0 345 183 549t523 204q226 -1 346 -67q121 -66 121 -171q0 -79 -67 -128q-67 -50 -189 -50q0 189 -118 259q-44 26 -124 26t-147 -41t-107 -120t-59 -195q-18 -116 -18 -263q0 -304 95 -447
t322 -143q226 0 375 195q35 -27 35 -79zM413 1579v27q25 29 57 67q132 154 169 234h276q36 -76 169 -234q32 -38 56 -67v-27h-141q-189 153 -223 184q-49 -45 -221 -184h-142z" />
    <glyph glyph-name="ccircumflex" unicode="&#x109;" horiz-adv-x="1079" 
d="M604 -20q-508 0 -508 572t502 572q292 0 380 -130q26 -40 26 -79q0 -180 -265 -180q0 264 -133 264q-144 0 -180 -234q-14 -87 -14 -218q0 -208 57 -311t200 -103q143 1 237 101q28 30 46 65q49 -29 49 -81q0 -101 -102 -170q-102 -68 -295 -68zM227 1241v27q25 29 57 67
q132 154 169 234h276q36 -76 169 -234q32 -38 56 -67v-27h-141q-189 153 -223 184q-49 -45 -221 -184h-142z" />
    <glyph glyph-name="Cdot" unicode="&#x10a;" horiz-adv-x="1368" 
d="M1284 259q0 -113 -100 -187q-124 -92 -363 -92q-348 0 -528 202t-180 548q0 345 183 549t523 204q226 -1 346 -67q121 -66 121 -171q0 -79 -67 -128q-67 -50 -189 -50q0 189 -118 259q-44 26 -124 26t-147 -41t-107 -120t-59 -195q-18 -116 -18 -263q0 -304 95 -447
t322 -143q226 0 375 195q35 -27 35 -79zM774 1915q197 0 197 -147q0 -108 -109 -139q-32 -9 -68 -9t-68 9t-54 27q-24 18 -38 46t-13 66q0 74 48 111q49 36 105 36z" />
    <glyph glyph-name="cdot" unicode="&#x10b;" horiz-adv-x="1079" 
d="M604 -20q-508 0 -508 572t502 572q292 0 380 -130q26 -40 26 -79q0 -180 -265 -180q0 264 -133 264q-144 0 -180 -234q-14 -87 -14 -218q0 -208 57 -311t200 -103q143 1 237 101q28 30 46 65q49 -29 49 -81q0 -101 -102 -170q-102 -68 -295 -68zM571 1577q197 0 197 -147
q0 -108 -109 -139q-32 -9 -68 -9q-35 0 -67 9t-56 27t-36 46q-14 28 -14 66q0 74 48 111q49 36 105 36z" />
    <glyph glyph-name="Ccaron" unicode="&#x10c;" horiz-adv-x="1368" 
d="M1284 259q0 -113 -100 -187q-124 -92 -363 -92q-348 0 -528 202t-180 548q0 345 183 549t523 204q226 -1 346 -67q121 -66 121 -171q0 -79 -67 -128q-67 -50 -189 -50q0 189 -118 259q-44 26 -124 26t-147 -41t-107 -120t-59 -195q-18 -116 -18 -263q0 -304 95 -447
t322 -143q226 0 375 195q35 -27 35 -79zM1140 1907v-27q-24 -29 -56 -67q-136 -161 -169 -234h-276q-35 77 -169 234q-32 38 -57 67v27h142q162 -131 221 -185q43 39 223 185h141z" />
    <glyph glyph-name="ccaron" unicode="&#x10d;" horiz-adv-x="1079" 
d="M604 -20q-508 0 -508 572t502 572q292 0 380 -130q26 -40 26 -79q0 -180 -265 -180q0 264 -133 264q-144 0 -180 -234q-14 -87 -14 -218q0 -208 57 -311t200 -103q143 1 237 101q28 30 46 65q49 -29 49 -81q0 -101 -102 -170q-102 -68 -295 -68zM956 1569v-27
q-24 -29 -56 -67q-136 -161 -169 -234h-276q-35 77 -169 234q-32 38 -57 67v27h142q162 -131 221 -185q43 39 223 185h141z" />
    <glyph glyph-name="Dcaron" unicode="&#x10e;" horiz-adv-x="1571" 
d="M1112 758q0 579 -424 579h-117v-1210h115q208 0 317 167t109 464zM1270 206q-188 -206 -537 -206h-676v109h86q53 1 71 19q34 34 34 114v987q0 105 -64 121q-19 4 -41 4h-86v108h676q345 0 535 -180t190 -525t-188 -551zM1114 1907v-27q-24 -29 -56 -67
q-136 -161 -169 -234h-276q-35 77 -169 234q-32 38 -57 67v27h142q162 -131 221 -185q43 39 223 185h141z" />
    <glyph glyph-name="dcaron" unicode="&#x10f;" horiz-adv-x="1329" 
d="M410 549q0 -209 44 -313t153 -103q110 0 157 99t47 316t-47 320t-164 103q-190 0 -190 -422zM811 1208v113q0 109 -102 123q-30 4 -64 4h-16v108h493v-1304q0 -121 106 -138q30 -5 64 -5h8v-109h-397l-57 160h-19q-99 -180 -315 -180q-418 0 -418 571t414 571
q209 0 305 -164h14q-16 228 -16 250zM1552 1556v-20q-59 -134 -195 -307h-122v26q57 177 79 301h238z" />
    <glyph glyph-name="Dcroat" unicode="&#x110;" horiz-adv-x="1571" 
d="M1112 758q0 579 -424 579h-117v-510h256v-125h-256v-575h115q208 0 317 167t109 464zM1270 206q-188 -206 -537 -206h-676v109h86q53 1 71 19q34 34 34 114v460h-170v125h170v402q0 105 -64 121q-19 4 -41 4h-86v108h676q345 0 535 -180t190 -525t-188 -551z" />
    <glyph glyph-name="dcroat" unicode="&#x111;" horiz-adv-x="1329" 
d="M607 909q-110 0 -153.5 -101t-43.5 -292t43.5 -287t154.5 -96t157 91t46 293t-47 297t-157 95zM811 1163v21h-317v108h317v29q0 112 -66 119.5t-100 7.5h-16v108h493v-264h178v-108h-178v-932q0 -121 68 -132t102 -11h8v-109h-397l-57 160h-19q-99 -180 -315 -180
q-418 0 -418 540t414 541q207 0 305 -164h14q-16 236 -16 266z" />
    <glyph glyph-name="Emacron" unicode="&#x112;" horiz-adv-x="1337" 
d="M573 125h410q108 0 131 156l16 96h142l-15 -377h-1200v109h86q51 1 70 17q35 30 35 105v990q0 115 -63 129q-19 4 -42 4h-86v108h1137l8 -377h-143l-10 97q-8 75 -38 115t-93 40h-345v-512h486v-123h-486v-577zM971 1579h-594v162h594v-162z" />
    <glyph glyph-name="emacron" unicode="&#x113;" horiz-adv-x="1169" 
d="M1030 199q0 -94 -104 -157q-104 -62 -266 -62t-262 38q-302 115 -302 536q0 422 292 534q94 36 211 36q231 0 357 -126t127 -367v-105h-671q11 -393 274 -393q154 1 244 101q28 30 45 65q55 -30 55 -100zM770 657q0 334 -162 334q-86 0 -136 -85t-56 -249h354zM918 1241
h-594v162h594v-162z" />
    <glyph glyph-name="Ebreve" unicode="&#x114;" horiz-adv-x="1337" 
d="M573 125h410q108 0 131 156l16 96h142l-15 -377h-1200v109h86q51 1 70 17q35 30 35 105v990q0 115 -63 129q-19 4 -42 4h-86v108h1137l8 -377h-143l-10 97q-8 75 -38 115t-93 40h-345v-512h486v-123h-486v-577zM684 1761q161 0 192 140h136q-4 -129 -91 -225
q-86 -97 -237 -97t-237 97t-91 225h135q32 -140 193 -140z" />
    <glyph glyph-name="ebreve" unicode="&#x115;" horiz-adv-x="1169" 
d="M1030 199q0 -94 -104 -157q-104 -62 -266 -62t-262 38q-302 115 -302 536q0 422 292 534q94 36 211 36q231 0 357 -126t127 -367v-105h-671q11 -393 274 -393q154 1 244 101q28 30 45 65q55 -30 55 -100zM770 657q0 334 -162 334q-86 0 -136 -85t-56 -249h354zM604 1423
q161 0 192 140h136q-4 -129 -91 -225q-86 -97 -237 -97t-237 97t-91 225h135q32 -140 193 -140z" />
    <glyph glyph-name="Edotaccent" unicode="&#x116;" horiz-adv-x="1337" 
d="M573 125h410q108 0 131 156l16 96h142l-15 -377h-1200v109h86q51 1 70 17q35 30 35 105v990q0 115 -63 129q-19 4 -42 4h-86v108h1137l8 -377h-143l-10 97q-8 75 -38 115t-93 40h-345v-512h486v-123h-486v-577zM657 1886q197 0 197 -147q0 -108 -109 -139q-32 -9 -68 -9
q-35 0 -67 9t-56 27t-36 46q-14 29 -14 67q0 74 48 110q49 36 105 36z" />
    <glyph glyph-name="edotaccent" unicode="&#x117;" horiz-adv-x="1169" 
d="M1030 199q0 -94 -104 -157q-104 -62 -266 -62t-262 38q-302 115 -302 536q0 422 292 534q94 36 211 36q231 0 357 -126t127 -367v-105h-671q11 -393 274 -393q154 1 244 101q28 30 45 65q55 -30 55 -100zM770 657q0 334 -162 334q-86 0 -136 -85t-56 -249h354zM587 1577
q197 0 197 -147q0 -108 -109 -139q-32 -9 -68 -9q-35 0 -67 9t-56 27t-36 46q-14 28 -14 66q0 74 48 111q49 36 105 36z" />
    <glyph glyph-name="Eogonek" unicode="&#x118;" horiz-adv-x="1337" 
d="M1074 -344q42 0 118 16v-131q-66 -33 -195 -33t-207 54t-78 159t72 181q72 75 170 98h-897v109h86q51 1 70 17q35 30 35 105v990q0 115 -63 129q-19 4 -42 4h-86v108h1137l8 -377h-143l-10 97q-8 75 -38 115t-93 40h-345v-512h486v-123h-486v-577h410q108 0 131 156
l16 96h142l-15 -377h-145q-122 -38 -173 -148q-18 -40 -18 -78q1 -38 11 -58t29 -34t45 -20t68 -6z" />
    <glyph glyph-name="eogonek" unicode="&#x119;" horiz-adv-x="1169" 
d="M868 -313q42 0 118 16v-131q-66 -33 -195 -33t-207 54t-78 177t128 210h-7q-258 0 -395 147q-136 147 -136 416q0 433 292 545q94 36 211 36q231 0 357 -126t127 -367v-105h-671q11 -393 274 -393q154 1 244 101q28 30 45 65q55 -30 55 -100q0 -108 -126 -168h2
q-4 -1 -12 -5q-9 -4 -24 -10q-52 -20 -92 -64q-64 -68 -63 -157q0 -108 153 -108zM770 657q0 334 -162 334q-86 0 -136 -85t-56 -249h354z" />
    <glyph glyph-name="Ecaron" unicode="&#x11a;" horiz-adv-x="1337" 
d="M573 125h410q108 0 131 156l16 96h142l-15 -377h-1200v109h86q51 1 70 17q35 30 35 105v990q0 115 -63 129q-19 4 -42 4h-86v108h1137l8 -377h-143l-10 97q-8 75 -38 115t-93 40h-345v-512h486v-123h-486v-577zM1038 1907v-27q-24 -29 -56 -67q-136 -161 -169 -234h-276
q-35 77 -169 234q-32 38 -57 67v27h142q162 -131 221 -185q43 39 223 185h141z" />
    <glyph glyph-name="ecaron" unicode="&#x11b;" horiz-adv-x="1169" 
d="M1030 199q0 -94 -104 -157q-104 -62 -266 -62t-262 38q-302 115 -302 536q0 422 292 534q94 36 211 36q231 0 357 -126t127 -367v-105h-671q11 -393 274 -393q154 1 244 101q28 30 45 65q55 -30 55 -100zM770 657q0 334 -162 334q-86 0 -136 -85t-56 -249h354zM960 1569
v-27q-24 -29 -56 -67q-136 -161 -169 -234h-276q-35 77 -169 234q-32 38 -57 67v27h142q162 -131 221 -185q43 39 223 185h141z" />
    <glyph glyph-name="Gcircumflex" unicode="&#x11c;" horiz-adv-x="1575" 
d="M866 -20q-370 0 -562 201q-191 201 -191 547t198 550q198 205 566 205q244 0 378 -66t134 -172q0 -75 -70 -125t-195 -49q0 201 -141 261q-49 20 -137 20t-166 -41t-128 -120t-72 -195t-23 -263q0 -307 103 -461q103 -153 337 -153q87 0 150 14v301q0 82 -37 114t-109 32
h-27v108h644v-108h-27q-64 0 -86 -26q-35 -42 -35 -128v-336q-240 -110 -504 -110zM475 1579v27q25 29 57 67q132 154 169 234h276q36 -76 169 -234q32 -38 56 -67v-27h-141q-189 153 -223 184q-49 -45 -221 -184h-142z" />
    <glyph glyph-name="gcircumflex" unicode="&#x11d;" horiz-adv-x="1147" 
d="M666 748q0 253 -142 253q-142 -1 -141 -247q0 -246 143 -246q114 0 134 140q6 44 6 100zM428 -47q-182 0 -182 -156q0 -166 241 -166q344 0 344 205q0 65 -41 91t-124 26h-238zM846 1006q100 -110 100 -280q0 -58 -24 -124t-76 -113q-108 -102 -314 -102q-11 1 -28 1
t-39 1t-51 4q-74 -40 -74 -105t96 -65h248q393 0 393 -313q-1 -292 -331 -374q-112 -28 -263 -28q-479 0 -479 285q0 215 277 238q-150 59 -150 182q1 93 109 169q34 24 73 46q-145 52 -193 204q-16 51 -16 113q0 179 104 279t324 100q133 0 244 -63q52 55 98 85t99 30
q86 0 125 -34t39 -70q0 -66 -33 -98t-113 -32q0 60 -49 80q-14 6 -40 6t-56 -22zM169 1241v27q25 29 57 67q132 154 169 234h276q36 -76 169 -234q32 -38 56 -67v-27h-141q-189 153 -223 184q-49 -45 -221 -184h-142z" />
    <glyph glyph-name="Gbreve" unicode="&#x11e;" horiz-adv-x="1575" 
d="M866 -20q-370 0 -562 201q-191 201 -191 547t198 550q198 205 566 205q244 0 378 -66t134 -172q0 -75 -70 -125t-195 -49q0 201 -141 261q-49 20 -137 20t-166 -41t-128 -120t-72 -195t-23 -263q0 -307 103 -461q103 -153 337 -153q87 0 150 14v301q0 82 -37 114t-109 32
h-27v108h644v-108h-27q-64 0 -86 -26q-35 -42 -35 -128v-336q-240 -110 -504 -110zM838 1761q161 0 192 140h136q-4 -129 -91 -225q-86 -97 -237 -97t-237 97t-91 225h135q32 -140 193 -140z" />
    <glyph glyph-name="gbreve" unicode="&#x11f;" horiz-adv-x="1147" 
d="M666 748q0 253 -142 253q-142 -1 -141 -247q0 -246 143 -246q114 0 134 140q6 44 6 100zM428 -47q-182 0 -182 -156q0 -166 241 -166q344 0 344 205q0 65 -41 91t-124 26h-238zM846 1006q100 -110 100 -280q0 -58 -24 -124t-76 -113q-108 -102 -314 -102q-11 1 -28 1
t-39 1t-51 4q-74 -40 -74 -105t96 -65h248q393 0 393 -313q-1 -292 -331 -374q-112 -28 -263 -28q-479 0 -479 285q0 215 277 238q-150 59 -150 182q1 93 109 169q34 24 73 46q-145 52 -193 204q-16 51 -16 113q0 179 104 279t324 100q133 0 244 -63q52 55 98 85t99 30
q86 0 125 -34t39 -70q0 -66 -33 -98t-113 -32q0 60 -49 80q-14 6 -40 6t-56 -22zM524 1423q161 0 193 140h136q-4 -129 -91 -225q-86 -97 -237 -97t-237 97t-91 225h135q31 -140 192 -140z" />
    <glyph glyph-name="Gdot" unicode="&#x120;" horiz-adv-x="1575" 
d="M866 -20q-370 0 -562 201q-191 201 -191 547t198 550q198 205 566 205q244 0 378 -66t134 -172q0 -75 -70 -125t-195 -49q0 201 -141 261q-49 20 -137 20t-166 -41t-128 -120t-72 -195t-23 -263q0 -307 103 -461q103 -153 337 -153q87 0 150 14v301q0 82 -37 114t-109 32
h-27v108h644v-108h-27q-64 0 -86 -26q-35 -42 -35 -128v-336q-240 -110 -504 -110zM815 1915q197 0 197 -147q0 -108 -109 -139q-32 -9 -68 -9q-35 0 -67 9t-56 27t-36 46q-14 28 -14 66q0 74 48 111q49 36 105 36z" />
    <glyph glyph-name="gdot" unicode="&#x121;" horiz-adv-x="1147" 
d="M666 748q0 253 -142 253q-142 -1 -141 -247q0 -246 143 -246q114 0 134 140q6 44 6 100zM428 -47q-182 0 -182 -156q0 -166 241 -166q344 0 344 205q0 65 -41 91t-124 26h-238zM846 1006q100 -110 100 -280q0 -58 -24 -124t-76 -113q-108 -102 -314 -102q-11 1 -28 1
t-39 1t-51 4q-74 -40 -74 -105t96 -65h248q393 0 393 -313q-1 -292 -331 -374q-112 -28 -263 -28q-479 0 -479 285q0 215 277 238q-150 59 -150 182q1 93 109 169q34 24 73 46q-145 52 -193 204q-16 51 -16 113q0 179 104 279t324 100q133 0 244 -63q52 55 98 85t99 30
q86 0 125 -34t39 -70q0 -66 -33 -98t-113 -32q0 60 -49 80q-14 6 -40 6t-56 -22zM503 1577q197 0 197 -147q0 -108 -109 -139q-32 -9 -68 -9q-35 0 -67 9t-56 27t-36 46q-14 28 -14 66q0 74 48 111q49 36 105 36z" />
    <glyph glyph-name="Gcommaaccent" unicode="&#x122;" horiz-adv-x="1575" 
d="M866 -20q-370 0 -562 201q-191 201 -191 547t198 550q198 205 566 205q244 0 378 -66t134 -172q0 -75 -70 -125t-195 -49q0 201 -141 261q-49 20 -137 20t-166 -41t-128 -120t-72 -195t-23 -263q0 -307 103 -461q103 -153 337 -153q87 0 150 14v301q0 82 -37 114t-109 32
h-27v108h644v-108h-27q-64 0 -86 -26q-35 -42 -35 -128v-336q-240 -110 -504 -110zM951 -125v-20q-60 -136 -195 -308h-123v27q59 184 80 301h238z" />
    <glyph glyph-name="gcommaaccent" unicode="&#x123;" horiz-adv-x="1147" 
d="M666 748q0 253 -142 253q-142 -1 -141 -247q0 -246 143 -246q114 0 134 140q6 44 6 100zM428 -47q-182 0 -182 -156q0 -166 241 -166q344 0 344 205q0 65 -41 91t-124 26h-238zM846 1006q100 -110 100 -280q0 -58 -24 -124t-76 -113q-108 -102 -314 -102q-11 1 -28 1
t-39 1t-51 4q-74 -40 -74 -105t96 -65h248q393 0 393 -313q-1 -292 -331 -374q-112 -28 -263 -28q-479 0 -479 285q0 215 277 238q-150 59 -150 182q1 93 109 169q34 24 73 46q-145 52 -193 204q-16 51 -16 113q0 179 104 279t324 100q133 0 244 -63q52 55 98 85t99 30
q86 0 125 -34t39 -70q0 -66 -33 -98t-113 -32q0 60 -49 80q-14 6 -40 6t-56 -22zM422 1241v21q53 121 194 307h123v-27q-59 -184 -80 -301h-237z" />
    <glyph glyph-name="Hcircumflex" unicode="&#x124;" horiz-adv-x="1677" 
d="M913 0v109h88q51 1 70 19q35 34 35 114v458h-535v-458q0 -112 64 -128q19 -4 41 -5h88v-109h-707v109h86q51 1 70 19q35 34 35 114v986q0 104 -65 120q-19 4 -40 5h-86v109h707v-109h-88q-52 -1 -70 -19q-36 -36 -35 -114v-395h535v395q0 112 -64 128q-19 4 -41 5h-88
v109h707v-109h-86q-50 -1 -69 -19q-35 -34 -35 -114v-989q0 -104 64 -118q18 -4 40 -4h86v-109h-707zM477 1579v27q25 29 57 67q132 154 169 234h276q36 -76 169 -234q32 -38 56 -67v-27h-141q-189 153 -223 184q-49 -45 -221 -184h-142z" />
    <glyph glyph-name="hcircumflex" unicode="&#x125;" horiz-adv-x="1366" 
d="M831 1124q338 0 338 -395v-475q0 -90 31 -118t107 -27h6v-109h-455v674q0 206 -88 258q-32 18 -79 18q-91 0 -133 -89t-42 -228v-391q0 -114 86 -128q28 -4 62 -5h6v-109h-629v109h4q80 -1 108 19q52 36 52 122v1073q0 125 -146 125h-24v108h481v-337q0 -85 -16 -261h18
q78 148 222 162q44 4 91 4zM305 1634v27q25 29 57 67q132 154 169 234h276q36 -76 169 -234q32 -38 56 -67v-27h-141q-189 153 -223 184q-49 -45 -221 -184h-142z" />
    <glyph glyph-name="Hbar" unicode="&#x126;" horiz-adv-x="1677" 
d="M1106 825v197h-535v-197h535zM913 0v109h88q51 0 78 26t27 107v458h-535v-458q0 -113 41.5 -123t63.5 -10h88v-109h-707v109h86q51 0 78 26t27 107v780h-211v108h211v99q0 105 -42 115t-63 10h-86v108h707v-108h-88q-51 0 -78 -27t-27 -106v-91h535v91q0 113 -41.5 123
t-63.5 10h-88v108h707v-108h-86q-50 0 -77 -26t-27 -107v-91h210v-108h-210v-791q0 -104 41.5 -113t62.5 -9h86v-109h-707z" />
    <glyph glyph-name="hbar" unicode="&#x127;" horiz-adv-x="1366" 
d="M831 1063q338 0 338 -395v-414q0 -90 31 -117.5t107 -27.5h6v-109h-455v612q0 207 -59.5 242t-107.5 35q-92 0 -133.5 -89.5t-41.5 -228.5v-329q0 -114 57 -123.5t91 -9.5h6v-109h-629v109h4q80 0 120 28t40 113v934h-178v108h178v31q0 125 -146 125h-24v108h481v-264
h318v-108h-318v-27q0 -84 -16 -260h18q78 147 171.5 156.5t141.5 9.5z" />
    <glyph glyph-name="Itilde" unicode="&#x128;" horiz-adv-x="821" 
d="M57 0v109h86q53 1 71 19q34 34 34 114v978q0 114 -63 128q-19 4 -42 5h-86v109h707v-109h-86q-52 -1 -70 -19q-34 -34 -35 -114v-978q-1 -114 63 -128q20 -4 42 -5h86v-109h-707zM240 1708q-91 0 -106 -108h-133q6 125 78 214t166 89q95 -1 197 -65q38 -24 72 -44t60 -20
q90 0 105 108h133q-6 -126 -77 -215q-71 -88 -166 -88q-93 1 -195 65q-38 24 -72 44t-62 20z" />
    <glyph glyph-name="itilde" unicode="&#x129;" horiz-adv-x="721" 
d="M516 242q0 -133 146 -133h24v-109h-651v109h24q146 0 146 133v622q0 125 -146 125h-24v109h481v-856zM186 1370q-91 0 -106 -108h-133q6 125 78 214t166 89q95 -1 197 -65q38 -24 72 -44t60 -20q90 0 105 108h133q-6 -126 -77 -215q-71 -88 -166 -88q-93 1 -195 65
q-38 24 -72 44t-62 20z" />
    <glyph glyph-name="Imacron" unicode="&#x12a;" horiz-adv-x="821" 
d="M57 0v109h86q53 1 71 19q34 34 34 114v978q0 114 -63 128q-19 4 -42 5h-86v109h707v-109h-86q-52 -1 -70 -19q-34 -34 -35 -114v-978q-1 -114 63 -128q20 -4 42 -5h86v-109h-707zM706 1579h-594v162h594v-162z" />
    <glyph glyph-name="imacron" unicode="&#x12b;" horiz-adv-x="721" 
d="M516 242q0 -133 146 -133h24v-109h-651v109h24q146 0 146 133v622q0 125 -146 125h-24v109h481v-856zM624 1241h-594v162h594v-162z" />
    <glyph glyph-name="Ibreve" unicode="&#x12c;" horiz-adv-x="821" 
d="M57 0v109h86q53 1 71 19q34 34 34 114v978q0 114 -63 128q-19 4 -42 5h-86v109h707v-109h-86q-52 -1 -70 -19q-34 -34 -35 -114v-978q-1 -114 63 -128q20 -4 42 -5h86v-109h-707zM408 1761q161 0 193 140h136q-4 -129 -91 -225q-86 -97 -237 -97t-237 97t-91 225h135
q31 -140 192 -140z" />
    <glyph glyph-name="ibreve" unicode="&#x12d;" horiz-adv-x="721" 
d="M516 242q0 -133 146 -133h24v-109h-651v109h24q146 0 146 133v622q0 125 -146 125h-24v109h481v-856zM345 1241q-151 0 -237 97t-91 225h135q32 -140 192 -140q161 0 193 140h136q-4 -129 -91 -225q-86 -97 -237 -97z" />
    <glyph glyph-name="Iogonek" unicode="&#x12e;" horiz-adv-x="821" 
d="M563 -344q42 0 118 16v-131q-66 -33 -195 -33t-207 54t-78 159t72 181q72 75 170 98h-386v109h86q53 1 71 19q34 34 34 114v978q0 114 -63 128q-19 4 -42 5h-86v109h707v-109h-86q-52 -1 -70 -19q-34 -34 -35 -114v-978q-1 -114 63 -128q20 -4 42 -5h86v-109h-163
q-122 -38 -173 -148q-18 -40 -18 -78t10 -58t30 -34q19 -14 45 -20t68 -6z" />
    <glyph glyph-name="iogonek" unicode="&#x12f;" horiz-adv-x="721" 
d="M506 -344q42 0 118 16v-131q-66 -33 -195 -33t-207 54t-78 159t72 181q72 75 170 98h-351v109h24q146 0 146 133v622q0 125 -146 125h-24v109h481v-856q0 -133 146 -133h24v-109h-142q-122 -38 -173 -148q-18 -40 -18 -78q1 -38 11 -58t29 -34t45 -20t68 -6zM329 1577
q197 0 197 -147q0 -108 -109 -139q-32 -9 -68 -9q-35 0 -67 9t-56 27t-36 46q-14 28 -14 66q0 74 48 111q49 36 105 36z" />
    <glyph glyph-name="Idotaccent" unicode="&#x130;" horiz-adv-x="821" 
d="M57 0v109h86q53 1 71 19q34 34 34 114v978q0 114 -63 128q-19 4 -42 5h-86v109h707v-109h-86q-52 -1 -70 -19q-34 -34 -35 -114v-978q-1 -114 63 -128q20 -4 42 -5h86v-109h-707zM385 1915q197 0 197 -147q0 -108 -109 -139q-32 -9 -68 -9q-35 0 -67 9t-56 27t-36 46
q-14 28 -14 66q0 74 48 111q49 36 105 36z" />
    <glyph glyph-name="dotlessi" unicode="&#x131;" horiz-adv-x="721" 
d="M516 242q0 -133 146 -133h24v-109h-651v109h24q146 0 146 133v622q0 125 -146 125h-24v109h481v-856z" />
    <glyph glyph-name="IJ" unicode="&#x132;" horiz-adv-x="1575" 
d="M57 0v109h86q53 1 71 19q34 34 34 114v978q0 114 -63 128q-19 4 -42 5h-86v109h707v-109h-86q-52 -1 -70 -19q-34 -34 -35 -114v-978q-1 -114 63 -128q20 -4 42 -5h86v-109h-707zM1552 1354h-86q-52 0 -70 -18q-36 -36 -36 -115v-1225q0 -338 -280 -444
q-116 -44 -265 -44h-74v119h37q176 -1 236 193q22 70 22 174v1235q0 105 -64 121q-19 4 -40 4h-86v108h706v-108z" />
    <glyph glyph-name="ij" unicode="&#x133;" horiz-adv-x="1427" 
d="M516 242q0 -133 146 -133h24v-109h-651v109h24q146 0 146 133v622q0 125 -146 125h-24v109h481v-856zM329 1577q197 0 197 -147q0 -108 -109 -139q-32 -9 -68 -9q-35 0 -67 9t-56 27t-36 46q-14 28 -14 66q0 74 48 111q49 36 105 36zM1052 1577q197 0 197 -147
q0 -108 -109 -139q-32 -9 -68 -9t-68 9t-54 27q-24 18 -38 46t-13 66q0 74 48 111q49 36 105 36zM1237 1098v-1114q-1 -378 -309 -453q-94 -23 -207 -23h-41v127h14q118 0 175 81t57 284v854q0 114 -101 130q-30 4 -63 5h-6v109h481z" />
    <glyph glyph-name="Jcircumflex" unicode="&#x134;" horiz-adv-x="754" 
d="M731 1354h-86q-53 0 -71 -18q-36 -36 -35 -115v-1225q1 -338 -279 -444q-116 -44 -266 -44h-74v119h37q176 -1 236 193q22 70 22 174v1235q0 105 -64 121q-19 4 -40 4h-86v108h706v-108zM11 1579v27q25 29 57 67q132 154 169 234h276q36 -76 169 -234q32 -38 56 -67v-27
h-141q-189 153 -223 184q-49 -45 -221 -184h-142z" />
    <glyph glyph-name="jcircumflex" unicode="&#x135;" horiz-adv-x="707" 
d="M516 1098v-1114q0 -378 -290 -453q-89 -23 -195 -23h-39v127h12q101 0 151 82t50 283v854q0 114 -101 130q-30 4 -63 5h-6v109h481zM-42 1241v27q24 29 56 67q132 154 170 234h276q36 -76 169 -234q32 -38 56 -67v-27h-141q-189 153 -223 184q-49 -45 -221 -184h-142z
" />
    <glyph glyph-name="Kcommaaccent" unicode="&#x136;" horiz-adv-x="1503" 
d="M1006 1302q0 54 -115 54v106h555v-106q-111 0 -224 -107q-35 -33 -71 -73l-270 -297l381 -605q83 -133 170 -157q29 -8 63 -8h8v-109h-110q-223 0 -317 46q-59 28 -89 69t-49 73l-276 471l-91 -71v-346q0 -114 65 -128q20 -4 42 -5h86v-109h-707v109h86q51 1 70 17
q35 30 35 105v998q0 105 -64 121q-19 4 -41 4h-86v108h707v-108h-86q-54 0 -72 -18q-36 -36 -35 -115v-478l318 347q94 99 111 163q6 21 6 49zM955 -125v-20q-60 -136 -195 -308h-123v27q59 184 80 301h238z" />
    <glyph glyph-name="kcommaaccent" unicode="&#x137;" horiz-adv-x="1303" 
d="M819 940q0 55 -106 55v103h516v-103q-71 1 -139 -41t-150 -133l-129 -147l272 -406q106 -159 213 -159h7v-109h-29q-233 0 -304 23q-70 23 -110 59t-80 100l-182 287l-82 -61v-166q0 -133 146 -133h24v-109h-651v109h24q146 0 146 133v1081q0 125 -146 125h-24v108h481
v-790q0 -52 -4 -112q-4 -61 -6 -101l258 289q55 61 55 98zM840 -125v-20q-60 -136 -195 -308h-123v27q59 184 80 301h238z" />
    <glyph glyph-name="kgreenlandic" unicode="&#x138;" horiz-adv-x="1303" 
d="M819 940q0 55 -106 55v103h516v-103q-71 0 -139.5 -41.5t-149.5 -132.5l-129 -147l272 -406q106 -159 213 -159h7v-109h-29q-233 0 -303.5 23t-110.5 59.5t-80 99.5l-182 287l-82 -61v-166q0 -133 146 -133h24v-109h-651v109h24q146 0 146 133v622q0 125 -146 125h-24
v109h481v-332q0 -52 -4 -112q-4 -61 -6 -101l258 289q55 61 55 98z" />
    <glyph glyph-name="Lacute" unicode="&#x139;" horiz-adv-x="1339" 
d="M57 0v109h86q53 1 71 19q34 34 34 114v979q0 115 -63 129q-19 4 -42 4h-86v108h707v-108h-86q-50 0 -69 -18q-36 -33 -36 -107v-1104h381q72 -1 112 45t58 133l33 154h115l-15 -457h-1200zM864 1907v-21q-60 -86 -274 -238q-58 -42 -107 -69h-139v27q148 196 198 301h322
z" />
    <glyph glyph-name="lacute" unicode="&#x13a;" horiz-adv-x="721" 
d="M516 242q0 -133 146 -133h24v-109h-651v109h24q146 0 146 133v1081q0 125 -146 125h-24v108h481v-1314zM747 1964v-21q-61 -85 -275 -237q-58 -42 -106 -70h-139v27q148 196 198 301h322z" />
    <glyph glyph-name="Lcommaaccent" unicode="&#x13b;" horiz-adv-x="1339" 
d="M57 0v109h86q53 1 71 19q34 34 34 114v979q0 115 -63 129q-19 4 -42 4h-86v108h707v-108h-86q-50 0 -69 -18q-36 -33 -36 -107v-1104h381q72 -1 112 45t58 133l33 154h115l-15 -457h-1200zM815 -125v-20q-60 -136 -195 -308h-123v27q59 184 80 301h238z" />
    <glyph glyph-name="lcommaaccent" unicode="&#x13c;" horiz-adv-x="721" 
d="M516 242q0 -133 146 -133h24v-109h-651v109h24q146 0 146 133v1081q0 125 -146 125h-24v108h481v-1314zM485 -125v-20q-60 -136 -195 -308h-123v27q59 184 80 301h238z" />
    <glyph glyph-name="Lcaron" unicode="&#x13d;" horiz-adv-x="1339" 
d="M57 0v109h86q53 1 71 19q34 34 34 114v979q0 115 -63 129q-19 4 -42 4h-86v108h707v-108h-86q-50 0 -69 -18q-36 -33 -36 -107v-1104h381q72 -1 112 45t58 133l33 154h115l-15 -457h-1200zM1241 1463v-20q-59 -134 -195 -307h-122v26q57 177 79 301h238z" />
    <glyph glyph-name="lcaron" unicode="&#x13e;" horiz-adv-x="721" 
d="M516 242q0 -133 146 -133h24v-109h-651v109h24q146 0 146 133v1081q0 125 -146 125h-24v108h481v-1314zM946 1556v-20q-59 -134 -195 -307h-122v26q57 177 79 301h238z" />
    <glyph glyph-name="Ldot" unicode="&#x13f;" horiz-adv-x="1339" 
d="M57 0v109h86q53 1 71 19q34 34 34 114v979q0 115 -63 129q-19 4 -42 4h-86v108h707v-108h-86q-50 0 -69 -18q-36 -33 -36 -107v-1104h381q72 -1 112 45t58 133l33 154h115l-15 -457h-1200zM909 908q197 0 197 -147q0 -108 -109 -139q-32 -9 -68 -9q-35 0 -67 9t-56 27
t-36 46q-14 29 -14 67q0 74 48 110q49 36 105 36z" />
    <glyph glyph-name="ldot" unicode="&#x140;" horiz-adv-x="958" 
d="M516 242q0 -133 146 -133h24v-109h-651v109h24q146 0 146 133v1081q0 125 -146 125h-24v108h481v-1314zM811 820q197 0 197 -147q0 -108 -109 -139q-32 -9 -68 -9q-35 0 -67 9t-56 27t-36 46q-14 29 -14 67q0 74 48 110q49 36 105 36z" />
    <glyph glyph-name="Lslash" unicode="&#x141;" horiz-adv-x="1339" 
d="M57 0v109h86q52 0 78.5 26.5t26.5 106.5v323l-170 -96v139l170 99v514q0 114 -41 123.5t-64 9.5h-86v108h707v-108h-86q-48 0 -74.5 -24.5t-30.5 -100.5v-334l295 172v-143l-295 -172v-627h381q72 0 112 45.5t58 132.5l33 154h115l-15 -457h-1200z" />
    <glyph glyph-name="lslash" unicode="&#x142;" horiz-adv-x="721" 
d="M516 242q0 -133 146 -133h24v-109h-651v109h24q146 0 146 133v299l-150 -84v139l150 86v641q0 125 -146 125h-24v108h481v-696l164 92v-143l-164 -92v-475z" />
    <glyph glyph-name="Nacute" unicode="&#x143;" horiz-adv-x="1614" 
d="M401 242q1 -114 65 -128q20 -4 40 -5h86v-109h-535v109h86q51 1 70 19q35 34 35 114v987q0 105 -65 121q-19 4 -40 4h-86v108h455l723 -1022v789q0 105 -65 121q-19 4 -40 4h-86v108h535v-108h-86q-50 0 -69 -18q-35 -34 -35 -115v-1221h-189l-799 1128v-886zM1233 1907
v-21q-61 -86 -275 -238q-58 -42 -106 -69h-139v27q148 196 198 301h322z" />
    <glyph glyph-name="nacute" unicode="&#x144;" horiz-adv-x="1366" 
d="M831 1124q338 0 338 -395v-475q0 -90 31 -118t107 -27h6v-109h-455v674q0 206 -88 258q-32 18 -79 18q-91 0 -133 -89t-42 -228v-391q0 -114 86 -128q28 -4 62 -5h6v-109h-629v109h4q80 -1 108 19q52 36 52 122v606q0 114 -87 128q-27 4 -61 5h-6v109h430l27 -146h10
q82 151 222 167q44 5 91 5zM1073 1569v-21q-61 -86 -275 -238q-58 -42 -106 -69h-139v27q148 196 198 301h322z" />
    <glyph glyph-name="Ncommaaccent" unicode="&#x145;" horiz-adv-x="1614" 
d="M401 242q1 -114 65 -128q20 -4 40 -5h86v-109h-535v109h86q51 1 70 19q35 34 35 114v987q0 105 -65 121q-19 4 -40 4h-86v108h455l723 -1022v789q0 105 -65 121q-19 4 -40 4h-86v108h535v-108h-86q-50 0 -69 -18q-35 -34 -35 -115v-1221h-189l-799 1128v-886zM965 -125
v-20q-60 -136 -195 -308h-123v27q59 184 80 301h238z" />
    <glyph glyph-name="ncommaaccent" unicode="&#x146;" horiz-adv-x="1366" 
d="M831 1124q338 0 338 -395v-475q0 -90 31 -118t107 -27h6v-109h-455v674q0 206 -88 258q-32 18 -79 18q-91 0 -133 -89t-42 -228v-391q0 -114 86 -128q28 -4 62 -5h6v-109h-629v109h4q80 -1 108 19q52 36 52 122v606q0 114 -87 128q-27 4 -61 5h-6v109h430l27 -146h10
q82 151 222 167q44 5 91 5zM826 -125v-20q-60 -136 -195 -308h-123v27q59 184 80 301h238z" />
    <glyph glyph-name="Ncaron" unicode="&#x147;" horiz-adv-x="1614" 
d="M401 242q1 -114 65 -128q20 -4 40 -5h86v-109h-535v109h86q51 1 70 19q35 34 35 114v987q0 105 -65 121q-19 4 -40 4h-86v108h455l723 -1022v789q0 105 -65 121q-19 4 -40 4h-86v108h535v-108h-86q-50 0 -69 -18q-35 -34 -35 -115v-1221h-189l-799 1128v-886zM1214 1907
v-27q-24 -29 -56 -67q-136 -161 -169 -234h-276q-35 77 -169 234q-32 38 -57 67v27h142q162 -131 221 -185q43 39 223 185h141z" />
    <glyph glyph-name="ncaron" unicode="&#x148;" horiz-adv-x="1366" 
d="M831 1124q338 0 338 -395v-475q0 -90 31 -118t107 -27h6v-109h-455v674q0 206 -88 258q-32 18 -79 18q-91 0 -133 -89t-42 -228v-391q0 -114 86 -128q28 -4 62 -5h6v-109h-629v109h4q80 -1 108 19q52 36 52 122v606q0 114 -87 128q-27 4 -61 5h-6v109h430l27 -146h10
q82 151 222 167q44 5 91 5zM1052 1569v-27q-24 -29 -56 -67q-136 -161 -169 -234h-276q-35 77 -169 234q-32 38 -57 67v27h142q162 -131 221 -185q43 39 223 185h141z" />
    <glyph glyph-name="napostrophe" unicode="&#x149;" horiz-adv-x="1751" 
d="M1216 1124q338 0 338 -395v-475q0 -90 31 -118t107 -27h6v-109h-455v674q1 206 -87 258q-32 18 -80 18q-91 0 -133 -89t-42 -228v-391q1 -114 87 -128q28 -4 61 -5h6v-109h-629v109h4q80 -1 108 19q52 36 52 122v606q0 114 -87 128q-27 4 -61 5h-6v109h430l27 -146h10
q81 151 221 167q44 5 92 5zM399 1257q0 -322 -367 -421v106q94 34 126 59q54 45 54 101q0 29 -28 48q-28 18 -46 30q-74 44 -75 140q0 70 42 106t117 36t126 -60t51 -145z" />
    <glyph glyph-name="Eng" unicode="&#x14a;" horiz-adv-x="1614" 
d="M401 242q0 -114 42 -123.5t63 -9.5h86v-109h-535v109h86q51 0 78 26t27 107v987q0 105 -42 115t-63 10h-86v108h455l723 -977v744q0 105 -42 115t-63 10h-86v108h535v-108h-86q-50 0 -77 -26t-27 -107v-1237q0 -380 -131.5 -428t-208.5 -48h-68v119h49q87 0 146 88.5
t59 266.5v18l-834 1128v-886z" />
    <glyph glyph-name="eng" unicode="&#x14b;" horiz-adv-x="1360" 
d="M831 1124q338 0 338 -395v-745q0 -378 -189.5 -427t-295.5 -49h-39v127h12q101 0 151 82t50 283v674q0 206 -59.5 241t-107.5 35q-91 0 -133 -88.5t-42 -228.5v-391q0 -114 57 -123.5t91 -9.5h6v-109h-629v109h4q80 0 120 28t40 113v606q0 114 -57 123.5t-91 9.5h-6v109
h430l27 -146h10q81 151 173 161.5t140 10.5z" />
    <glyph glyph-name="Omacron" unicode="&#x14c;" horiz-adv-x="1612" 
d="M457 733q0 -305 83 -463q83 -157 267 -157q271 0 329 358q18 115 19 262q0 305 -81 462t-265 157q-274 0 -333 -357q-19 -115 -19 -262zM1317 184q-182 -204 -517 -204t-511 202t-176 553q0 350 177 550t511 200q335 0 517 -203q181 -203 181 -549q0 -345 -182 -549z
M1100 1579h-594v162h594v-162z" />
    <glyph glyph-name="omacron" unicode="&#x14d;" horiz-adv-x="1255" 
d="M414 554q0 -110 12 -193t36 -139q26 -56 67 -84t100 -29q114 0 164 109q49 109 49 335q0 335 -115 413q-41 28 -100 27q-59 1 -100 -27t-66 -83t-36 -137t-11 -192zM96 553q0 571 535 571q383 0 491 -320q36 -108 37 -251q0 -573 -534 -573q-385 0 -493 321
q-36 108 -36 252zM918 1241h-594v162h594v-162z" />
    <glyph glyph-name="Obreve" unicode="&#x14e;" horiz-adv-x="1612" 
d="M457 733q0 -305 83 -463q83 -157 267 -157q271 0 329 358q18 115 19 262q0 305 -81 462t-265 157q-274 0 -333 -357q-19 -115 -19 -262zM1317 184q-182 -204 -517 -204t-511 202t-176 553q0 350 177 550t511 200q335 0 517 -203q181 -203 181 -549q0 -345 -182 -549z
M798 1761q161 0 193 140h136q-4 -129 -91 -225q-86 -97 -237 -97t-237 97t-91 225h135q31 -140 192 -140z" />
    <glyph glyph-name="obreve" unicode="&#x14f;" horiz-adv-x="1255" 
d="M414 554q0 -110 12 -193t36 -139q26 -56 67 -84t100 -29q114 0 164 109q49 109 49 335q0 335 -115 413q-41 28 -100 27q-59 1 -100 -27t-66 -83t-36 -137t-11 -192zM96 553q0 571 535 571q383 0 491 -320q36 -108 37 -251q0 -573 -534 -573q-385 0 -493 321
q-36 108 -36 252zM623 1241q-151 0 -237 97t-91 225h135q32 -140 192 -140q161 0 193 140h136q-4 -129 -91 -225q-86 -97 -237 -97z" />
    <glyph glyph-name="Ohungarumlaut" unicode="&#x150;" horiz-adv-x="1612" 
d="M457 733q0 -305 83 -463q83 -157 267 -157q271 0 329 358q18 115 19 262q0 305 -81 462t-265 157q-274 0 -333 -357q-19 -115 -19 -262zM1317 184q-182 -204 -517 -204t-511 202t-176 553q0 350 177 550t511 200q335 0 517 -203q181 -203 181 -549q0 -345 -182 -549z
M1297 1907v-21q-59 -96 -243 -263q-28 -25 -50 -44h-141v27q124 195 174 301h260zM908 1907v-21q-58 -96 -242 -263q-28 -25 -51 -44h-142v27q110 165 174 301h261z" />
    <glyph glyph-name="ohungarumlaut" unicode="&#x151;" horiz-adv-x="1255" 
d="M414 554q0 -110 12 -193t36 -139q26 -56 67 -84t100 -29q114 0 164 109q49 109 49 335q0 335 -115 413q-41 28 -100 27q-59 1 -100 -27t-66 -83t-36 -137t-11 -192zM96 553q0 571 535 571q383 0 491 -320q36 -108 37 -251q0 -573 -534 -573q-385 0 -493 321
q-36 108 -36 252zM1118 1569v-21q-58 -96 -242 -263q-28 -25 -51 -44h-141v27q124 195 174 301h260zM729 1569v-21q-59 -96 -243 -263q-28 -25 -50 -44h-142v27q110 165 174 301h261z" />
    <glyph glyph-name="OE" unicode="&#x152;" horiz-adv-x="2087" 
d="M457 733q0 -305 83 -462.5t267 -157.5q113 0 190 59v1118q-81 62 -183 62q-101 0 -168 -41.5t-128 -157t-61 -420.5zM782 1485q149 0 244 -23h918l8 -377h-144l-10 97q-8 75 -38 115t-93 40h-344v-512h485v-123h-485v-577h410q84 0 104.5 61t26.5 95l16 96h141l-14 -377
h-987q-100 -20 -244 -20t-274.5 54t-216.5 153t-129 238.5t-43 309.5t43 308.5t129.5 236.5t217 151.5t279.5 53.5z" />
    <glyph glyph-name="oe" unicode="&#x153;" horiz-adv-x="1915" 
d="M1776 199q0 -94 -102 -156.5t-298 -62.5q-233 0 -372 157q-130 -157 -379 -157q-384 0 -456.5 214.5t-72.5 358.5q0 571 535 571q229 0 366 -157q127 157 353 157t352.5 -126.5t126.5 -366.5v-105h-670l-2 -24q19 -369 275 -369q203 0 288 166q56 -30 56 -100zM1516 657
q0 334 -162 334q-85 0 -136.5 -85t-56.5 -249h355zM414 554q0 -225 50 -335t165 -110q161 0 186 153.5t27 253.5v55q-1 211 -50.5 316.5t-164.5 105.5q-169 0 -191 -164.5t-22 -274.5z" />
    <glyph glyph-name="Racute" unicode="&#x154;" horiz-adv-x="1448" 
d="M571 754h115q137 0 193 73q55 73 55 227t-57 221q-57 66 -195 66h-111v-587zM717 1462q561 0 561 -379q0 -274 -279 -387l244 -420q77 -132 150 -158q26 -10 55 -9h8v-109h-67q-194 0 -263 28q-68 28 -106 63q-38 36 -70 93l-243 451h-136v-404q0 -104 65 -118
q19 -4 40 -4h88v-109h-707v109h86q50 1 69 17q36 31 36 105v998q0 105 -65 121q-19 4 -40 4h-86v108h660zM1069 1907v-21q-61 -86 -275 -238q-58 -42 -106 -69h-139v27q148 196 198 301h322z" />
    <glyph glyph-name="racute" unicode="&#x155;" horiz-adv-x="1071" 
d="M805 1122q235 0 235 -166q0 -94 -68 -146t-192 -52q0 90 -16 119q-28 51 -74 51t-72 -18t-44 -46q-58 -92 -58 -264v-354q0 -118 86 -132q26 -4 57 -5h66v-109h-684v109h6q79 1 107 21q51 37 51 126v594q0 120 -87 134q-27 4 -61 5h-6v109h414l41 -160h10q42 97 105 141
q64 43 184 43zM889 1569v-21q-61 -86 -275 -238q-58 -42 -106 -69h-139v27q148 196 198 301h322z" />
    <glyph glyph-name="Rcommaaccent" unicode="&#x156;" horiz-adv-x="1448" 
d="M571 754h115q137 0 193 73q55 73 55 227t-57 221q-57 66 -195 66h-111v-587zM717 1462q561 0 561 -379q0 -274 -279 -387l244 -420q77 -132 150 -158q26 -10 55 -9h8v-109h-67q-194 0 -263 28q-68 28 -106 63q-38 36 -70 93l-243 451h-136v-404q0 -104 65 -118
q19 -4 40 -4h88v-109h-707v109h86q50 1 69 17q36 31 36 105v998q0 105 -65 121q-19 4 -40 4h-86v108h660zM867 -125v-20q-60 -136 -195 -308h-123v27q59 184 80 301h238z" />
    <glyph glyph-name="rcommaaccent" unicode="&#x157;" horiz-adv-x="1071" 
d="M805 1122q235 0 235 -166q0 -94 -68 -146t-192 -52q0 90 -16 119q-28 51 -74 51t-72 -18t-44 -46q-58 -92 -58 -264v-354q0 -118 86 -132q26 -4 57 -5h66v-109h-684v109h6q79 1 107 21q51 37 51 126v594q0 120 -87 134q-27 4 -61 5h-6v109h414l41 -160h10q42 97 105 141
q64 43 184 43zM505 -125v-20q-60 -136 -195 -308h-123v27q59 184 80 301h238z" />
    <glyph glyph-name="Rcaron" unicode="&#x158;" horiz-adv-x="1448" 
d="M571 754h115q137 0 193 73q55 73 55 227t-57 221q-57 66 -195 66h-111v-587zM717 1462q561 0 561 -379q0 -274 -279 -387l244 -420q77 -132 150 -158q26 -10 55 -9h8v-109h-67q-194 0 -263 28q-68 28 -106 63q-38 36 -70 93l-243 451h-136v-404q0 -104 65 -118
q19 -4 40 -4h88v-109h-707v109h86q50 1 69 17q36 31 36 105v998q0 105 -65 121q-19 4 -40 4h-86v108h660zM1034 1907v-27q-24 -29 -56 -67q-136 -161 -169 -234h-276q-35 77 -169 234q-32 38 -57 67v27h142q162 -131 221 -185q43 39 223 185h141z" />
    <glyph glyph-name="rcaron" unicode="&#x159;" horiz-adv-x="1071" 
d="M805 1122q235 0 235 -166q0 -94 -68 -146t-192 -52q0 90 -16 119q-28 51 -74 51t-72 -18t-44 -46q-58 -92 -58 -264v-354q0 -118 86 -132q26 -4 57 -5h66v-109h-684v109h6q79 1 107 21q51 37 51 126v594q0 120 -87 134q-27 4 -61 5h-6v109h414l41 -160h10q42 97 105 141
q64 43 184 43zM910 1569v-27q-24 -29 -56 -67q-136 -161 -169 -234h-276q-35 77 -169 234q-32 38 -57 67v27h142q162 -131 221 -185q43 39 223 185h141z" />
    <glyph glyph-name="Sacute" unicode="&#x15a;" horiz-adv-x="1200" 
d="M164 73q-102 76 -103 183q0 107 66 154t166 47q0 -170 77 -263q77 -92 198 -92q122 0 190 62q69 62 69 161q0 98 -75 159t-224 123q-150 63 -224 109t-118 100q-84 101 -84 255q0 185 141 298q141 114 359 114t328 -66t110 -178t-142 -151q-48 -13 -110 -13
q0 104 -55 194q-55 89 -162 89q-138 0 -186 -108q-16 -36 -16 -80q0 -93 69 -160t274 -151q205 -83 295 -181q91 -98 91 -250q0 -201 -153 -324q-153 -124 -409 -124q-246 0 -372 93zM1022 1907v-21q-60 -86 -274 -238q-58 -42 -107 -69h-139v27q148 196 198 301h322z" />
    <glyph glyph-name="sacute" unicode="&#x15b;" horiz-adv-x="999" 
d="M470 -20q-210 0 -309 65q-100 65 -100 163q0 167 191 167q0 -127 61 -201t160 -74q150 0 191 86q12 26 12 57q0 64 -54 107q-54 44 -167 83q-206 72 -290 152q-83 79 -83 225q0 147 118 230q118 82 310 82t282 -56q89 -56 89 -130q-1 -73 -49 -109t-160 -36
q0 103 -46 159t-145 56t-141 -72q-14 -24 -14 -56q0 -66 57 -108q57 -43 174 -83q117 -41 175 -71q186 -99 186 -276q0 -260 -256 -336q-84 -24 -192 -24zM905 1569v-21q-61 -86 -275 -238q-58 -42 -106 -69h-139v27q148 196 198 301h322z" />
    <glyph glyph-name="Scircumflex" unicode="&#x15c;" horiz-adv-x="1200" 
d="M164 73q-102 76 -103 183q0 107 66 154t166 47q0 -170 77 -263q77 -92 198 -92q122 0 190 62q69 62 69 161q0 98 -75 159t-224 123q-150 63 -224 109t-118 100q-84 101 -84 255q0 185 141 298q141 114 359 114t328 -66t110 -178t-142 -151q-48 -13 -110 -13
q0 104 -55 194q-55 89 -162 89q-138 0 -186 -108q-16 -36 -16 -80q0 -93 69 -160t274 -151q205 -83 295 -181q91 -98 91 -250q0 -201 -153 -324q-153 -124 -409 -124q-246 0 -372 93zM245 1579v27q25 29 57 67q132 154 169 234h276q36 -76 169 -234q32 -38 56 -67v-27h-141
q-189 153 -223 184q-49 -45 -221 -184h-142z" />
    <glyph glyph-name="scircumflex" unicode="&#x15d;" horiz-adv-x="999" 
d="M470 -20q-210 0 -309 65q-100 65 -100 163q0 167 191 167q0 -127 61 -201t160 -74q150 0 191 86q12 26 12 57q0 64 -54 107q-54 44 -167 83q-206 72 -290 152q-83 79 -83 225q0 147 118 230q118 82 310 82t282 -56q89 -56 89 -130q-1 -73 -49 -109t-160 -36
q0 103 -46 159t-145 56t-141 -72q-14 -24 -14 -56q0 -66 57 -108q57 -43 174 -83q117 -41 175 -71q186 -99 186 -276q0 -260 -256 -336q-84 -24 -192 -24zM138 1241v27q24 29 56 67q132 154 170 234h276q36 -76 169 -234q32 -38 56 -67v-27h-141q-189 153 -223 184
q-49 -45 -221 -184h-142z" />
    <glyph glyph-name="Scedilla" unicode="&#x15e;" horiz-adv-x="1200" 
d="M485 -360q128 0 128 82q0 67 -40 89t-114 27l34 143q-215 8 -324 88q-108 80 -108 187t66 154t166 47q0 -170 77 -263q77 -92 198 -92q122 0 190 62q69 62 69 161q0 98 -75 159t-224 123q-150 63 -224 109t-118 100q-84 101 -84 255q0 185 141 298q141 114 359 114
t328 -66t110 -178t-142 -151q-48 -13 -110 -13q0 104 -55 194q-55 89 -162 89q-138 0 -186 -108q-16 -36 -16 -80q0 -93 69 -160t274 -151q205 -83 295 -181q91 -98 91 -250q0 -201 -142 -315t-345 -130l-13 -53q156 -12 204 -114q16 -34 15 -81q0 -100 -79 -164
q-79 -63 -191 -63t-199 23v125q76 -16 137 -16z" />
    <glyph glyph-name="scedilla" unicode="&#x15f;" horiz-adv-x="999" 
d="M399 -360q128 0 128 82q0 67 -40 89t-114 27l34 144q-257 14 -323 142q-22 44 -23 94q1 89 69 129q49 28 122 28q0 -127 61 -201t160 -74q150 0 191 86q12 26 12 57q0 64 -54 107q-54 44 -167 83q-206 72 -290 152q-83 79 -83 225q0 147 118 230q118 82 310 82t282 -56
q89 -56 89 -130q-1 -73 -49 -109t-160 -36q0 103 -46 159t-145 56t-141 -72q-14 -24 -14 -56q0 -66 57 -108q57 -43 174 -83q117 -41 175 -71q186 -99 186 -276q0 -260 -256 -336q-62 -18 -138 -22l-12 -52q156 -12 204 -114q16 -34 15 -81q0 -100 -79 -164
q-79 -63 -191 -63t-199 23v125q76 -16 137 -16z" />
    <glyph glyph-name="Scaron" unicode="&#x160;" horiz-adv-x="1200" 
d="M164 73q-102 76 -103 183q0 107 66 154t166 47q0 -170 77 -263q77 -92 198 -92q122 0 190 62q69 62 69 161q0 98 -75 159t-224 123q-150 63 -224 109t-118 100q-84 101 -84 255q0 185 141 298q141 114 359 114t328 -66t110 -178t-142 -151q-48 -13 -110 -13
q0 104 -55 194q-55 89 -162 89q-138 0 -186 -108q-16 -36 -16 -80q0 -93 69 -160t274 -151q205 -83 295 -181q91 -98 91 -250q0 -201 -153 -324q-153 -124 -409 -124q-246 0 -372 93zM972 1907v-27q-24 -29 -56 -67q-136 -161 -169 -234h-276q-35 77 -169 234q-32 38 -57 67
v27h142q162 -131 221 -185q43 39 223 185h141z" />
    <glyph glyph-name="scaron" unicode="&#x161;" horiz-adv-x="999" 
d="M470 -20q-210 0 -309 65q-100 65 -100 163q0 167 191 167q0 -127 61 -201t160 -74q150 0 191 86q12 26 12 57q0 64 -54 107q-54 44 -167 83q-206 72 -290 152q-83 79 -83 225q0 147 118 230q118 82 310 82t282 -56q89 -56 89 -130q-1 -73 -49 -109t-160 -36
q0 103 -46 159t-145 56t-141 -72q-14 -24 -14 -56q0 -66 57 -108q57 -43 174 -83q117 -41 175 -71q186 -99 186 -276q0 -260 -256 -336q-84 -24 -192 -24zM863 1569v-27q-24 -29 -56 -67q-136 -161 -169 -234h-276q-36 77 -170 234q-32 38 -56 67v27h142q162 -131 221 -185
q43 39 223 185h141z" />
    <glyph glyph-name="Tcedilla" unicode="&#x162;" horiz-adv-x="1337" 
d="M583 -360q128 0 128 82q0 67 -40 89t-114 27l39 162h-281v109h86q53 1 71 19q34 34 34 114v1095h-164q-126 0 -156 -84q-10 -27 -14 -61l-14 -127h-138l11 397h1276l10 -397h-137l-15 127q-9 74 -35 100q-48 45 -135 45h-164v-1095q0 -112 64 -128q19 -4 41 -5h86v-109
h-309l-17 -70q156 -12 204 -114q16 -34 15 -81q0 -100 -79 -164q-79 -63 -191 -63t-199 23v125q76 -16 137 -16z" />
    <glyph glyph-name="tcedilla" unicode="&#x163;" horiz-adv-x="829" 
d="M369 -360q128 0 128 82q0 67 -40 89t-114 27l37 156q-183 50 -183 309v655h-154v105q230 0 295 289h170v-254h262v-140h-262v-634q0 -93 32 -136t102 -43t146 19v-133q-102 -51 -290 -51h-4l-12 -50q156 -12 204 -114q16 -34 15 -81q0 -100 -79 -164q-79 -63 -191 -63
t-199 23v125q76 -16 137 -16z" />
    <glyph glyph-name="Tcaron" unicode="&#x164;" horiz-adv-x="1337" 
d="M831 242q0 -112 64 -128q19 -4 41 -5h86v-109h-707v109h86q53 1 71 19q34 34 34 114v1095h-164q-126 0 -156 -84q-10 -27 -14 -61l-14 -127h-138l11 397h1276l10 -397h-137l-15 127q-9 74 -35 100q-48 45 -135 45h-164v-1095zM1032 1907v-27q-24 -29 -56 -67
q-136 -161 -169 -234h-276q-35 77 -169 234q-32 38 -57 67v27h142q162 -131 221 -185q43 39 223 185h141z" />
    <glyph glyph-name="tcaron" unicode="&#x165;" horiz-adv-x="829" 
d="M43 1063q230 0 295 289h170v-254h262v-140h-262v-634q0 -93 32 -136t102 -43t146 19v-133q-102 -51 -290 -51q-301 0 -301 323v655h-154v105zM946 1556v-20q-59 -134 -195 -307h-122v26q57 177 79 301h238z" />
    <glyph glyph-name="Tbar" unicode="&#x166;" horiz-adv-x="1337" 
d="M831 782h295v-108h-295v-432q0 -113 41.5 -123t63.5 -10h86v-109h-707v109h86q52 0 78.5 26.5t26.5 106.5v432h-295v108h295v555h-164q-127 0 -146.5 -55.5t-23.5 -89.5l-14 -127h-138l11 397h1276l10 -397h-137l-15 127q-9 74 -46 109.5t-124 35.5h-164v-555z" />
    <glyph glyph-name="tbar" unicode="&#x167;" horiz-adv-x="829" 
d="M43 1063q230 0 295 289h168v-254h264v-140h-264v-274h231v-109h-231v-251q0 -93 33 -136t103 -43t146 19v-133q-102 -51 -290 -51q-301 0 -301 323v272h-142v109h142v274h-154v105z" />
    <glyph glyph-name="Utilde" unicode="&#x168;" horiz-adv-x="1530" 
d="M1497 1354h-88q-50 0 -69 -18q-35 -34 -35 -115v-799q0 -324 -281 -412q-97 -30 -231 -30q-279 0 -423 111q-145 111 -145 355v783q-1 105 -65 121q-18 4 -39 4h-88v108h706v-108h-86q-50 0 -69 -18q-35 -34 -35 -115v-791q0 -240 179 -290q56 -16 125 -15q143 0 220 75
q78 75 78 226v803q0 105 -64 121q-19 4 -40 4h-86v108h536v-108zM652 1708q-91 0 -106 -108h-133q6 125 78 214t166 89q95 -1 197 -65q38 -24 72 -44t60 -20q90 0 105 108h133q-6 -126 -77 -215q-71 -88 -166 -88q-93 1 -195 65q-38 24 -72 44t-62 20z" />
    <glyph glyph-name="utilde" unicode="&#x169;" horiz-adv-x="1366" 
d="M664 154q186 0 186 311v393q0 116 -91 128q-27 4 -57 3h-6v109h465v-860q0 -114 82 -126q25 -4 55 -3h17v-109h-408l-45 145h-10q-82 -139 -230 -159q-46 -6 -94 -6q-160 0 -246 99t-85 306v459q0 86 -31 115q-31 30 -109 30h-4v109h455v-656q0 -141 26 -194
q26 -54 55 -74q30 -20 75 -20zM507 1370q-91 0 -106 -108h-133q6 125 78 214t166 89q94 -1 196 -65q38 -24 72 -44t61 -20q90 0 105 108h133q-6 -126 -77 -215q-71 -88 -166 -88q-94 1 -196 65q-38 24 -72 44t-61 20z" />
    <glyph glyph-name="Umacron" unicode="&#x16a;" horiz-adv-x="1530" 
d="M1497 1354h-88q-50 0 -69 -18q-35 -34 -35 -115v-799q0 -324 -281 -412q-97 -30 -231 -30q-279 0 -423 111q-145 111 -145 355v783q-1 105 -65 121q-18 4 -39 4h-88v108h706v-108h-86q-50 0 -69 -18q-35 -34 -35 -115v-791q0 -240 179 -290q56 -16 125 -15q143 0 220 75
q78 75 78 226v803q0 105 -64 121q-19 4 -40 4h-86v108h536v-108zM1120 1579h-594v162h594v-162z" />
    <glyph glyph-name="umacron" unicode="&#x16b;" horiz-adv-x="1366" 
d="M664 154q186 0 186 311v393q0 116 -91 128q-27 4 -57 3h-6v109h465v-860q0 -114 82 -126q25 -4 55 -3h17v-109h-408l-45 145h-10q-82 -139 -230 -159q-46 -6 -94 -6q-160 0 -246 99t-85 306v459q0 86 -31 115q-31 30 -109 30h-4v109h455v-656q0 -141 26 -194
q26 -54 55 -74q30 -20 75 -20zM954 1241h-594v162h594v-162z" />
    <glyph glyph-name="Ubreve" unicode="&#x16c;" horiz-adv-x="1530" 
d="M1497 1354h-88q-50 0 -69 -18q-35 -34 -35 -115v-799q0 -324 -281 -412q-97 -30 -231 -30q-279 0 -423 111q-145 111 -145 355v783q-1 105 -65 121q-18 4 -39 4h-88v108h706v-108h-86q-50 0 -69 -18q-35 -34 -35 -115v-791q0 -240 179 -290q56 -16 125 -15q143 0 220 75
q78 75 78 226v803q0 105 -64 121q-19 4 -40 4h-86v108h536v-108zM806 1761q161 0 193 140h136q-4 -129 -91 -225q-86 -97 -237 -97t-237 97t-91 225h135q31 -140 192 -140z" />
    <glyph glyph-name="ubreve" unicode="&#x16d;" horiz-adv-x="1366" 
d="M664 154q186 0 186 311v393q0 116 -91 128q-27 4 -57 3h-6v109h465v-860q0 -114 82 -126q25 -4 55 -3h17v-109h-408l-45 145h-10q-82 -139 -230 -159q-46 -6 -94 -6q-160 0 -246 99t-85 306v459q0 86 -31 115q-31 30 -109 30h-4v109h455v-656q0 -141 26 -194
q26 -54 55 -74q30 -20 75 -20zM670 1241q-151 0 -237 97t-91 225h135q33 -140 193 -140q161 0 192 140h136q-4 -129 -91 -225q-86 -97 -237 -97z" />
    <glyph glyph-name="Uring" unicode="&#x16e;" horiz-adv-x="1530" 
d="M1497 1354h-88q-50 0 -69 -18q-35 -34 -35 -115v-799q0 -324 -281 -412q-97 -30 -231 -30q-279 0 -423 111q-145 111 -145 355v783q-1 105 -65 121q-18 4 -39 4h-88v108h706v-108h-86q-50 0 -69 -18q-35 -34 -35 -115v-791q0 -240 179 -290q56 -16 125 -15q143 0 220 75
q78 75 78 226v803q0 105 -64 121q-19 4 -40 4h-86v108h536v-108zM901 1782q1 30 -9 51t-26 34t-39 19q-22 6 -47 6t-47 -6q-23 -6 -39 -19t-26 -34t-9 -51q-1 -30 9 -51t26 -35t39 -19q22 -6 47 -6t47 6q23 5 39 19t26 35t9 51zM780 1559q-106 0 -176 58t-70 165
q0 106 70 165q70 58 176 58t176 -58t70 -165q0 -106 -70 -165q-70 -58 -176 -58z" />
    <glyph glyph-name="uring" unicode="&#x16f;" horiz-adv-x="1366" 
d="M664 154q186 0 186 311v393q0 116 -91 128q-27 4 -57 3h-6v109h465v-860q0 -114 82 -126q25 -4 55 -3h17v-109h-408l-45 145h-10q-82 -139 -230 -159q-46 -6 -94 -6q-160 0 -246 99t-85 306v459q0 86 -31 115q-31 30 -109 30h-4v109h455v-656q0 -141 26 -194
q26 -54 55 -74q30 -20 75 -20zM774 1444q0 30 -10 51t-26 34t-38 19t-47 6t-47 -6t-38 -19t-26 -34t-10 -51t10 -51t26 -35t38 -19q22 -6 47 -6t47 6q22 5 38 19t26 35t10 51zM653 1221q-106 0 -176 58t-70 165q0 106 70 165q70 58 176 58t176 -58t70 -165q0 -106 -70 -165
q-70 -58 -176 -58z" />
    <glyph glyph-name="Uhungarumlaut" unicode="&#x170;" horiz-adv-x="1530" 
d="M1497 1354h-88q-50 0 -69 -18q-35 -34 -35 -115v-799q0 -324 -281 -412q-97 -30 -231 -30q-279 0 -423 111q-145 111 -145 355v783q-1 105 -65 121q-18 4 -39 4h-88v108h706v-108h-86q-50 0 -69 -18q-35 -34 -35 -115v-791q0 -240 179 -290q56 -16 125 -15q143 0 220 75
q78 75 78 226v803q0 105 -64 121q-19 4 -40 4h-86v108h536v-108zM1321 1907v-21q-59 -96 -243 -263q-28 -25 -50 -44h-141v27q124 195 174 301h260zM932 1907v-21q-58 -96 -242 -263q-28 -25 -51 -44h-142v27q110 165 174 301h261z" />
    <glyph glyph-name="uhungarumlaut" unicode="&#x171;" horiz-adv-x="1366" 
d="M664 154q186 0 186 311v393q0 116 -91 128q-27 4 -57 3h-6v109h465v-860q0 -114 82 -126q25 -4 55 -3h17v-109h-408l-45 145h-10q-82 -139 -230 -159q-46 -6 -94 -6q-160 0 -246 99t-85 306v459q0 86 -31 115q-31 30 -109 30h-4v109h455v-656q0 -141 26 -194
q26 -54 55 -74q30 -20 75 -20zM1166 1569v-21q-58 -96 -242 -263q-28 -25 -51 -44h-141v27q124 195 174 301h260zM777 1569v-21q-59 -96 -243 -263q-28 -25 -50 -44h-142v27q110 165 174 301h261z" />
    <glyph glyph-name="Uogonek" unicode="&#x172;" horiz-adv-x="1530" 
d="M945 -344q42 0 118 16v-131q-66 -33 -195 -33t-207 54t-78 159t74 183q47 49 109 76q-396 8 -502 252q-38 88 -39 214v783q-1 105 -65 121q-18 4 -39 4h-88v108h706v-108h-86q-50 0 -69 -18q-35 -34 -35 -115v-791q0 -240 179 -290q56 -16 125 -15q143 0 220 75
q78 75 78 226v803q0 105 -64 121q-19 4 -40 4h-86v108h536v-108h-88q-50 0 -69 -18q-35 -34 -35 -115v-799q0 -351 -328 -424q-118 -40 -167 -146q-18 -40 -18 -78t10 -58t30 -34q19 -14 45 -20t68 -6z" />
    <glyph glyph-name="uogonek" unicode="&#x173;" horiz-adv-x="1366" 
d="M1029 -344q42 0 118 16v-131q-66 -33 -195 -33t-207 54t-78 159t72 180t168 99l-45 145h-10q-82 -139 -230 -159q-46 -6 -94 -6q-160 0 -246 99t-85 306v459q0 86 -31 115q-31 30 -109 30h-4v109h455v-656q0 -141 26 -194q26 -54 55 -74q30 -20 75 -20q186 0 186 311v393
q0 116 -91 128q-27 4 -57 3h-6v109h465v-860q0 -114 82 -126q25 -4 55 -3h17v-109h-248q-122 -38 -173 -148q-18 -40 -18 -78t10 -58t30 -34q19 -14 45 -20t68 -6z" />
    <glyph glyph-name="Wcircumflex" unicode="&#x174;" horiz-adv-x="2185" 
d="M637 1354q-123 0 -123 -99q0 -36 21 -110l137 -473q68 -240 80 -342q18 83 65 241l270 877h150l283 -782q73 -195 100 -340q8 37 17 82q34 172 65 297l108 442q19 75 19 119q0 88 -131 88h-47v108h534v-108h-39q-64 0 -96 -31t-59 -129l-318 -1194h-233l-344 961
l-295 -961h-254l-375 1245q-17 61 -51 85q-33 24 -94 24h-27v108h684v-108h-47zM792 1579v27q24 29 56 67q132 154 170 234h276q36 -76 169 -234q32 -38 56 -67v-27h-141q-189 153 -223 184q-49 -45 -221 -184h-142z" />
    <glyph glyph-name="wcircumflex" unicode="&#x175;" horiz-adv-x="1753" 
d="M1436 889q0 100 -136 100h-14v109h469v-109h-26q-62 0 -93 -31q-30 -31 -61 -129l-264 -829h-221l-224 680l-235 -680h-223l-263 881q-22 63 -53 86q-32 22 -92 22h-6v109h600v-109h-27q-63 1 -93 -17t-30 -55t17 -102l76 -266q41 -153 61 -281h6q16 89 66 236l209 583
h133l200 -604q32 -94 54 -215h6q22 115 55 219l90 299q19 62 19 103zM555 1241v27q25 29 57 67q132 154 169 234h276q36 -76 169 -234q32 -38 56 -67v-27h-141q-189 153 -223 184q-49 -45 -221 -184h-142z" />
    <glyph glyph-name="Ycircumflex" unicode="&#x176;" horiz-adv-x="1419" 
d="M1065 1253q0 101 -135 101h-47v108h536v-108h-39q-50 0 -77 -30t-78 -130l-348 -678v-280q-1 -114 69 -124q20 -3 45 -3h101v-109h-756v109h96q60 -1 80 15q39 30 39 109v285l-379 727q-32 64 -61 87q-29 22 -84 22h-27v108h686v-108h-35q-63 0 -93 -25t-30 -69t31 -111
l152 -301q52 -105 90 -213q49 127 110 250l119 245q35 72 35 123zM356 1579v27q24 29 56 67q132 154 170 234h276q36 -76 169 -234q32 -38 56 -67v-27h-141q-189 153 -223 184q-49 -45 -221 -184h-142z" />
    <glyph glyph-name="ycircumflex" unicode="&#x177;" horiz-adv-x="1186" 
d="M1186 1098v-109q-63 0 -98 -32t-68 -126q-34 -93 -73 -199t-79 -212t-78 -212q-40 -106 -76 -206t-69 -176q-31 -75 -67 -130q-69 -107 -177 -148q-107 -40 -311 -40h-35v119q287 0 395 215q34 67 58 148l-369 901q-31 75 -96 83q-20 2 -43 3v121h584v-109q-60 1 -94 -15
t-35 -53q0 -37 19 -83q38 -94 69 -177q30 -83 59 -162q64 -175 72 -257q6 60 24 108l21 56l135 401q20 51 20 99t-39 66t-110 17v109h461zM241 1241v27q25 29 57 67q132 154 169 234h276q36 -76 169 -234q32 -38 56 -67v-27h-141q-189 153 -223 184q-49 -45 -221 -184h-142z
" />
    <glyph glyph-name="Ydieresis" unicode="&#x178;" horiz-adv-x="1419" 
d="M1065 1253q0 101 -135 101h-47v108h536v-108h-39q-50 0 -77 -30t-78 -130l-348 -678v-280q-1 -114 69 -124q20 -3 45 -3h101v-109h-756v109h96q60 -1 80 15q39 30 39 109v285l-379 727q-32 64 -61 87q-29 22 -84 22h-27v108h686v-108h-35q-63 0 -93 -25t-30 -69t31 -111
l152 -301q52 -105 90 -213q49 127 110 250l119 245q35 72 35 123zM957 1620q-136 0 -136 128q0 66 34 96t73 30q67 0 102 -31t35 -80q0 -80 -35 -112q-35 -31 -73 -31zM401 1748q0 34 10 58q11 24 27 40t38 22t46 6q53 0 88 -31t35 -80q-1 -51 -11 -75t-27 -39t-39 -22
t-46 -7t-46 7t-38 22t-27 39q-10 26 -10 60z" />
    <glyph glyph-name="Zacute" unicode="&#x179;" horiz-adv-x="1364" 
d="M901 125q163 -1 201 129q10 36 14 76l10 92h148l-10 -422h-1178v102l768 1235h-403q-129 1 -155 -109q-8 -34 -13 -77l-11 -111h-147l10 422h1094v-104l-770 -1233h442zM1057 1907v-21q-61 -86 -275 -238q-58 -42 -106 -69h-139v27q148 196 198 301h322z" />
    <glyph glyph-name="zacute" unicode="&#x17a;" horiz-adv-x="1083" 
d="M754 139q60 0 88 36t47 130l12 66h121l-10 -371h-975v84l604 874h-299q-46 0 -71 -30q-24 -30 -46 -113l-12 -49h-123l25 332h884v-88l-606 -871h361zM936 1569v-21q-60 -86 -274 -238q-58 -42 -107 -69h-139v27q148 196 198 301h322z" />
    <glyph glyph-name="Zdotaccent" unicode="&#x17b;" horiz-adv-x="1364" 
d="M901 125q163 -1 201 129q10 36 14 76l10 92h148l-10 -422h-1178v102l768 1235h-403q-129 1 -155 -109q-8 -34 -13 -77l-11 -111h-147l10 422h1094v-104l-770 -1233h442zM696 1915q197 0 197 -147q0 -108 -109 -139q-32 -9 -68 -9t-68 9t-54 27q-24 18 -38 46t-13 66
q0 74 48 111q49 36 105 36z" />
    <glyph glyph-name="zdotaccent" unicode="&#x17c;" horiz-adv-x="1083" 
d="M754 139q60 0 88 36t47 130l12 66h121l-10 -371h-975v84l604 874h-299q-46 0 -71 -30q-24 -30 -46 -113l-12 -49h-123l25 332h884v-88l-606 -871h361zM561 1577q197 0 197 -147q0 -108 -109 -139q-32 -9 -68 -9q-35 0 -67 9t-56 27t-36 46q-14 28 -14 66q0 74 48 111
q49 36 105 36z" />
    <glyph glyph-name="Zcaron" unicode="&#x17d;" horiz-adv-x="1364" 
d="M901 125q163 -1 201 129q10 36 14 76l10 92h148l-10 -422h-1178v102l768 1235h-403q-129 1 -155 -109q-8 -34 -13 -77l-11 -111h-147l10 422h1094v-104l-770 -1233h442zM1065 1907v-27q-24 -29 -56 -67q-136 -161 -169 -234h-276q-36 77 -170 234q-32 38 -56 67v27h142
q162 -131 221 -185q43 39 223 185h141z" />
    <glyph glyph-name="zcaron" unicode="&#x17e;" horiz-adv-x="1083" 
d="M754 139q60 0 88 36t47 130l12 66h121l-10 -371h-975v84l604 874h-299q-46 0 -71 -30q-24 -30 -46 -113l-12 -49h-123l25 332h884v-88l-606 -871h361zM935 1569v-27q-24 -29 -56 -67q-136 -161 -169 -234h-276q-36 77 -170 234q-32 38 -56 67v27h142q162 -131 221 -185
q43 39 223 185h141z" />
    <glyph glyph-name="longs" unicode="&#x17f;" horiz-adv-x="803" 
d="M516 242q0 -133 146 -133h96v-109h-744v109h45q146 0 146 133v932q0 401 418 401q342 0 342 -150q0 -133 -252 -133q0 103 -37 134.5t-64 31.5q-53 0 -74.5 -58t-21.5 -190v-968z" />
    <glyph glyph-name="florin" unicode="&#x192;" 
d="M932 1153q0 213 -84 213q-47 0 -71 -53t-50 -187l-39 -206h262l-26 -142h-262q-52 -261 -86.5 -442.5t-64.5 -334.5q-55 -280 -176 -386.5t-323 -106.5q-100 0 -186 27l31 129q81 -29 136 -29q54 0 82 18.5t58.5 76t69.5 258.5l151 790h-202l26 142h201q9 48 19.5 96
t23.5 116q31 162 138 256.5t317 94.5t250 -64.5t40 -165t-235 -100.5z" />
    <glyph glyph-name="Ohorn" unicode="&#x1a0;" horiz-adv-x="1726" 
d="M809 1352q-352 0 -352 -620t349 -619q349 -1 349 619t-346 620zM1544 1257q0 39 -56 83t-56 114q0 123 137 123q70 0 113.5 -53.5t43.5 -143.5q0 -227 -274 -336q47 -139 47 -311q0 -348 -184.5 -550.5t-513.5 -202.5t-508.5 199t-179.5 556t180.5 553.5t515.5 196.5
q433 0 606 -352q129 52 129 124z" />
    <glyph glyph-name="ohorn" unicode="&#x1a1;" horiz-adv-x="1372" 
d="M414 553q0 -444 214 -444t214 442t-215 442q-112 0 -162.5 -102.5t-50.5 -337.5zM1180 960q0 48 -56.5 88.5t-56.5 114.5q0 123 137 123q71 0 114.5 -53t43.5 -143q0 -207 -229 -318q26 -106 26 -219q0 -573 -534 -573q-254 0 -391.5 146.5t-137.5 426.5q0 571 535 571
q344 0 467 -260q82 48 82 96z" />
    <glyph glyph-name="Uhorn" unicode="&#x1af;" horiz-adv-x="1747" 
d="M1305 1462v-350q239 24 239 145q0 39 -56 83t-56 114q0 123 137 123q70 0 113.5 -53.5t43.5 -143.5q0 -144 -113.5 -244.5t-307.5 -117.5v-596q0 -442 -512 -442q-568 0 -568 466v783q0 125 -104 125h-88v108h706v-108h-86q-104 0 -104 -133v-791q0 -305 305 -305
q297 0 297 301v803q0 125 -104 125h-86v108h344z" />
    <glyph glyph-name="uhorn" unicode="&#x1b0;" horiz-adv-x="1593" 
d="M528 -20q-331 0 -331 405v459q0 79 -27.5 112t-112.5 33h-4v109h455v-656q0 -288 156 -288q186 0 186 311v393q0 62 -26.5 96.5t-121.5 34.5h-6v109h465v-277q240 24 240 146q0 41 -56.5 81.5t-56.5 114.5q0 123 137 123q70 0 114 -52t44 -144q0 -144 -113 -244
t-309 -119v-489q0 -61 23 -95t114 -34h17v-109h-408l-45 145h-10q-92 -165 -324 -165z" />
    <glyph glyph-name="uni01F0" unicode="&#x1f0;" horiz-adv-x="707" 
d="M516 1098v-1114q0 -378 -290 -453q-89 -23 -195 -23h-39v127h12q101 0 151 82t50 283v854q0 114 -101 130q-30 4 -63 5h-6v109h481zM685 1569v-27q-24 -29 -56 -67q-136 -161 -169 -234h-276q-36 77 -170 234q-32 38 -56 67v27h142q162 -131 221 -185q43 39 223 185h141z
" />
    <glyph glyph-name="Aringacute" unicode="&#x1fa;" horiz-adv-x="1542" 
d="M793 1536q-136 0 -136 -111q0 -56 32.5 -82t78.5 -28h20q47 2 79 28t32 69q0 69 -33.5 96.5t-72.5 27.5zM1159 1962v-16q-61 -71 -197 -147.5t-184 -98.5h-139v20q161 176 199 242h321zM795 848q-52 146 -86 287q-23 -72 -28 -85l-32 -87q-27 -75 -39 -107l-114 -299h403
zM614 1249q-82 63 -82 172q0 110 69.5 169t176.5 59t176.5 -59t69.5 -167t-78 -170l404 -1011q29 -74 67 -103.5t88 -29.5h37v-109h-676v109h80q56 0 72 27.5t16 57.5t-16 70l-66 168h-506l-55 -141q-29 -74 -29 -100q0 -40 27.5 -61t65.5 -21h86v-109h-533v109h25
q58 0 94 28t70 107z" />
    <glyph glyph-name="aringacute" unicode="&#x1fb;" horiz-adv-x="1227" 
d="M604 1309q135 0 135 83t-33.5 110.5t-72.5 27.5q-135 0 -135 -84t33.5 -110.5t72.5 -26.5zM864 1420q0 -106 -69 -165t-177 -59q-169 0 -207 85t-38 139q0 105 69 163.5t176 58.5q169 0 207.5 -84t38.5 -138zM455 778q-277 0 -277 128q0 116 117.5 167t264.5 51
q148 0 228.5 -18.5t161 -80t80.5 -249.5v-522q0 -83 26.5 -114t96.5 -31h8v-109h-381l-43 141h-18q-76 -91 -135 -126t-149 -35q-164 0 -253.5 85.5t-89.5 249.5q0 165 114.5 245t344.5 87l168 6v113q0 118 -17 158.5t-42.5 57.5t-67.5 17q-137 0 -137 -221zM410 305
q0 -176 116 -176q87 0 140 70.5t53 191.5v154l-92 -6q-173 -8 -195 -93t-22 -141zM995 1962v-16q-61 -70 -197 -147t-184 -99h-139v20q150 157 199 242h321z" />
    <glyph glyph-name="AEacute" unicode="&#x1fc;" horiz-adv-x="2034" 
d="M944 592v745h-20l-385 -745h405zM354 188q0 -79 123 -79h35v-109h-512v109h25q53 1 95 39t87 120l575 1075l-135 11v108h1243l8 -377h-143l-10 97q-8 75 -38 115t-93 40h-344v-512h485v-123h-485v-577h409q108 0 131 156l17 96h141l-14 -377h-1200v109h86q104 0 104 122
v238h-471l-86 -172q-33 -62 -33 -109zM1636 1907v-21q-60 -86 -274 -238q-58 -42 -107 -69h-139v27q148 196 198 301h322z" />
    <glyph glyph-name="aeacute" unicode="&#x1fd;" horiz-adv-x="1792" 
d="M455 778q-277 0 -277 128q0 218 441 218q206 0 307 -116q122 116 301 116q227 0 353 -126t126 -367v-105h-672q11 -393 275 -393q203 0 288 166q56 -30 56 -100q0 -94 -102 -157q-102 -62 -298 -62q-301 0 -436 196q-131 -196 -403 -196q-223 0 -297 186q-25 62 -25 147
q0 167 114 247t345 87l168 6v113q0 118 -17 158q-16 41 -42 58t-68 17q-137 0 -137 -221zM1393 657q0 334 -162 334q-85 0 -137 -85t-56 -249h355zM410 305q0 -176 116 -176q87 1 140 71t53 191v154l-92 -6q-173 -8 -206 -136q-11 -42 -11 -98zM1335 1569v-21
q-61 -86 -275 -238q-58 -42 -106 -69h-139v27q148 196 198 301h322z" />
    <glyph glyph-name="Oslashacute" unicode="&#x1fe;" horiz-adv-x="1612" 
d="M807 113q271 0 329 358q18 115 19 252q0 265 -57 418l-506 -944q80 -84 215 -84zM809 1352q-274 0 -333 -357q-19 -115 -19 -253q0 -272 59 -418l506 942q-78 86 -213 86zM1499 733q0 -345 -182 -549t-510 -204q-173 0 -303 53l-62 -115h-145l94 174q-278 191 -278 643
q0 350 177 550t519 200q164 0 301 -58l64 119h143l-96 -178q278 -196 278 -635zM1186 1907v-21q-60 -86 -274 -238q-58 -42 -107 -69h-139v27q148 196 198 301h322z" />
    <glyph glyph-name="oslashacute" unicode="&#x1ff;" horiz-adv-x="1255" 
d="M842 526q0 142 -13 224l-348 -566q51 -75 148 -75q213 -1 213 417zM425 746q-11 -82 -11 -207q0 -124 14 -203l352 571q-52 86 -153 86q-169 1 -202 -247zM1159 553q0 -573 -534 -573q-138 0 -242 43l-66 -105h-145l102 168q-178 147 -178 467q0 571 535 571
q148 0 254 -49l65 105h144l-105 -172q170 -149 170 -455zM1024 1569v-21q-60 -86 -274 -238q-58 -42 -107 -69h-139v27q148 196 198 301h322z" />
    <glyph glyph-name="Scommaaccent" unicode="&#x218;" horiz-adv-x="1200" 
d="M164 73q-102 76 -103 183q0 107 66 154t166 47q0 -170 77 -263q77 -92 198 -92q122 0 190 62q69 62 69 161q0 98 -75 159t-224 123q-150 63 -224 109t-118 100q-84 101 -84 255q0 185 141 298q141 114 359 114t328 -66t110 -178t-142 -151q-48 -13 -110 -13
q0 104 -55 194q-55 89 -162 89q-138 0 -186 -108q-16 -36 -16 -80q0 -93 69 -160t274 -151q205 -83 295 -181q91 -98 91 -250q0 -201 -153 -324q-153 -124 -409 -124q-246 0 -372 93zM719 -125v-20q-60 -136 -195 -308h-123v27q59 184 80 301h238z" />
    <glyph glyph-name="scommaaccent" unicode="&#x219;" horiz-adv-x="999" 
d="M470 -20q-210 0 -309 65q-100 65 -100 163q0 167 191 167q0 -127 61 -201t160 -74q150 0 191 86q12 26 12 57q0 64 -54 107q-54 44 -167 83q-206 72 -290 152q-83 79 -83 225q0 147 118 230q118 82 310 82t282 -56q89 -56 89 -130q-1 -73 -49 -109t-160 -36
q0 103 -46 159t-145 56t-141 -72q-14 -24 -14 -56q0 -66 57 -108q57 -43 174 -83q117 -41 175 -71q186 -99 186 -276q0 -260 -256 -336q-84 -24 -192 -24zM632 -125v-20q-60 -136 -195 -308h-123v27q59 184 80 301h238z" />
    <glyph glyph-name="Tcommaaccent" unicode="&#x21a;" horiz-adv-x="1337" 
d="M831 242q0 -112 64 -128q19 -4 41 -5h86v-109h-707v109h86q53 1 71 19q34 34 34 114v1095h-164q-126 0 -156 -84q-10 -27 -14 -61l-14 -127h-138l11 397h1276l10 -397h-137l-15 127q-9 74 -35 100q-48 45 -135 45h-164v-1095zM801 -125v-20q-60 -136 -195 -308h-123v27
q59 184 80 301h238z" />
    <glyph glyph-name="tcommaaccent" unicode="&#x21b;" horiz-adv-x="829" 
d="M43 1063q230 0 295 289h170v-254h262v-140h-262v-634q0 -93 32 -136t102 -43t146 19v-133q-102 -51 -290 -51q-301 0 -301 323v655h-154v105zM583 -125v-20q-60 -136 -195 -308h-123v27q59 184 80 301h238z" />
    <glyph glyph-name="uni02BC" unicode="&#x2bc;" horiz-adv-x="573" 
d="M459 1257q0 -322 -367 -421v106q94 34 126 59q54 45 54 101q0 29 -28 48q-28 18 -46 30q-74 44 -75 140q0 70 42 106t117 36t126 -60t51 -145z" />
    <glyph glyph-name="circumflex" unicode="&#x2c6;" horiz-adv-x="1182" 
d="M227 1241v27q24 29 106.5 125t119.5 176h276q36 -76 118.5 -174t106.5 -127v-27h-141q-189 153 -223 184q-49 -45 -221 -184h-142z" />
    <glyph glyph-name="caron" unicode="&#x2c7;" horiz-adv-x="1182" 
d="M954 1569v-27q-24 -29 -108 -128.5t-117 -172.5h-276q-35 77 -118.5 174.5t-107.5 126.5v27h142q162 -131 221 -185q43 39 223 185h141z" />
    <glyph glyph-name="macron" unicode="&#x2c9;" horiz-adv-x="1024" 
d="M809 1241h-594v162h594v-162z" />
    <glyph glyph-name="breve" unicode="&#x2d8;" horiz-adv-x="1182" 
d="M590 1241q-151 0 -237.5 96.5t-90.5 225.5h135q33 -140 193 -140q161 0 192 140h136q-4 -129 -90.5 -225.5t-237.5 -96.5z" />
    <glyph glyph-name="dotaccent" unicode="&#x2d9;" horiz-adv-x="666" 
d="M319 1577q197 0 197 -147q0 -108 -70.5 -128t-106.5 -20t-67.5 9t-55 27t-37 46t-13.5 66q0 74 48.5 110.5t104.5 36.5z" />
    <glyph glyph-name="ring" unicode="&#x2da;" horiz-adv-x="682" 
d="M461 1444q0 30 -9.5 51t-26 34t-38.5 19t-47 6t-47 -6t-38.5 -19t-26 -34t-9.5 -51t9.5 -51t26 -34.5t38.5 -19.5t47 -6t47 6t38.5 19.5t26 34.5t9.5 51zM340 1221q-106 0 -176 58.5t-70 164.5t70 164.5t176 58.5t176 -58.5t70 -164.5t-70 -164.5t-176 -58.5z" />
    <glyph glyph-name="ogonek" unicode="&#x2db;" horiz-adv-x="1024" 
d="M673 -344q42 0 118 16v-131q-66 -33 -195 -33t-207 54t-78 159t72.5 180.5t169.5 98.5h158q-122 -38 -156.5 -113t-34.5 -113t10.5 -58.5t29.5 -33.5t45 -19.5t68 -6.5z" />
    <glyph glyph-name="tilde" unicode="&#x2dc;" horiz-adv-x="1182" 
d="M423 1370q-91 0 -106 -108h-133q6 125 78 214t166.5 89t164.5 -44.5t103.5 -64.5t60.5 -20q90 0 105 108h133q-6 -126 -77.5 -214.5t-165.5 -88.5t-164 44.5t-103.5 64.5t-61.5 20z" />
    <glyph glyph-name="hungarumlaut" unicode="&#x2dd;" horiz-adv-x="1182" 
d="M1012 1569v-21q-59 -96 -164.5 -192t-128.5 -115h-141v27q124 195 174 301h260zM623 1569v-21q-58 -96 -164 -192t-129 -115h-142v27q110 165 174 301h261z" />
    <glyph glyph-name="uni02F3" unicode="&#x2f3;" horiz-adv-x="682" 
d="M461 -348q0 30 -9.5 51t-26 34t-38.5 19t-47 6t-47 -6t-38.5 -19t-26 -34t-9.5 -51t9.5 -51t26 -34.5t38.5 -19.5t47 -6t47 6t38.5 19.5t26 34.5t9.5 51zM340 -571q-106 0 -176 58.5t-70 164.5t70 164.5t176 58.5t176 -58.5t70 -164.5t-70 -164.5t-176 -58.5z" />
    <glyph glyph-name="uni0300" unicode="&#x300;" horiz-adv-x="0" 
d="M-421 1241h-139q-158 91 -318 239q-44 40 -63 68v21h321q48 -102 199 -301v-27z" />
    <glyph glyph-name="uni0301" unicode="&#x301;" horiz-adv-x="0" 
d="M-241 1569v-21q-61 -86 -275 -238q-58 -42 -106 -69h-139v27q148 196 198 301h322z" />
    <glyph glyph-name="uni0303" unicode="&#x303;" horiz-adv-x="0" 
d="M-817 1370q-91 0 -106 -108h-133q6 125 78 214t166 89q94 -1 196 -65q38 -24 72 -44t61 -20q90 0 105 108h133q-6 -126 -77 -215q-71 -88 -166 -88q-94 1 -196 65q-38 24 -72 44t-61 20z" />
    <glyph glyph-name="hook" unicode="&#x309;" horiz-adv-x="0" 
d="M-573 1488q0 92 -80 91q-69 0 -99 -76q-90 0 -90 74q0 52 60 82.5t139 30.5q252 0 252 -189q0 -143 -160 -182l-8 -111h-129l-14 164q129 24 129 116z" />
    <glyph glyph-name="uni030F" unicode="&#x30f;" horiz-adv-x="0" 
d="M-1106 1569h260q53 -113 174 -301v-27h-141q-203 171 -293 307v21zM-717 1569h260q53 -113 174 -301v-27h-141q-203 171 -293 307v21z" />
    <glyph glyph-name="dotbelow" unicode="&#x323;" horiz-adv-x="0" 
d="M-611 -121q175 1 175 -147t-175 -148t-175 148t175 147z" />
    <glyph glyph-name="tonos" unicode="&#x384;" horiz-adv-x="1182" 
d="M809 1569v-21q-49 -113 -215 -307h-143v27q57 177 79 301h279z" />
    <glyph glyph-name="dieresistonos" unicode="&#x385;" horiz-adv-x="1182" 
d="M847 1282q-136 0 -136 128q0 66 34.5 96t72.5 30q67 0 101.5 -30.5t34.5 -80.5q0 -82 -34.5 -112.5t-72.5 -30.5zM209 1410q0 34 10 58.5t26.5 39.5t38.5 21.5t60.5 6.5t73.5 -31t35 -80q0 -50 -10.5 -74.5t-27.5 -39.5t-39 -22t-46 -7t-46 7t-38.5 22t-26.5 40t-10 59z
M805 1737v-21q-59 -134 -195 -307h-123v27q59 184 80 301h238z" />
    <glyph glyph-name="Alphatonos" unicode="&#x386;" horiz-adv-x="1542" 
d="M795 942q-61 193 -86 307q-17 -60 -39 -121l-34 -101q-14 -39 -26 -75l-121 -346h414zM390 129q28 -20 65 -20h86v-109h-533v109h25q58 0 94 30t70 119l444 1204h281l428 -1206q29 -84 66 -116q37 -31 89 -31h37v-109h-676v109h80q57 0 80 43q8 15 8 44t-18 80l-72 205
h-498l-59 -176q-25 -78 -25 -117t28 -59zM450 1464v-21q-49 -113 -215 -307h-143v27q57 177 79 301h279z" />
    <glyph glyph-name="anoteleia" unicode="&#x387;" horiz-adv-x="623" 
d="M311 563q-168 0 -168 164t168 164t168 -164t-168 -164z" />
    <glyph glyph-name="Epsilontonos" unicode="&#x388;" horiz-adv-x="1587" 
d="M823 125h410q108 0 131 156l16 96h142l-15 -377h-1200v109h86q51 1 70 17q35 30 35 105v990q0 115 -63 129q-19 4 -42 4h-86v108h1137l8 -377h-143l-10 97q-8 75 -38 115t-93 40h-345v-512h486v-123h-486v-577zM280 1464v-21q-49 -113 -215 -307h-143v27q57 177 79 301
h279z" />
    <glyph glyph-name="Etatonos" unicode="&#x389;" horiz-adv-x="1927" 
d="M1163 0v109h88q51 1 70 19q35 34 35 114v458h-535v-458q0 -112 64 -128q19 -4 41 -5h88v-109h-707v109h86q51 1 70 19q35 34 35 114v986q0 104 -65 120q-19 4 -40 5h-86v109h707v-109h-88q-52 -1 -70 -19q-36 -36 -35 -114v-395h535v395q0 112 -64 128q-19 4 -41 5h-88
v109h707v-109h-86q-50 -1 -69 -19q-35 -34 -35 -114v-989q0 -104 64 -118q18 -4 40 -4h86v-109h-707zM280 1464v-21q-49 -113 -215 -307h-143v27q57 177 79 301h279z" />
    <glyph glyph-name="Iotatonos" unicode="&#x38a;" horiz-adv-x="1071" 
d="M307 0v109h86q53 1 71 19q34 34 34 114v978q0 114 -63 128q-19 4 -42 5h-86v109h707v-109h-86q-52 -1 -70 -19q-34 -34 -35 -114v-978q-1 -114 63 -128q20 -4 42 -5h86v-109h-707zM280 1464v-21q-49 -113 -215 -307h-143v27q57 177 79 301h279z" />
    <glyph glyph-name="Omicrontonos" unicode="&#x38c;" horiz-adv-x="1647" 
d="M492 733q0 -305 83 -463q83 -157 267 -157q272 0 330 358q18 115 18 262q0 305 -81 462t-265 157q-274 0 -333 -357q-19 -115 -19 -262zM1352 184q-182 -204 -517 -204t-511 202t-176 553q0 350 177 550t511 200q335 0 517 -203q181 -203 181 -549q0 -345 -182 -549z
M280 1464v-21q-49 -113 -215 -307h-143v27q57 177 79 301h279z" />
    <glyph glyph-name="Upsilontonos" unicode="&#x38e;" horiz-adv-x="1720" 
d="M1366 1253q0 101 -135 101h-47v108h536v-108h-39q-50 0 -77 -30t-78 -130l-348 -678v-280q0 -114 70 -124q20 -3 44 -3h101v-109h-756v109h96q60 -1 80 15q39 30 39 109v285l-379 727q-32 64 -61 87q-29 22 -84 22h-27v108h686v-108h-35q-62 0 -92 -25t-31 -69
q0 -44 31 -111l152 -301q52 -105 90 -213q49 127 110 250l119 245q35 72 35 123zM280 1464v-21q-49 -113 -215 -307h-143v27q57 177 79 301h279z" />
    <glyph glyph-name="Omegatonos" unicode="&#x38f;" horiz-adv-x="1718" 
d="M194 922q0 262 177 412q177 151 515 151t519 -152q182 -152 182 -411q0 -217 -127 -352t-375 -179l-4 -172h205q105 1 140 23q36 22 50 46t23 58l16 68h113l-15 -414h-661l14 494q208 26 252 259q14 75 14 173t-18 178t-58 135t-106 84q-64 29 -158 29q-183 0 -264 -109
q-82 -109 -82 -321q0 -293 143 -386q51 -33 124 -42l14 -494h-660l-14 410h113l16 -68q21 -101 121 -120q37 -7 90 -7h207l-6 178q-248 44 -374 179t-126 350zM280 1464v-21q-49 -113 -215 -307h-143v27q57 177 79 301h279z" />
    <glyph glyph-name="iotadieresistonos" unicode="&#x390;" horiz-adv-x="805" 
d="M190 297v801h310v-762q0 -100 33 -146t103 -45q70 0 150 15v-137q-93 -43 -256 -43q-254 0 -317 168q-23 61 -23 149zM658 1282q-136 0 -136 128q0 66 34 96t73 30q67 0 102 -30q34 -30 34 -81q0 -82 -35 -112q-34 -31 -72 -31zM20 1410q0 34 10 58t26 40t39 22
q22 6 46 6q53 0 88 -31t35 -80q0 -51 -10 -75t-28 -39q-17 -15 -39 -22t-46 -7t-46 7q-23 7 -39 22t-26 39q-10 26 -10 60zM616 1737v-21q-59 -134 -195 -307h-123v27q59 184 80 301h238z" />
    <glyph glyph-name="Alpha" unicode="&#x391;" horiz-adv-x="1542" 
d="M795 942q-61 193 -86 307q-17 -60 -39 -121l-34 -101q-14 -39 -26 -75l-121 -346h414zM390 129q28 -20 65 -20h86v-109h-533v109h25q58 0 94 30t70 119l444 1204h281l428 -1206q29 -84 66 -116q37 -31 89 -31h37v-109h-676v109h80q57 0 80 43q8 15 8 44t-18 80l-72 205
h-498l-59 -176q-25 -78 -25 -117t28 -59z" />
    <glyph glyph-name="Beta" unicode="&#x392;" horiz-adv-x="1376" 
d="M571 827h78q140 0 194 60t54 200q0 141 -56 195q-56 55 -196 55h-74v-510zM571 125h136q137 -1 194 63t57 220t-56 225t-191 69h-140v-577zM1303 401q0 -401 -586 -401h-660v109h84q53 1 71 19q36 36 36 114v981q0 107 -66 125q-20 6 -41 6h-84v108h598q292 0 439 -90
t147 -278q-1 -188 -153 -272q-48 -26 -105 -44v-10q229 -58 297 -232q24 -60 23 -135z" />
    <glyph glyph-name="Gamma" unicode="&#x393;" horiz-adv-x="1210" 
d="M854 1337h-281v-1104q0 -107 42 -115.5t63 -8.5h127v-109h-748v109h86q52 0 78.5 26.5t26.5 106.5v979q0 114 -41 123.5t-64 9.5h-86v108h1119l14 -401h-115l-24 98q-23 89 -68.5 133.5t-128.5 44.5z" />
    <glyph glyph-name="uni0394" unicode="&#x394;" horiz-adv-x="1434" 
d="M1016 162l-264 770q-74 218 -101 336q-17 -83 -96 -318l-272 -788h733zM1333 0h-1233v133l480 1329h292l461 -1315v-147z" />
    <glyph glyph-name="Epsilon" unicode="&#x395;" horiz-adv-x="1337" 
d="M573 125h410q108 0 131 156l16 96h142l-15 -377h-1200v109h86q51 1 70 17q35 30 35 105v990q0 115 -63 129q-19 4 -42 4h-86v108h1137l8 -377h-143l-10 97q-8 75 -38 115t-93 40h-345v-512h486v-123h-486v-577z" />
    <glyph glyph-name="Zeta" unicode="&#x396;" horiz-adv-x="1364" 
d="M901 125q163 -1 201 129q10 36 14 76l10 92h148l-10 -422h-1178v102l768 1235h-403q-129 1 -155 -109q-8 -34 -13 -77l-11 -111h-147l10 422h1094v-104l-770 -1233h442z" />
    <glyph glyph-name="Eta" unicode="&#x397;" horiz-adv-x="1677" 
d="M913 0v109h88q51 1 70 19q35 34 35 114v458h-535v-458q0 -112 64 -128q19 -4 41 -5h88v-109h-707v109h86q51 1 70 19q35 34 35 114v986q0 104 -65 120q-19 4 -40 5h-86v109h707v-109h-88q-52 -1 -70 -19q-36 -36 -35 -114v-395h535v395q0 112 -64 128q-19 4 -41 5h-88
v109h707v-109h-86q-50 -1 -69 -19q-35 -34 -35 -114v-989q0 -104 64 -118q18 -4 40 -4h86v-109h-707z" />
    <glyph glyph-name="Theta" unicode="&#x398;" horiz-adv-x="1612" 
d="M457 654q0 -226 83 -383.5t267 -157.5q272 0 310 236.5t38 462.5t-81 383t-265 157q-274 0 -313 -236t-39 -462zM1316.5 184q-182.5 -204 -516.5 -204q-335 0 -511 202.5t-176 552.5t176.5 550t511.5 200t516.5 -203t181.5 -549q0 -345 -182.5 -549zM809 809
q110 0 129 36.5t25 57.5l10 39h106v-391h-106l-10 39q-14 49 -45.5 71.5t-108.5 22.5h-10q-84 0 -107 -18.5t-30 -36t-13 -39.5l-10 -39h-107v391h107l10 -39q14 -52 40 -73t110 -21h10z" />
    <glyph glyph-name="Iota" unicode="&#x399;" horiz-adv-x="821" 
d="M57 0v109h86q53 1 71 19q34 34 34 114v978q0 114 -63 128q-19 4 -42 5h-86v109h707v-109h-86q-52 -1 -70 -19q-34 -34 -35 -114v-978q-1 -114 63 -128q20 -4 42 -5h86v-109h-707z" />
    <glyph glyph-name="Kappa" unicode="&#x39a;" horiz-adv-x="1503" 
d="M1006 1302q0 54 -115 54v106h555v-106q-111 0 -224 -107q-35 -33 -71 -73l-270 -297l381 -605q83 -133 170 -157q29 -8 63 -8h8v-109h-110q-223 0 -317 46q-59 28 -89 69t-49 73l-276 471l-91 -71v-346q0 -114 65 -128q20 -4 42 -5h86v-109h-707v109h86q51 1 70 17
q35 30 35 105v998q0 105 -64 121q-19 4 -41 4h-86v108h707v-108h-86q-54 0 -72 -18q-36 -36 -35 -115v-478l318 347q94 99 111 163q6 21 6 49z" />
    <glyph glyph-name="Lambda" unicode="&#x39b;" horiz-adv-x="1430" 
d="M340 178q0 -69 82 -69h106v-109h-528v109h98q29 0 49 30t50 119l417 1204h205l436 -1255q34 -98 127 -98h48v-109h-676v109h94q80 0 80 67q0 42 -19 88l-209 631q-47 154 -57 248q-12 -68 -68 -242l-210 -622q-25 -69 -25 -101z" />
    <glyph glyph-name="Mu" unicode="&#x39c;" horiz-adv-x="1950" 
d="M1237 0v109h20q70 0 92 16q37 28 37 98v1037l-413 -1260h-139l-433 1260v-1018q0 -114 88 -128q28 -4 64 -5h12v-109h-508v109h86q51 1 70 17q35 30 35 105v998q0 105 -64 121q-19 4 -41 4h-86v108h590l340 -989l326 989h579v-108h-86q-52 0 -70 -18q-34 -34 -34 -115
v-979q0 -114 63 -128q19 -4 41 -5h86v-109h-655z" />
    <glyph glyph-name="Nu" unicode="&#x39d;" horiz-adv-x="1614" 
d="M401 242q1 -114 65 -128q20 -4 40 -5h86v-109h-535v109h86q51 1 70 19q35 34 35 114v987q0 105 -65 121q-19 4 -40 4h-86v108h455l723 -1022v789q0 105 -65 121q-19 4 -40 4h-86v108h535v-108h-86q-50 0 -69 -18q-35 -34 -35 -115v-1221h-189l-799 1128v-886z" />
    <glyph glyph-name="Xi" unicode="&#x39e;" horiz-adv-x="1292" 
d="M610 809h72q110 0 129 36.5t25 57.5l10 39h106v-391h-106l-10 39q-14 49 -45.5 71.5t-108.5 22.5h-72q-84 0 -107 -18.5t-29.5 -36t-12.5 -39.5l-10 -39h-107v391h107l10 -39q15 -53 40 -73.5t109 -20.5zM858 1237h-424q-124 0 -146 -61.5t-26 -92.5l-8 -61h-127l10 440
h1018l10 -440h-127l-8 61q-9 71 -47.5 112.5t-124.5 41.5zM920 250q152 0 172 153l8 62h127l-10 -465h-1141l-10 465h127l8 -62q9 -70 47.5 -111.5t124.5 -41.5h547z" />
    <glyph glyph-name="Omicron" unicode="&#x39f;" horiz-adv-x="1612" 
d="M457 733q0 -305 83 -463q83 -157 267 -157q271 0 329 358q18 115 19 262q0 305 -81 462t-265 157q-274 0 -333 -357q-19 -115 -19 -262zM1317 184q-182 -204 -517 -204t-511 202t-176 553q0 350 177 550t511 200q335 0 517 -203q181 -203 181 -549q0 -345 -182 -549z" />
    <glyph glyph-name="Pi" unicode="&#x3a0;" horiz-adv-x="1657" 
d="M893 0v109h88q50 0 77 26t27 107v1095h-514v-1095q0 -113 41.5 -123t63.5 -10h88v-109h-707v109h86q51 0 78 26t27 107v987q0 105 -42 115t-63 10h-86v108h1542v-108h-86q-50 0 -77 -26t-27 -107v-990q0 -104 41.5 -113t62.5 -9h86v-109h-706z" />
    <glyph glyph-name="Rho" unicode="&#x3a1;" horiz-adv-x="1307" 
d="M571 678h50q151 0 215 79t65 263q1 248 -133 302q-48 20 -117 19h-80v-663zM1245 1032q0 -209 -136 -331q-157 -142 -468 -142h-70v-328q0 -104 68 -118q20 -4 41 -4h125v-109h-748v109h86q53 1 71 19q34 34 34 114v987q0 105 -64 121q-19 4 -41 4h-86v108h629
q417 0 525 -253q34 -81 34 -177z" />
    <glyph glyph-name="Sigma" unicode="&#x3a3;" horiz-adv-x="1300" 
d="M887 250q169 0 192 194l8 62h127l-10 -506h-1157v127l422 580l-377 675v80h1022l10 -379h-127l-10 109q-7 68 -47.5 106.5t-132.5 38.5h-393l284 -514v-30l-403 -543h592z" />
    <glyph glyph-name="Tau" unicode="&#x3a4;" horiz-adv-x="1337" 
d="M831 242q0 -112 64 -128q19 -4 41 -5h86v-109h-707v109h86q53 1 71 19q34 34 34 114v1095h-164q-126 0 -156 -84q-10 -27 -14 -61l-14 -127h-138l11 397h1276l10 -397h-137l-15 127q-9 74 -35 100q-48 45 -135 45h-164v-1095z" />
    <glyph glyph-name="Upsilon" unicode="&#x3a5;" horiz-adv-x="1419" 
d="M1065 1253q0 101 -135 101h-47v108h536v-108h-39q-50 0 -77 -30t-78 -130l-348 -678v-280q-1 -114 69 -124q20 -3 45 -3h101v-109h-756v109h96q60 -1 80 15q39 30 39 109v285l-379 727q-32 64 -61 87q-29 22 -84 22h-27v108h686v-108h-35q-63 0 -93 -25t-30 -69t31 -111
l152 -301q52 -105 90 -213q49 127 110 250l119 245q35 72 35 123z" />
    <glyph glyph-name="Phi" unicode="&#x3a6;" horiz-adv-x="1741" 
d="M721 274h-64q-402 0 -499 177.5t-97 293.5q0 223 138.5 343t408.5 120h113v21q0 105 -66.5 115t-101.5 10h-27v108h688v-108h-26q-80 0 -124 -25.5t-44 -99.5v-21h113q271 0 408.5 -120.5t137.5 -324.5q0 -205 -142 -347t-454 -142h-63v-41q0 -107 67 -115.5t101 -8.5h26
v-109h-688v109h27q83 0 125.5 25.5t42.5 98.5v41zM721 1087h-86q-143 0 -203.5 -80t-60.5 -264t67.5 -267t223.5 -83h59v694zM1020 393h59q156 0 223.5 83t67.5 267t-60.5 264t-203.5 80h-86v-694z" />
    <glyph glyph-name="Chi" unicode="&#x3a7;" horiz-adv-x="1499" 
d="M735 1354q-121 0 -121 -60q0 -38 54 -120l170 -254l178 249q55 86 55 125q0 60 -115 60h-6v108h480v-108h-19q-58 0 -100 -31t-103 -117l-297 -405l377 -584q69 -108 164 -108h27v-109h-676v109h10q123 0 123 67q0 43 -68 141l-188 285l-221 -299q-53 -73 -53 -125
q0 -69 124 -69h7v-109h-517v109h13q67 0 111 34q45 34 102 109l358 467l-338 526q-38 60 -75 84q-37 25 -101 25h-27v108h678v-108h-6z" />
    <glyph glyph-name="Psi" unicode="&#x3a8;" horiz-adv-x="1999" 
d="M770 487q-494 0 -525.5 202t-31.5 263v254q0 126 -66.5 137t-101.5 11v108h467v-483q0 -202 59.5 -287.5t231.5 -85.5h45v621q0 107 -66.5 117t-101.5 10h-27v108h688v-108h-26q-82 0 -125 -27t-43 -100v-621h45q171 0 231 85t60 288v483h467v-108q-81 0 -124.5 -30
t-43.5 -118v-254q0 -138 -32.5 -209t-118.5 -163.5t-406 -92.5h-78v-254q0 -107 67 -115.5t101 -8.5h26v-109h-688v109h27q83 0 125.5 25.5t42.5 98.5v254h-78z" />
    <glyph glyph-name="uni03A9" unicode="&#x3a9;" horiz-adv-x="1655" 
d="M131 922q0 262 177 412.5t515 150.5t519.5 -152t181.5 -411q0 -217 -127 -352t-375 -179l-4 -172h205q105 0 140.5 22.5t50 46.5t22.5 58l16 68h113l-15 -414h-661l14 494q208 26 237 180t29 252t-18 178t-58.5 135t-105 84t-203 29t-220 -109.5t-81.5 -320.5
q0 -293 97 -356t170 -72l14 -494h-660l-14 410h113l16 -68q21 -101 89.5 -114t121.5 -13h207l-6 178q-248 44 -374 179t-126 350z" />
    <glyph glyph-name="Iotadieresis" unicode="&#x3aa;" horiz-adv-x="821" 
d="M57 0v109h86q53 1 71 19q34 34 34 114v978q0 114 -63 128q-19 4 -42 5h-86v109h707v-109h-86q-52 -1 -70 -19q-34 -34 -35 -114v-978q-1 -114 63 -128q20 -4 42 -5h86v-109h-707zM635 1620q-136 0 -136 128q0 66 34 96t73 30q67 0 102 -31t35 -80q0 -80 -35 -112
q-35 -31 -73 -31zM79 1748q0 34 10 58q11 24 27 40t38 22t46 6q53 0 88 -31t35 -80q-1 -51 -11 -75t-27 -39t-39 -22t-46 -7t-46 7t-38 22t-27 39q-10 26 -10 60z" />
    <glyph glyph-name="Upsilondieresis" unicode="&#x3ab;" horiz-adv-x="1419" 
d="M1065 1253q0 101 -135 101h-47v108h536v-108h-39q-50 0 -77 -30t-78 -130l-348 -678v-280q-1 -114 69 -124q20 -3 45 -3h101v-109h-756v109h96q60 -1 80 15q39 30 39 109v285l-379 727q-32 64 -61 87q-29 22 -84 22h-27v108h686v-108h-35q-63 0 -93 -25t-30 -69t31 -111
l152 -301q52 -105 90 -213q49 127 110 250l119 245q35 72 35 123zM957 1620q-136 0 -136 128q0 66 34 96t73 30q67 0 102 -31t35 -80q0 -80 -35 -112q-35 -31 -73 -31zM401 1748q0 34 10 58q11 24 27 40t38 22t46 6q53 0 88 -31t35 -80q-1 -51 -11 -75t-27 -39t-39 -22
t-46 -7t-46 7t-38 22t-27 39q-10 26 -10 60z" />
    <glyph glyph-name="alphatonos" unicode="&#x3ac;" horiz-adv-x="1329" 
d="M602 133q211 0 211 498v76q-32 201 -131 249q-31 15 -64 15q-110 -1 -158 -107t-48 -316t44 -312t146 -103zM1124 287q0 -178 168 -178h17v-109h-172q-201 0 -271 104q-20 28 -28 56h-13q-106 -180 -313 -180q-416 0 -416 567q0 287 120 429t333 142q214 0 311 -203h19
q40 110 102 183h197q-33 -107 -44 -233q-10 -126 -10 -181v-397zM901 1569v-21q-49 -113 -215 -307h-143v27q57 177 79 301h279z" />
    <glyph glyph-name="epsilontonos" unicode="&#x3ad;" horiz-adv-x="1096" 
d="M973 285q47 -27 47 -93q0 -34 -25 -74t-81 -70q-123 -68 -358 -68t-358 92q-122 92 -122 244q0 150 144 218q42 20 87 35v11q-90 27 -146 97q-55 70 -55 148q0 146 123 222q123 75 330 75t314 -64q108 -64 108 -151q0 -65 -69 -94t-212 -29q0 222 -140 222t-140 -179
q0 -125 71 -177q23 -17 54 -21q125 35 194 35q99 0 99 -78q0 -45 -38 -74t-98 -29q-61 0 -122 16t-78 23q-111 -33 -111 -205q0 -87 65 -135t187 -49q205 0 330 152zM817 1569v-21q-49 -113 -215 -307h-143v27q57 177 79 301h279z" />
    <glyph glyph-name="etatonos" unicode="&#x3ae;" horiz-adv-x="1346" 
d="M785 1124q196 0 283 -96t87 -307v-862q0 -147 15 -239t24 -112h-295q-41 50 -52 262q-3 56 -3 101v825q0 126 -42 190t-104 64q-110 0 -153 -96t-43 -281v-573h-312v694q0 149 -22 262q-22 112 -31 142h271q39 -77 61 -187h8q55 98 107 138q97 75 201 75zM934 1569v-21
q-49 -113 -215 -307h-143v27q57 177 79 301h279z" />
    <glyph glyph-name="iotatonos" unicode="&#x3af;" horiz-adv-x="805" 
d="M190 297v801h310v-762q0 -100 33 -146t103 -45q70 0 150 15v-137q-93 -43 -256 -43q-254 0 -317 168q-23 61 -23 149zM622 1569v-21q-49 -113 -215 -307h-143v27q57 177 79 301h279z" />
    <glyph glyph-name="upsilondieresistonos" unicode="&#x3b0;" horiz-adv-x="1296" 
d="M506 430q0 -297 248 -297q148 0 223 119q76 119 76 309q0 189 -82 294q-59 76 -150 103q-1 106 79 144q26 12 71 12q44 0 88 -34q43 -34 75 -98q68 -136 68 -335q0 -200 -33 -301q-33 -100 -72 -162q-129 -204 -421 -204q-356 0 -450 265q-30 83 -29 185v434
q1 109 -79 121q-26 4 -63 4v109h451v-668zM960 1282q-136 0 -136 128q0 66 34 96t73 30q67 0 102 -30q34 -30 34 -81q0 -82 -35 -112q-34 -31 -72 -31zM322 1410q0 34 10 58t26 40t39 22q22 6 46 6q53 0 88 -31t35 -80q0 -51 -10 -75t-28 -39q-17 -15 -39 -22t-46 -7t-46 7
q-23 7 -39 22t-26 39q-10 26 -10 60zM918 1737v-21q-59 -134 -195 -307h-123v27q59 184 80 301h238z" />
    <glyph glyph-name="alpha" unicode="&#x3b1;" horiz-adv-x="1329" 
d="M602 133q211 0 211 498v76q-32 201 -97 232.5t-98 31.5q-109 0 -157.5 -106.5t-48.5 -316.5t43.5 -312.5t146.5 -102.5zM1124 287q0 -178 168 -178h17v-109h-172q-201 0 -246 66t-53 94h-13q-106 -180 -313 -180q-416 0 -416 567q0 287 119.5 429t333.5 142t311 -203h19
q40 110 102 183h197q-33 -107 -43.5 -233t-10.5 -181v-397z" />
    <glyph glyph-name="beta" unicode="&#x3b2;" horiz-adv-x="1358" 
d="M899 1206q0 184 -74.5 221t-124.5 37q-97 0 -148.5 -73t-51.5 -205v-965q67 -81 136.5 -101t112.5 -20q91 0 146 88.5t55 264.5q0 223 -74 277.5t-122 72.5q-61 -27 -113 -27q-98 0 -98 80t104 80q73 0 121 -16q131 62 131 286zM500 -492h-310v1661q0 216 138 312t372 96
q366 0 429 -129t63 -193q0 -105 -55 -208t-211 -166v-13q336 -109 336 -411q0 -234 -121.5 -355.5t-330.5 -121.5t-310 92v-564z" />
    <glyph glyph-name="gamma" unicode="&#x3b3;" horiz-adv-x="1176" 
d="M317 -356q0 172 119 372q-123 479 -181 637.5t-103.5 231.5t-87.5 73t-87 -26l-40 84q147 102 284 102q79 0 136.5 -54t107 -166.5t97 -286.5t106.5 -414q103 123 169 304t66 313q0 133 -108 161q0 68 37 105.5t96 37.5q155 0 155 -203t-123.5 -465t-265.5 -397
q4 -52 4 -138q0 -180 -69 -293.5t-176 -113.5q-71 0 -103.5 40.5t-32.5 95.5z" />
    <glyph glyph-name="delta" unicode="&#x3b4;" horiz-adv-x="1255" 
d="M268 1278q0 139 114.5 214t304.5 75q191 0 289.5 -61.5t98.5 -137.5t-55 -113.5t-148 -37.5q0 165 -73 200t-117 35q-82 0 -124 -42t-42 -96q0 -93 54 -148t176 -130q122 -74 267.5 -188t145.5 -331q0 -267 -144.5 -402t-384.5 -135t-387 122t-147 336q0 287 161 366
t251 105q-240 173 -240 369zM414 430q0 -228 82 -274.5t133 -46.5t90.5 22.5t66.5 65.5t41.5 105t14.5 171.5t-57 193t-164 164.5q-207 -80 -207 -401z" />
    <glyph glyph-name="epsilon" unicode="&#x3b5;" horiz-adv-x="1096" 
d="M973 285q47 -27 47 -93q0 -34 -25 -74t-114 -89t-325 -49q-235 0 -357.5 92.5t-122.5 243.5t93 194.5t138 58.5v11q-90 27 -145.5 97t-55.5 148q0 146 123 221.5t330 75.5t314.5 -64.5t107.5 -150.5q0 -65 -69 -94t-212 -29q0 222 -140 222t-140 -179q0 -125 47 -159.5
t78 -38.5q125 35 194 35q99 0 99 -78q0 -45 -37.5 -74t-98.5 -29t-122 16t-78 23q-111 -33 -111 -205q0 -87 65 -135.5t187 -48.5q205 0 330 152z" />
    <glyph glyph-name="zeta" unicode="&#x3b6;" horiz-adv-x="1020" 
d="M412 471q0 -154 56 -198t116 -61.5t162 -41.5t162.5 -84t60.5 -173t-108 -206.5t-322 -122.5v107q91 23 128.5 60t37.5 81t-11 65.5t-49 43.5t-157 46q-120 24 -256 88t-136 343q0 250 128 495.5t354 427.5q-142 17 -252.5 82t-155.5 99l74 102q211 -158 428 -178
q148 123 268 123q56 0 87.5 -24.5t31.5 -69.5q0 -170 -285 -170h-28q-28 0 -48 2q-286 -369 -286 -836z" />
    <glyph glyph-name="eta" unicode="&#x3b7;" horiz-adv-x="1346" 
d="M785 1124q196 0 283 -95.5t87 -307.5v-862q0 -147 15 -239t24 -112h-295q-41 51 -48 184.5t-7 178.5v825q0 127 -42.5 190.5t-103.5 63.5q-110 0 -153 -96t-43 -281v-573h-312v694q0 149 -22 261.5t-31 142.5h271q39 -77 61 -187h8q55 98 129.5 155.5t178.5 57.5z" />
    <glyph glyph-name="theta" unicode="&#x3b8;" horiz-adv-x="1255" 
d="M842 856q-8 578 -211 578q-204 0 -217 -578h428zM414 725q4 -616 214 -616t214 616h-428zM96 776q0 789 535 789q261 0 394.5 -205.5t133.5 -585.5q0 -577 -197.5 -685.5t-335.5 -108.5q-269 0 -399.5 205.5t-130.5 590.5z" />
    <glyph glyph-name="iota" unicode="&#x3b9;" horiz-adv-x="805" 
d="M190 297v801h310v-762q0 -100 33 -145.5t103 -45.5t150 15v-137q-93 -43 -256 -43q-254 0 -297 114.5t-43 202.5z" />
    <glyph glyph-name="kappa" unicode="&#x3ba;" horiz-adv-x="1313" 
d="M205 864q0 125 -146 125h-24v109h481v-363q0 -51 -4 -121t-6 -116l160 225q148 211 217 273.5t121 86t119 23.5t105 -35t38 -97t-21 -104q-37 39 -125 39q-134 0 -246 -133l-77 -94l286 -414q114 -159 213 -159h7v-109h-29q-238 0 -306 22.5t-108.5 59t-79.5 100.5
l-162 262l-102 -82v-362h-311v864z" />
    <glyph glyph-name="lambda" unicode="&#x3bb;" horiz-adv-x="1167" 
d="M119 1425q0 79 53 115.5t137 36.5q158 0 248 -106.5t156 -335.5l188 -670q82 -288 150.5 -322t99.5 -34h10v-109h-47q-138 0 -210.5 58.5t-120.5 245.5q-101 387 -107 454h-6q-24 -118 -113 -297l-229 -461h-328l575 1106q-69 248 -136.5 280.5t-108.5 32.5
q-102 0 -172 -88q-39 46 -39 94z" />
    <glyph glyph-name="uni03BC" unicode="&#x3bc;" horiz-adv-x="1362" 
d="M502 422q0 -268 155 -268q85 0 136 87t51 230v627h311v-815q0 -94 34 -134t105 -40h15v-109h-179q-104 0 -172 49t-94 129h-10q-54 -101 -98 -136q-81 -62 -183 -62q-161 0 -245 120q0 -196 30 -267q30 -69 74 -103t115 -43q0 -123 -110 -165q-35 -14 -76 -14
q-87 0 -141 64t-54 205q0 86 11 288t13 396v637h312v-676z" />
    <glyph glyph-name="nu" unicode="&#x3bd;" horiz-adv-x="1186" 
d="M-66 1008q161 100 272 100t193 -93.5t154 -365t115 -452.5q113 126 176 301t63 295t-45.5 148.5t-66.5 33.5q0 105 54.5 124t88.5 19q70 0 109.5 -58t39.5 -136t-16.5 -161t-62.5 -215t-150 -293t-219 -255h-197q-125 484 -175 621t-98.5 232t-113.5 95q-35 0 -80 -26z
" />
    <glyph glyph-name="xi" unicode="&#x3be;" horiz-adv-x="1034" 
d="M766 813q-73 0 -133 12q-89 -38 -155 -152t-66 -239t64.5 -168t189.5 -72t226 -71.5t101 -190.5q0 -187 -151 -259.5t-260 -92.5v109q149 42 149 153q0 61 -40 88t-157 52q-238 50 -338 140t-100 255t111.5 291t306.5 202v13q-241 28 -291.5 109.5t-50.5 121.5
q0 77 72.5 150t199.5 129q-185 31 -311 127l76 102q96 -66 210 -97t163 -38q132 82 261 82q128 0 128 -82q0 -135 -281 -135q-44 0 -100 4q-131 -98 -131 -224t166 -178q104 52 225 52q53 0 79.5 -22t26.5 -50t-8.5 -48t-27.5 -36.5t-49.5 -26.5t-104.5 -10z" />
    <glyph glyph-name="omicron" unicode="&#x3bf;" horiz-adv-x="1255" 
d="M414 554q0 -110 12 -193t36 -139q26 -56 67 -84t100 -29q114 0 164 109q49 109 49 335q0 335 -115 413q-41 28 -100 27q-59 1 -100 -27t-66 -83t-36 -137t-11 -192zM96 553q0 571 535 571q383 0 491 -320q36 -108 37 -251q0 -573 -534 -573q-385 0 -493 321
q-36 108 -36 252z" />
    <glyph glyph-name="pi" unicode="&#x3c0;" horiz-adv-x="1368" 
d="M315 834q-111 0 -129 -129h-120q0 271 122 332t209 61h914v-264h-271q-22 -268 -22 -541q0 -148 110 -148q52 0 105 21v-127q-60 -55 -174 -55q-236 0 -236 241q0 206 68 609h-342l-25 -519q-8 -166 -71 -240.5t-213 -74.5h-136v106q131 0 181.5 96.5t62.5 176.5l62 455
h-95z" />
    <glyph glyph-name="rho" unicode="&#x3c1;" horiz-adv-x="1327" 
d="M915 532q0 338 -87 399.5t-172 61.5t-131 -100.5t-46 -292.5v-375q112 -116 240 -116q196 0 196 423zM170 600q0 524 508 524q251 0 402 -157t151 -572t-445 -415q-189 0 -311 94q4 -56 4 -174v-392h-309v1092z" />
    <glyph glyph-name="sigma1" unicode="&#x3c2;" horiz-adv-x="1038" 
d="M96 489q0 635 502 635q292 0 349 -85t57 -124q0 -180 -265 -180q0 264 -133 264q-98 0 -147 -96.5t-49 -355.5q0 -135 70.5 -195.5t227.5 -100.5q158 -40 221.5 -104t63.5 -176q0 -206 -150.5 -287.5t-260.5 -103.5v109q121 39 135 92t14 85q0 67 -41 97.5t-161 57.5
q-240 55 -336.5 167t-96.5 301z" />
    <glyph glyph-name="sigma" unicode="&#x3c3;" horiz-adv-x="1321" 
d="M852 461q0 244 -94 405h-31q-221 0 -268 -133t-47 -230q0 -187 60.5 -292t166.5 -105q213 0 213 355zM1171 453q0 -341 -204.5 -407t-332.5 -66q-250 0 -394 142t-144 390q0 586 666 586h528v-232h-336q217 -160 217 -413z" />
    <glyph glyph-name="tau" unicode="&#x3c4;" horiz-adv-x="1079" 
d="M639 834q-45 -350 -45 -520q0 -169 130 -169q65 0 138 25v-141q-79 -49 -217 -49q-254 0 -254 276q0 117 28 252t79 326h-183q-165 0 -165 -175h-109q0 224 86 331.5t201 107.5h686v-264h-375z" />
    <glyph glyph-name="upsilon" unicode="&#x3c5;" horiz-adv-x="1296" 
d="M506 430q0 -297 248 -297q148 0 223.5 119.5t75.5 308.5t-70.5 279.5t-161.5 117.5q0 106 53 131t97 25t88 -34t93.5 -134t49.5 -299q0 -200 -33 -301t-117 -233.5t-376 -132.5q-355 0 -417 174t-62 276v434q0 109 -53 117t-89 8v109h451v-668z" />
    <glyph glyph-name="phi" unicode="&#x3c6;" horiz-adv-x="1518" 
d="M1038 869q-62 102 -217 116v-876q157 15 218 119.5t61 321.5t-62 319zM480 228q62 -104 218 -119v878q-157 -14 -218.5 -115.5t-61.5 -320.5t62 -323zM1421 551q0 -275 -148.5 -416t-451.5 -153v-474h-123v474q-445 18 -523.5 224.5t-78.5 344.5q0 273 148.5 413
t453.5 152v440h123v-440q441 -18 520.5 -223t79.5 -342z" />
    <glyph glyph-name="chi" unicode="&#x3c7;" horiz-adv-x="1235" 
d="M220 965q-46 0 -124 -31l-37 80q125 90 221 90t142 -48.5t94 -185.5l102 -292l252 520h322l-442 -791l176 -475q48 -135 89.5 -157.5t80.5 -22.5t94 26l39 -86q-122 -79 -216 -79t-139 56.5t-92 190.5l-127 367l-290 -619h-338l499 902l-155 393q-34 87 -69.5 124.5
t-81.5 37.5z" />
    <glyph glyph-name="psi" unicode="&#x3c8;" horiz-adv-x="1470" 
d="M1261.5 203q-114.5 -180 -366.5 -215v-480h-123v472q-420 3 -497.5 196.5t-77.5 317.5v370q0 109 -53 117t-89 8v109h451v-621q0 -152 62 -236.5t204 -103.5v1419h123v-1421q156 14 244 135t88 302t-53 270t-119 116q0 107 44.5 131.5t81.5 24.5t74 -38t79 -138.5
t42 -327.5t-114.5 -407z" />
    <glyph glyph-name="omega" unicode="&#x3c9;" horiz-adv-x="1638" 
d="M1542 504q0 -262 -109 -393t-296 -131t-242 83.5t-78 133.5q-48 -110 -116 -163.5t-185 -53.5q-201 0 -310.5 131t-109.5 393q0 349 291 631l145 -93q-120 -206 -120 -499q0 -230 52.5 -320t118.5 -90q132 0 160 193q-47 151 -52 200.5t-5 81.5q0 91 34 129.5t99 38.5
t99 -38.5t34 -132.5t-57 -277q29 -195 156 -195q71 0 123.5 90t52.5 317q0 294 -121 502l145 93q291 -282 291 -631z" />
    <glyph glyph-name="iotadieresis" unicode="&#x3ca;" horiz-adv-x="805" 
d="M190 297v801h310v-762q0 -100 33 -146t103 -45q70 0 150 15v-137q-93 -43 -256 -43q-254 0 -317 168q-23 61 -23 149zM616 1282q-136 0 -136 128q0 66 34 96t73 30q67 0 102 -31t35 -80q0 -80 -35 -112q-35 -31 -73 -31zM60 1410q0 34 10 58t26 40t39 22q22 6 46 6
q53 0 88 -31t35 -80q0 -51 -10 -75t-28 -39q-17 -15 -39 -22t-46 -7t-46 7q-23 7 -39 22t-26 39q-10 26 -10 60z" />
    <glyph glyph-name="upsilondieresis" unicode="&#x3cb;" horiz-adv-x="1296" 
d="M506 430q0 -297 248 -297q148 0 223 119q76 119 76 309q0 189 -82 294q-59 76 -150 103q-1 106 79 144q26 12 71 12q44 0 88 -34q43 -34 75 -98q68 -136 68 -335q0 -200 -33 -301q-33 -100 -72 -162q-129 -204 -421 -204q-356 0 -450 265q-30 83 -29 185v434
q1 109 -79 121q-26 4 -63 4v109h451v-668zM910 1282q-136 0 -136 128q0 66 34 96t73 30q67 0 102 -31t35 -80q0 -80 -35 -112q-35 -31 -73 -31zM354 1410q0 34 10 58t26 40t39 22q22 6 46 6q53 0 88 -31t35 -80q0 -51 -10 -75t-28 -39q-17 -15 -39 -22t-46 -7t-46 7
q-23 7 -39 22t-26 39q-10 26 -10 60z" />
    <glyph glyph-name="omicrontonos" unicode="&#x3cc;" horiz-adv-x="1255" 
d="M414 554q0 -110 12 -193t36 -139q26 -56 67 -84t100 -29q114 0 164 109q49 109 49 335q0 335 -115 413q-41 28 -100 27q-59 1 -100 -27t-66 -83t-36 -137t-11 -192zM96 553q0 571 535 571q383 0 491 -320q36 -108 37 -251q0 -573 -534 -573q-385 0 -493 321
q-36 108 -36 252zM862 1569v-21q-49 -113 -215 -307h-143v27q57 177 79 301h279z" />
    <glyph glyph-name="upsilontonos" unicode="&#x3cd;" horiz-adv-x="1296" 
d="M506 430q0 -297 248 -297q148 0 223 119q76 119 76 309q0 189 -82 294q-59 76 -150 103q-1 106 79 144q26 12 71 12q44 0 88 -34q43 -34 75 -98q68 -136 68 -335q0 -200 -33 -301q-33 -100 -72 -162q-129 -204 -421 -204q-356 0 -450 265q-30 83 -29 185v434
q1 109 -79 121q-26 4 -63 4v109h451v-668zM944 1569v-21q-49 -113 -215 -307h-143v27q57 177 79 301h279z" />
    <glyph glyph-name="omegatonos" unicode="&#x3ce;" horiz-adv-x="1638" 
d="M1542 504q0 -262 -109 -393t-296 -131t-271 126q-26 40 -49 91q-48 -110 -116 -164q-68 -53 -185 -53q-200 0 -310 131t-110 393q0 349 291 631l145 -93q-120 -206 -120 -499q0 -230 53 -320t118 -90q132 0 160 193q-47 151 -52 201q-5 49 -5 81q0 92 34 130t99 38
t99 -38t34 -133q0 -94 -57 -277q29 -195 156 -195q71 0 123 90q53 90 53 317q0 294 -121 502l145 93q291 -282 291 -631zM1075 1569v-21q-49 -113 -215 -307h-143v27q57 177 79 301h279z" />
    <glyph glyph-name="uni03D1" unicode="&#x3d1;" horiz-adv-x="1413" 
d="M506 659l-25 -346q0 -204 181 -204q209 0 244.5 250.5t35.5 362.5t-4 152q-505 9 -585.5 157.5t-80.5 226.5q0 148 108.5 227.5t303.5 79.5q364 0 448 -226t105 -356h145v-109h-137q4 -46 4 -166t-37.5 -264t-156.5 -304t-418 -160q-244 0 -357.5 100t-113.5 254
q0 66 12 171t12 139t-19.5 59.5t-74.5 25.5h-65v109h213q139 0 200.5 -45t61.5 -134zM694 1436q-50 0 -87.5 -42t-37.5 -120q0 -144 102 -215.5t257 -71.5q-28 324 -106 386.5t-128 62.5z" />
    <glyph glyph-name="uni03D2" unicode="&#x3d2;" horiz-adv-x="1487" 
d="M1272 1298q-57 0 -119.5 -66t-169 -350.5t-106.5 -445.5v-200q0 -114 45 -120.5t69 -6.5h101v-109h-756v109h96q60 0 89.5 23t29.5 101v170q0 199 -141.5 474t-188 335.5t-91.5 101t-103 40.5h-27v108h233q149 0 232.5 -57.5t169.5 -237.5t118.5 -282.5t47.5 -153.5
q58 241 148 438t166 252.5t200 55.5t148 -54t24 -98t-30 -81t-87 -46q-20 100 -98 100z" />
    <glyph glyph-name="uni03D6" unicode="&#x3d6;" horiz-adv-x="2077" 
d="M1460 472q0 188 -82 362h-653q-80 -169 -80 -360t52 -266t118 -75q132 0 162 172q-47 131 -52 176t-5 74q0 82 34 116t99 34t99 -34t34 -117t-58 -249q31 -172 156 -172q72 0 124 75.5t52 263.5zM315 834q-165 0 -165 -175h-109q0 224 86 331.5t201 107.5h1433
q166 0 166 174h109q0 -224 -86 -331t-201 -107h-98q125 -190 125 -407q0 -218 -105 -332.5t-296 -114.5t-246.5 83.5t-77.5 133.5q-52 -113 -121.5 -165t-181.5 -52q-207 0 -312.5 114.5t-105.5 333.5t123 406h-138z" />
    <glyph glyph-name="uni0400" unicode="&#x400;" horiz-adv-x="1337" 
d="M573 125h410q108 0 131 156l16 96h142l-15 -377h-1200v109h86q51 1 70 17q35 30 35 105v990q0 115 -63 129q-19 4 -42 4h-86v108h1137l8 -377h-143l-10 97q-8 75 -38 115t-93 40h-345v-512h486v-123h-486v-577zM828 1579h-139q-158 91 -318 239q-44 40 -63 68v21h321
q48 -102 199 -301v-27z" />
    <glyph glyph-name="afii10023" unicode="&#x401;" horiz-adv-x="1337" 
d="M573 125h410q108 0 131 156l16 96h142l-15 -377h-1200v109h86q51 1 70 17q35 30 35 105v990q0 115 -63 129q-19 4 -42 4h-86v108h1137l8 -377h-143l-10 97q-8 75 -38 115t-93 40h-345v-512h486v-123h-486v-577zM912 1620q-136 0 -136 128q0 66 34 96t73 30q67 0 102 -31
t35 -80q0 -80 -35 -112q-35 -31 -73 -31zM356 1748q0 34 10 58t26 40t39 22q22 6 46 6q53 0 88 -31t35 -80q0 -51 -10 -75t-28 -39q-17 -15 -39 -22t-46 -7t-46 7q-23 7 -39 22t-26 39q-10 26 -10 60z" />
    <glyph glyph-name="afii10051" unicode="&#x402;" horiz-adv-x="1688" 
d="M1095 897q140 0 231 -21t185.5 -98t94.5 -323q0 -367 -172.5 -411t-280.5 -44h-55v119h22q85 0 122.5 59t37.5 286t-94.5 248t-147.5 21q-137 0 -247 -49v-442q0 -114 41 -123.5t63 -9.5h86v-109h-707v109h86q52 0 78.5 26.5t26.5 106.5v1095h-123q-127 0 -146.5 -55.5
t-23.5 -89.5l-14 -127h-138l11 397h1194l10 -397h-137l-15 127q-9 74 -46 109.5t-124 35.5h-122v-499q164 59 304 59z" />
    <glyph glyph-name="afii10052" unicode="&#x403;" horiz-adv-x="1210" 
d="M854 1337h-281v-1104q1 -107 65 -120q20 -4 40 -4h127v-109h-748v109h86q53 1 71 19q34 34 34 114v979q0 115 -63 129q-19 4 -42 4h-86v108h1119l14 -401h-115l-24 98q-23 89 -69 133t-128 45zM1004 1907v-21q-60 -86 -274 -238q-58 -42 -107 -69h-139v27
q148 196 198 301h322z" />
    <glyph glyph-name="afii10053" unicode="&#x404;" horiz-adv-x="1368" 
d="M1284 259q0 -113 -112 -196t-351 -83q-348 0 -528 202.5t-180 547.5t182.5 549t523.5 204q226 0 346.5 -66.5t120.5 -171.5q0 -79 -67.5 -128.5t-188.5 -49.5q0 190 -80.5 237.5t-158.5 47.5q-164 0 -245 -138.5t-89 -418.5h481v-123h-481q10 -274 106 -401.5t316 -127.5
q221 0 370 195q35 -27 35 -79z" />
    <glyph glyph-name="afii10054" unicode="&#x405;" horiz-adv-x="1200" 
d="M164 73q-102 76 -103 183q0 107 66 154t166 47q0 -170 77 -263q77 -92 198 -92q122 0 190 62q69 62 69 161q0 98 -75 159t-224 123q-150 63 -224 109t-118 100q-84 101 -84 255q0 185 141 298q141 114 359 114t328 -66t110 -178t-142 -151q-48 -13 -110 -13
q0 104 -55 194q-55 89 -162 89q-138 0 -186 -108q-16 -36 -16 -80q0 -93 69 -160t274 -151q205 -83 295 -181q91 -98 91 -250q0 -201 -153 -324q-153 -124 -409 -124q-246 0 -372 93z" />
    <glyph glyph-name="afii10055" unicode="&#x406;" horiz-adv-x="821" 
d="M57 0v109h86q53 1 71 19q34 34 34 114v978q0 114 -63 128q-19 4 -42 5h-86v109h707v-109h-86q-52 -1 -70 -19q-34 -34 -35 -114v-978q-1 -114 63 -128q20 -4 42 -5h86v-109h-707z" />
    <glyph glyph-name="afii10056" unicode="&#x407;" horiz-adv-x="821" 
d="M57 0v109h86q53 1 71 19q34 34 34 114v978q0 114 -63 128q-19 4 -42 5h-86v109h707v-109h-86q-52 -1 -70 -19q-34 -34 -35 -114v-978q-1 -114 63 -128q20 -4 42 -5h86v-109h-707zM635 1620q-136 0 -136 128q0 66 34 96t73 30q67 0 102 -31t35 -80q0 -80 -35 -112
q-35 -31 -73 -31zM79 1748q0 34 10 58q11 24 27 40t38 22t46 6q53 0 88 -31t35 -80q-1 -51 -11 -75t-27 -39t-39 -22t-46 -7t-46 7t-38 22t-27 39q-10 26 -10 60z" />
    <glyph glyph-name="afii10057" unicode="&#x408;" horiz-adv-x="754" 
d="M731 1354h-86q-53 0 -71 -18q-36 -36 -35 -115v-1225q1 -338 -279 -444q-116 -44 -266 -44h-74v119h37q176 -1 236 193q22 70 22 174v1235q0 105 -64 121q-19 4 -40 4h-86v108h706v-108z" />
    <glyph glyph-name="afii10058" unicode="&#x409;" horiz-adv-x="1956" 
d="M1241 121h80q179 0 203 105.5t24 181.5q0 158 -58 227.5t-192 69.5h-57v-584zM156 -14q-66 0 -111 39.5t-45 106.5t30 105.5t70 38.5q0 -40 25 -68t62 -28q73 0 157.5 101t123 515t38.5 459t-13 61.5t-41 27t-110 10.5h-31v108h1164v-108h-125q-56 0 -82.5 -27.5
t-26.5 -95.5v-408h109q417 0 480.5 -159.5t63.5 -250.5q0 -191 -139.5 -302t-415.5 -111h-612v109h86q86 0 95.5 49.5t9.5 85.5v1110h-267q-21 -441 -81 -761t-128.5 -440t-144 -143.5t-141.5 -23.5z" />
    <glyph glyph-name="afii10059" unicode="&#x40a;" horiz-adv-x="2081" 
d="M1366 121h80q179 0 203 105.5t24 181.5q0 158 -57.5 227.5t-192.5 69.5h-57v-584zM1559 1462v-108h-84q-56 0 -82.5 -27.5t-26.5 -95.5v-408h109q417 0 480.5 -159.5t63.5 -250.5q0 -191 -139.5 -302t-415.5 -111h-592v109h66q87 0 95.5 49.5t8.5 85.5v456h-471v-458
q0 -113 41.5 -123t63.5 -10h67v-109h-686v109h86q51 0 78 26t27 107v987q0 105 -42 115t-63 10h-86v108h686v-108h-67q-51 0 -78 -27t-27 -106v-396h471v396q0 112 -40 122.5t-64 10.5h-66v108h687z" />
    <glyph glyph-name="afii10060" unicode="&#x40b;" horiz-adv-x="1812" 
d="M791 834q175 63 380 63t320 -99t115 -343v-213q0 -114 41 -123.5t63 -9.5h66v-109h-686v109h86q51 0 77.5 26.5t26.5 106.5v198q0 231 -88.5 262t-153.5 31q-137 0 -247 -49v-442q0 -114 41 -123.5t63 -9.5h86v-109h-707v109h86q52 0 78.5 26.5t26.5 106.5v1095h-123
q-127 0 -146.5 -55.5t-23.5 -89.5l-14 -127h-138l11 397h1194l10 -397h-137l-15 127q-9 74 -46 109.5t-124 35.5h-122v-503z" />
    <glyph glyph-name="afii10061" unicode="&#x40c;" horiz-adv-x="1475" 
d="M1329 0q-216 0 -315 111q-32 36 -58 84l-194 354q-46 84 -86 105q-39 22 -125 22v-434q1 -114 65 -128q20 -4 41 -5h86v-109h-686v109h86q51 1 70 17q35 30 35 105v998q0 105 -64 121q-19 4 -41 4h-86v108h686v-108h-86q-53 0 -71 -18q-36 -36 -35 -115v-428q96 1 138 31
q76 54 188 280q113 226 190 299q77 72 180 72q103 -1 141 -37t37 -96q0 -60 -27 -99q-27 -40 -73 -49q-13 71 -69 97q-20 9 -48 9q-57 0 -101 -48q-43 -48 -93 -146q-90 -173 -130 -231t-87 -93q175 0 282 -192l166 -297q59 -103 107 -143q48 -41 110 -41h13v-109h-146z
M1182 1907v-21q-60 -86 -274 -238q-58 -42 -107 -69h-139v27q148 196 198 301h322z" />
    <glyph glyph-name="uni040D" unicode="&#x40d;" horiz-adv-x="1677" 
d="M571 242q0 -112 64 -128q19 -4 41 -5h88v-109h-707v109h86q51 1 70 19q35 34 35 114v987q0 105 -65 121q-19 4 -40 4h-86v108h707v-108h-88q-52 0 -70 -18q-36 -36 -35 -115v-721l535 686v35q0 113 -64 129q-19 4 -41 4h-88v108h707v-108h-86q-50 0 -69 -18
q-35 -34 -35 -115v-990q0 -104 64 -118q18 -4 40 -4h86v-109h-707v109h88q51 1 70 19q35 34 35 114v768l-535 -686v-82zM975 1579h-139q-158 91 -318 239q-44 40 -63 68v21h321q48 -102 199 -301v-27z" />
    <glyph glyph-name="afii10062" unicode="&#x40e;" horiz-adv-x="1421" 
d="M1083 1253q0 101 -135 101h-43v108h516v-108h-39q-58 0 -87 -31t-68 -129l-299 -770q-73 -188 -118 -250q-46 -64 -86 -94t-112 -55t-256 -25h-127v119h90q178 0 284 85q35 28 52 66l-483 975q-33 66 -61 87q-28 22 -84 22h-27v108h702v-108h-73q-111 0 -111 -84
q0 -47 35 -117l156 -330q100 -212 120 -309q27 86 66 188l149 410q39 103 39 141zM734 1692q88 0 136 50t58 157h256q-14 -151 -93 -223q-105 -98 -357 -97q-358 0 -426 200q-20 58 -25 120h256q11 -107 59 -157t136 -50z" />
    <glyph glyph-name="afii10145" unicode="&#x40f;" horiz-adv-x="1657" 
d="M1599 1462v-108h-86q-49 0 -76.5 -24.5t-27.5 -98.5v-989q0 -113 41.5 -123t62.5 -10h86v-109h-483q-166 0 -192.5 -158t-26.5 -272h-135q0 324 -88.5 377t-141.5 53h-475v109h86q50 0 77.5 25.5t27.5 98.5v988q0 113 -41.5 123t-63.5 10h-86v108h707v-108h-88
q-51 0 -78 -27t-27 -106v-1096h514v1096q0 113 -41.5 123t-62.5 10h-88v108h706z" />
    <glyph glyph-name="afii10017" unicode="&#x410;" horiz-adv-x="1542" 
d="M795 942q-61 193 -86 307q-17 -60 -39 -121l-34 -101q-14 -39 -26 -75l-121 -346h414zM390 129q28 -20 65 -20h86v-109h-533v109h25q58 0 94 30t70 119l444 1204h281l428 -1206q29 -84 66 -116q37 -31 89 -31h37v-109h-676v109h80q57 0 80 43q8 15 8 44t-18 80l-72 205
h-498l-59 -176q-25 -78 -25 -117t28 -59z" />
    <glyph glyph-name="afii10018" unicode="&#x411;" horiz-adv-x="1333" 
d="M598 121h100q178 0 203 105.5t25 181.5q0 158 -58 227.5t-192 69.5h-78v-584zM598 1337v-514h129q418 0 481.5 -159.5t63.5 -250.5q0 -191 -139.5 -302t-415.5 -111h-633v109h86q87 0 95.5 49.5t8.5 85.5v977q0 112 -40 122.5t-64 10.5h-86v108h1100l10 -397h-137
l-15 127q-9 74 -46 109.5t-124 35.5h-274z" />
    <glyph glyph-name="afii10019" unicode="&#x412;" horiz-adv-x="1376" 
d="M571 827h78q140 0 194 60t54 200q0 141 -56 195q-56 55 -196 55h-74v-510zM571 125h136q137 -1 194 63t57 220t-56 225t-191 69h-140v-577zM1303 401q0 -401 -586 -401h-660v109h84q53 1 71 19q36 36 36 114v981q0 107 -66 125q-20 6 -41 6h-84v108h598q292 0 439 -90
t147 -278q-1 -188 -153 -272q-48 -26 -105 -44v-10q229 -58 297 -232q24 -60 23 -135z" />
    <glyph glyph-name="afii10020" unicode="&#x413;" horiz-adv-x="1210" 
d="M854 1337h-281v-1104q1 -107 65 -120q20 -4 40 -4h127v-109h-748v109h86q53 1 71 19q34 34 34 114v979q0 115 -63 129q-19 4 -42 4h-86v108h1119l14 -401h-115l-24 98q-23 89 -69 133t-128 45z" />
    <glyph glyph-name="afii10021" unicode="&#x414;" horiz-adv-x="1450" 
d="M524 1270q0 73 -72 78.5t-106 5.5h-6v108h1020v-108h-27q-68 0 -105.5 -27.5t-37.5 -109.5v-945q0 -125 66.5 -136t101.5 -11h41v-555h-135q0 228 -60.5 329t-202.5 101h-587q-141 0 -201.5 -101t-60.5 -329h-136v555h125q383 751 383 1145zM672 1337q0 -461 -371 -1212
h565v1212h-194z" />
    <glyph glyph-name="afii10022" unicode="&#x415;" horiz-adv-x="1337" 
d="M573 125h410q108 0 131 156l16 96h142l-15 -377h-1200v109h86q51 1 70 17q35 30 35 105v990q0 115 -63 129q-19 4 -42 4h-86v108h1137l8 -377h-143l-10 97q-8 75 -38 115t-93 40h-345v-512h486v-123h-486v-577z" />
    <glyph glyph-name="afii10024" unicode="&#x416;" horiz-adv-x="2130" 
d="M1980 1194q-20 106 -116 106q-57 0 -100.5 -48.5t-93.5 -145.5q-91 -174 -132.5 -233t-85.5 -91q176 0 283 -192l166 -297q54 -99 103.5 -141.5t113.5 -42.5h12v-109h-145q-150 0 -224 46.5t-129 148.5l-194 354q-64 115 -128 121t-104 6v-434q0 -114 42.5 -123.5
t64.5 -9.5h86v-109h-666v109h86q51 0 78 23.5t27 98.5v445q-91 0 -138.5 -22.5t-93.5 -104.5l-194 -354q-55 -102 -128.5 -148.5t-224.5 -46.5h-145v109h12q64 0 113.5 42.5t103.5 141.5l166 297q76 137 157 164.5t126 27.5q-69 50 -118 138.5t-82 151.5q-70 133 -112 180.5
t-102 47.5q-89 0 -114 -106q-47 9 -74 48.5t-27 85.5q0 146 151 147q132 0 208.5 -72.5t151.5 -223.5q149 -300 208.5 -343t155.5 -43v436q0 105 -41.5 115t-63.5 10h-86v108h666v-108h-86q-53 0 -80 -27t-27 -106v-428q96 0 156.5 43.5t187.5 304.5q95 189 171.5 261.5
t198.5 72.5t141.5 -50.5t19.5 -96.5t-27 -85.5t-74 -48.5z" />
    <glyph glyph-name="afii10025" unicode="&#x417;" horiz-adv-x="1264" 
d="M606 1358q-223 0 -223 -318q-127 0 -176.5 26t-70.5 59t-21 87q0 113 135.5 192t357.5 79q378 0 454.5 -126.5t76.5 -210.5q0 -155 -92 -250t-240 -130q246 -26 314.5 -139.5t68.5 -220.5t-92.5 -268t-511.5 -161q-253 0 -382.5 88t-129.5 218q0 81 54 129.5t163 48.5
q40 -352 301 -352q132 0 207 71.5t75 225.5q0 286 -356 286h-188v127h184q311 0 311 299q0 178 -80 209t-139 31z" />
    <glyph glyph-name="afii10026" unicode="&#x418;" horiz-adv-x="1677" 
d="M571 242q0 -113 41.5 -123t63.5 -10h88v-109h-707v109h86q51 0 78 26t27 107v987q0 105 -42 115t-63 10h-86v108h707v-108h-88q-51 0 -78 -27t-27 -106v-721l535 686v35q0 113 -41.5 123t-63.5 10h-88v108h707v-108h-86q-50 0 -77 -26t-27 -107v-990q0 -104 41.5 -113
t62.5 -9h86v-109h-707v109h88q51 0 78 26t27 107v768l-535 -686v-82z" />
    <glyph glyph-name="afii10027" unicode="&#x419;" horiz-adv-x="1677" 
d="M571 242q0 -112 64 -128q19 -4 41 -5h88v-109h-707v109h86q51 1 70 19q35 34 35 114v987q0 105 -65 121q-19 4 -40 4h-86v108h707v-108h-88q-52 0 -70 -18q-36 -36 -35 -115v-721l535 686v35q0 113 -64 129q-19 4 -41 4h-88v108h707v-108h-86q-50 0 -69 -18
q-35 -34 -35 -115v-990q0 -104 64 -118q18 -4 40 -4h86v-109h-707v109h88q51 1 70 19q35 34 35 114v768l-535 -686v-82zM834 1692q88 0 136 50t58 157h256q-14 -151 -93 -223q-105 -98 -357 -97q-358 0 -426 200q-20 58 -25 120h256q11 -107 59 -157t136 -50z" />
    <glyph glyph-name="afii10028" unicode="&#x41a;" horiz-adv-x="1475" 
d="M1329 0q-216 0 -281.5 73.5t-91.5 121.5l-194 354q-46 84 -85.5 105.5t-125.5 21.5v-434q0 -114 42 -123.5t64 -9.5h86v-109h-686v109h86q51 0 78 23.5t27 98.5v998q0 105 -41.5 115t-63.5 10h-86v108h686v-108h-86q-52 0 -79 -27t-27 -106v-428q96 0 155 42.5t171 268.5
q113 226 189.5 298.5t180.5 72.5q103 0 140.5 -36.5t37.5 -96.5t-27 -99.5t-73 -48.5q-14 71 -51.5 88.5t-65.5 17.5q-57 0 -100.5 -48.5t-93.5 -145.5q-90 -173 -130 -231t-87 -93q175 0 282 -192l166 -297q59 -103 107 -143.5t110 -40.5h13v-109h-146z" />
    <glyph glyph-name="afii10029" unicode="&#x41b;" horiz-adv-x="1489" 
d="M725 0v109h88q51 0 78 27t27 106v1112h-267q-21 -441 -81 -762t-128 -440t-144 -142.5t-142 -23.5t-111 39.5t-45 106.5t30 105.5t70 38.5q0 -40 25 -68t62 -28q73 0 157.5 101t123 515t38.5 459t-13 61.5t-41 27t-110 10.5h-31v108h1121v-108h-86q-51 0 -78 -26
t-27 -107v-990q0 -104 42 -113t63 -9h86v-109h-707z" />
    <glyph glyph-name="afii10030" unicode="&#x41c;" horiz-adv-x="1950" 
d="M1237 0v109h20q70 0 92 16q37 28 37 98v1037l-413 -1260h-139l-433 1260v-1018q0 -114 88 -128q28 -4 64 -5h12v-109h-508v109h86q51 1 70 17q35 30 35 105v998q0 105 -64 121q-19 4 -41 4h-86v108h590l340 -989l326 989h579v-108h-86q-52 0 -70 -18q-34 -34 -34 -115
v-979q0 -114 63 -128q19 -4 41 -5h86v-109h-655z" />
    <glyph glyph-name="afii10031" unicode="&#x41d;" horiz-adv-x="1677" 
d="M913 0v109h88q51 1 70 19q35 34 35 114v458h-535v-458q0 -112 64 -128q19 -4 41 -5h88v-109h-707v109h86q51 1 70 19q35 34 35 114v986q0 104 -65 120q-19 4 -40 5h-86v109h707v-109h-88q-52 -1 -70 -19q-36 -36 -35 -114v-395h535v395q0 112 -64 128q-19 4 -41 5h-88
v109h707v-109h-86q-50 -1 -69 -19q-35 -34 -35 -114v-989q0 -104 64 -118q18 -4 40 -4h86v-109h-707z" />
    <glyph glyph-name="afii10032" unicode="&#x41e;" horiz-adv-x="1612" 
d="M457 733q0 -305 83 -463q83 -157 267 -157q271 0 329 358q18 115 19 262q0 305 -81 462t-265 157q-274 0 -333 -357q-19 -115 -19 -262zM1317 184q-182 -204 -517 -204t-511 202t-176 553q0 350 177 550t511 200q335 0 517 -203q181 -203 181 -549q0 -345 -182 -549z" />
    <glyph glyph-name="afii10033" unicode="&#x41f;" horiz-adv-x="1657" 
d="M893 0v109h88q50 1 69 19q35 34 35 114v1095h-514v-1095q0 -112 64 -128q19 -4 41 -5h88v-109h-707v109h86q51 1 70 19q35 34 35 114v987q0 105 -65 121q-19 4 -40 4h-86v108h1542v-108h-86q-50 0 -69 -18q-35 -34 -35 -115v-990q1 -104 65 -118q18 -4 39 -4h86v-109
h-706z" />
    <glyph glyph-name="afii10034" unicode="&#x420;" horiz-adv-x="1307" 
d="M571 678h50q151 0 215 79t65 263q1 248 -133 302q-48 20 -117 19h-80v-663zM1245 1032q0 -209 -136 -331q-157 -142 -468 -142h-70v-328q0 -104 68 -118q20 -4 41 -4h125v-109h-748v109h86q53 1 71 19q34 34 34 114v987q0 105 -64 121q-19 4 -41 4h-86v108h629
q417 0 525 -253q34 -81 34 -177z" />
    <glyph glyph-name="afii10035" unicode="&#x421;" horiz-adv-x="1368" 
d="M1284 259q0 -113 -100 -187q-124 -92 -363 -92q-348 0 -528 202t-180 548q0 345 183 549t523 204q226 -1 346 -67q121 -66 121 -171q0 -79 -67 -128q-67 -50 -189 -50q0 189 -118 259q-44 26 -124 26t-147 -41t-107 -120t-59 -195q-18 -116 -18 -263q0 -304 95 -447
t322 -143q226 0 375 195q35 -27 35 -79z" />
    <glyph glyph-name="afii10036" unicode="&#x422;" horiz-adv-x="1337" 
d="M831 242q0 -112 64 -128q19 -4 41 -5h86v-109h-707v109h86q53 1 71 19q34 34 34 114v1095h-164q-126 0 -156 -84q-10 -27 -14 -61l-14 -127h-138l11 397h1276l10 -397h-137l-15 127q-9 74 -35 100q-48 45 -135 45h-164v-1095z" />
    <glyph glyph-name="afii10037" unicode="&#x423;" horiz-adv-x="1421" 
d="M1083 1253q0 101 -135 101h-43v108h516v-108h-39q-58 0 -87 -31t-68 -129l-299 -770q-73 -188 -118 -250.5t-85.5 -93t-112.5 -55.5t-256 -25h-127v119h90q178 0 248.5 56.5t87.5 94.5l-483 975q-33 66 -61.5 87.5t-83.5 21.5h-27v108h702v-108h-73q-111 0 -111 -84
q0 -47 35 -117l156 -330q100 -212 120 -309q27 86 66 188l149 410q39 103 39 141z" />
    <glyph glyph-name="afii10038" unicode="&#x424;" horiz-adv-x="1741" 
d="M721 274h-64q-401 0 -539 252q-56 103 -57 219q0 223 138 343t409 120h113v21q-1 105 -103 121q-30 4 -65 4h-27v108h688v-108h-26q-80 0 -111 -18q-57 -33 -57 -107v-21h113q271 0 408 -120q138 -120 138 -325q-1 -205 -133 -337q-152 -152 -463 -152h-63v-41
q0 -107 103 -120q31 -4 65 -4h26v-109h-688v109h27q83 -1 112 17q56 34 56 107v41zM721 1087h-86q-143 0 -203 -80q-61 -80 -61 -264t67 -267t224 -83h59v694zM1020 393h59q156 0 224 83q67 83 67 267t-61 264t-203 80h-86v-694z" />
    <glyph glyph-name="afii10039" unicode="&#x425;" horiz-adv-x="1499" 
d="M735 1354q-121 0 -121 -60q0 -38 54 -120l170 -254l178 249q55 86 55 125q0 60 -115 60h-6v108h480v-108h-19q-58 0 -100 -31t-103 -117l-297 -405l377 -584q69 -108 164 -108h27v-109h-676v109h10q123 0 123 67q0 43 -68 141l-188 285l-221 -299q-53 -73 -53 -125
q0 -69 124 -69h7v-109h-517v109h13q67 0 111 34q45 34 102 109l358 467l-338 526q-38 60 -75 84q-37 25 -101 25h-27v108h678v-108h-6z" />
    <glyph glyph-name="afii10040" unicode="&#x426;" horiz-adv-x="1669" 
d="M1606 -430h-136q0 335 -95.5 382.5t-166.5 47.5h-1151v109h86q50 0 77.5 25.5t27.5 98.5v988q0 113 -41.5 123t-63.5 10h-86v108h707v-108h-88q-51 0 -78 -27t-27 -106v-1096h514v1096q0 113 -41.5 123t-62.5 10h-88v108h706v-108h-86q-49 0 -76.5 -24.5t-27.5 -98.5
v-1106h197v-555z" />
    <glyph glyph-name="afii10041" unicode="&#x427;" horiz-adv-x="1597" 
d="M805 686q93 0 219 49v486q0 114 -41 123.5t-63 9.5h-86v108h706v-108h-86q-51 0 -77.5 -26.5t-26.5 -106.5v-979q0 -114 41 -123.5t63 -9.5h86v-109h-706v109h86q51 0 77.5 26.5t26.5 106.5v352q-170 -72 -378 -72t-322.5 100t-114.5 343v256q0 114 -41 123.5t-64 9.5
h-65v108h686v-108h-86q-51 0 -77.5 -26.5t-26.5 -106.5v-250q0 -159 43 -208t88.5 -63t138.5 -14z" />
    <glyph glyph-name="afii10042" unicode="&#x428;" horiz-adv-x="2331" 
d="M57 0v109h86q50 0 77.5 25.5t27.5 98.5v988q0 113 -41.5 123t-63.5 10h-86v108h674v-108h-67q-51 0 -78 -27t-27 -106v-1096h451v1096q0 113 -41.5 123t-63.5 10h-67v108h653v-108h-66q-49 0 -76.5 -24.5t-27.5 -98.5v-1106h451v1096q0 114 -42 123.5t-63 9.5h-68v108
h674v-108h-86q-50 0 -77 -26t-27 -107v-988q0 -106 41.5 -115t62.5 -9h86v-109h-2216z" />
    <glyph glyph-name="afii10043" unicode="&#x429;" horiz-adv-x="2343" 
d="M2083 125h196v-555h-135q0 227 -58 328.5t-190 101.5h-1839v109h86q50 0 77.5 25.5t27.5 98.5v988q0 113 -41.5 123t-63.5 10h-86v108h674v-108h-67q-51 0 -78 -27t-27 -106v-1096h451v1096q0 113 -41.5 123t-63.5 10h-67v108h653v-108h-66q-49 0 -76.5 -24.5
t-27.5 -98.5v-1106h451v1096q0 114 -42 123.5t-63 9.5h-68v108h674v-108h-86q-50 0 -77 -26t-27 -107v-1096z" />
    <glyph glyph-name="afii10044" unicode="&#x42a;" horiz-adv-x="1524" 
d="M788 121h101q179 0 203 105.5t24 181.5q0 158 -58 227.5t-192 69.5h-78v-584zM1022 1462v-108h-125q-56 0 -82.5 -27.5t-26.5 -95.5v-408h130q417 0 480.5 -159.5t63.5 -250.5q0 -191 -139.5 -302t-415.5 -111h-633v109h86q86 0 95.5 49.5t9.5 85.5v1093h-123
q-127 0 -146.5 -55.5t-23.5 -89.5l-14 -127h-138l11 397h991z" />
    <glyph glyph-name="afii10045" unicode="&#x42b;" horiz-adv-x="2023" 
d="M1260 0v109h86q51 0 77.5 26.5t26.5 106.5v979q0 114 -41 123.5t-63 9.5h-86v108h706v-108h-86q-51 0 -77.5 -26.5t-26.5 -106.5v-979q0 -114 41 -123.5t63 -9.5h86v-109h-706zM571 121h80q178 0 203 105.5t25 181.5q0 158 -58 227.5t-192 69.5h-58v-584zM805 1462v-108
h-125q-56 0 -82.5 -27.5t-26.5 -95.5v-408h109q418 0 481.5 -159.5t63.5 -250.5q0 -191 -139.5 -302t-415.5 -111h-613v109h86q86 0 95.5 49.5t9.5 85.5v977q0 112 -40.5 122.5t-64.5 10.5h-86v108h748z" />
    <glyph glyph-name="afii10046" unicode="&#x42c;" horiz-adv-x="1307" 
d="M571 121h101q179 0 203 105.5t24 181.5q0 158 -58 227.5t-192 69.5h-78v-584zM805 1462v-108h-125q-56 0 -82.5 -27.5t-26.5 -95.5v-408h129q418 0 481.5 -159.5t63.5 -250.5q0 -191 -139.5 -302t-415.5 -111h-633v109h86q86 0 95.5 49.5t9.5 85.5v977q0 112 -40.5 122.5
t-64.5 10.5h-86v108h748z" />
    <glyph glyph-name="afii10047" unicode="&#x42d;" horiz-adv-x="1397" 
d="M622 1483q151 0 280.5 -54.5t255.5 -199t126 -488.5t-181.5 -552.5t-502.5 -208.5q-270 0 -397 89.5t-127 225.5q0 80 56 126t153 46q29 -251 136 -303.5t185 -52.5q155 0 241.5 153.5t92.5 407.5h-481v123h481q-6 278 -83 417.5t-251 139.5q-115 0 -176 -89.5
t-61 -205.5q-183 0 -220.5 65.5t-37.5 111.5t29 91.5t89 80.5t151 56t242 21z" />
    <glyph glyph-name="afii10048" unicode="&#x42e;" horiz-adv-x="2277" 
d="M1204 653.5q0 -226.5 73 -383.5t236 -157q240 0 274 236.5t34 462t-71.5 383t-233.5 157.5q-244 0 -278 -236t-34 -462.5zM1993.5 184.5q-171.5 -204.5 -483.5 -204.5q-313 0 -477.5 192t-172.5 528h-289v-458q0 -113 41.5 -123t63.5 -10h88v-109h-707v109h86q51 0 78 26
t27 107v987q0 105 -42 115t-63 10h-86v108h707v-108h-88q-51 0 -78 -27t-27 -106v-396h291q32 476 265 568t389 92t276.5 -53.5t246.5 -203t126 -494.5t-171.5 -549.5z" />
    <glyph glyph-name="afii10049" unicode="&#x42f;" horiz-adv-x="1446" 
d="M874 1341h-110q-137 0 -194.5 -66t-57.5 -222q0 -155 55.5 -227t192.5 -72h114v587zM168 1083q0 379 561 379h660v-108h-86q-49 0 -77 -25t-28 -100v-998q0 -104 42 -113t63 -9h86v-109h-707v109h88q49 0 76.5 24t27.5 98v404h-153l-205 -410q-71 -140 -166.5 -182.5
t-292.5 -42.5h-67v109h8q122 0 213 167l225 416q-185 76 -226.5 193t-41.5 198z" />
    <glyph glyph-name="afii10065" unicode="&#x430;" horiz-adv-x="1227" 
d="M455 778q-277 0 -277 128q0 116 117 167t265 51t228 -18t134 -60q108 -82 108 -270v-522q0 -83 26 -114t97 -31h8v-109h-381l-43 141h-18q-76 -91 -135 -126t-149 -35q-164 0 -254 85q-89 85 -89 250t114 245t345 87l168 6v113q0 118 -17 158q-16 41 -42 58t-68 17
q-137 0 -137 -221zM410 305q0 -176 116 -176q87 1 140 71t53 191v154l-92 -6q-173 -8 -206 -136q-11 -42 -11 -98z" />
    <glyph glyph-name="afii10066" unicode="&#x431;" horiz-adv-x="1255" 
d="M842 521q0 210 -50 310.5t-169 100.5t-164 -98.5t-45 -306.5q0 -209 49.5 -313.5t159.5 -104.5q173 0 196 155.5t23 256.5zM623 -20q-525 0 -525 673q0 254 31.5 380.5t113.5 281.5t404 186q76 8 141 13.5t144.5 18t101.5 46.5h96q-6 -190 -99.5 -240.5t-184 -67
t-209.5 -32.5q-174 -15 -232.5 -41.5t-86 -55.5t-48.5 -85t-30 -221h8q60 156 185.5 190.5t203.5 34.5q522 -1 522 -541t-536 -540z" />
    <glyph glyph-name="afii10067" unicode="&#x432;" horiz-adv-x="1272" 
d="M782.5 939.5q-38.5 41.5 -129.5 41.5h-137v-356h137q92 0 130 50t38 136q0 87 -38.5 128.5zM662 117q107 0 151.5 42t44.5 160q0 150 -78.5 168.5t-128.5 18.5h-135v-389h146zM680 1098q448 0 448 -262q0 -229 -239 -261v-10q203 -17 249 -106t46 -155
q0 -141 -111 -222.5t-332 -81.5h-706v109h24q146 0 146 133v622q0 125 -146 125h-24v109h645z" />
    <glyph glyph-name="afii10068" unicode="&#x433;" horiz-adv-x="1040" 
d="M205 856q0 133 -146 133h-24v109h964v-348h-141l-10 88q-9 91 -38 117t-105 26h-189v-739q0 -133 135 -133h45v-109h-661v109h24q146 0 146 133v614z" />
    <glyph glyph-name="afii10069" unicode="&#x434;" horiz-adv-x="1280" 
d="M733 981h-219q-38 -444 -106 -626.5t-97 -237.5h422v864zM1180 989q-146 0 -146 -133v-631q0 -95 59.5 -105t88.5 -11h47v-539h-142l-10 149q-9 143 -64 212t-128 69h-508q-98 0 -143.5 -64t-55.5 -217l-10 -149h-141v547h141q87 144 147 388t60 365q0 99 -67 109
t-101 10h-8v109h1005v-109h-24z" />
    <glyph glyph-name="afii10070" unicode="&#x435;" horiz-adv-x="1169" 
d="M1030 199q0 -94 -104 -157q-104 -62 -266 -62t-262 38q-302 115 -302 536q0 422 292 534q94 36 211 36q231 0 357 -126t127 -367v-105h-671q11 -393 274 -393q154 1 244 101q28 30 45 65q55 -30 55 -100zM770 657q0 334 -162 334q-86 0 -136 -85t-56 -249h354z" />
    <glyph glyph-name="afii10072" unicode="&#x436;" horiz-adv-x="1888" 
d="M1681 1110q177 0 177 -127q0 -52 -35.5 -87.5t-85.5 -39.5q-18 105 -103 105q-36 0 -71.5 -35t-78.5 -97q-78 -114 -106 -149t-63 -64q159 -19 252 -178l112 -192q50 -83 91 -110t112 -27h6v-109h-86q-181 0 -247 27t-105 65.5t-74 102.5l-104 194q-41 78 -78 103.5
t-104 25.5v-276q0 -133 135 -133h4v-109h-580v109h4q146 0 146 133v276q-68 0 -103.5 -24.5t-79.5 -104.5l-104 -194q-64 -121 -154.5 -158t-271.5 -37h-86v109h6q71 0 112 26t91 111l113 192q93 159 251 178q-49 40 -88 95t-66 95q-57 84 -93 119.5t-72 35.5
q-84 0 -102 -105q-51 4 -86 39t-35 90q0 125 181 125q105 0 165 -52t155 -201t121 -176q27 -28 58 -39t88 -11v225q0 133 -146 133h-4v109h580v-109h-4q-135 0 -135 -133v-225q96 0 141 45q28 28 100 141q73 114 135.5 203.5t214.5 89.5z" />
    <glyph glyph-name="afii10073" unicode="&#x437;" horiz-adv-x="1083" 
d="M651 831q0 175 -141 175q-86 0 -126 -69.5t-40 -172.5q-173 0 -195 56.5t-22 91.5q0 84 94 147t299 63q325 0 385 -102.5t60 -159.5q0 -106 -63.5 -179t-172.5 -101v-11q131 -24 201.5 -85t70.5 -154q0 -171 -130.5 -259.5t-374.5 -88.5q-331 0 -378.5 92t-47.5 154
t47.5 103.5t154.5 41.5q0 -122 60 -200.5t164 -78.5q143 0 166.5 83t23.5 128q0 201 -237 201h-138v131h140q200 0 200 194z" />
    <glyph glyph-name="afii10074" unicode="&#x438;" horiz-adv-x="1415" 
d="M1356 989q-146 0 -146 -133v-614q0 -133 146 -133h24v-109h-620v109h4q135 0 135 133v440l-383 -420v-20q0 -133 135 -133h4v-109h-620v109h24q146 0 146 133v614q0 133 -146 133h-24v109h620v-109h-4q-135 0 -135 -133v-436l383 420v16q0 133 -135 133h-4v109h620v-109
h-24z" />
    <glyph glyph-name="afii10075" unicode="&#x439;" horiz-adv-x="1415" 
d="M1356 989q-146 0 -146 -133v-614q0 -133 146 -133h24v-109h-620v109h4q135 0 135 133v440l-383 -420v-20q0 -133 135 -133h4v-109h-620v109h24q146 0 146 133v614q0 133 -146 133h-24v109h620v-109h-4q-135 0 -135 -133v-436l383 420v16q0 133 -135 133h-4v109h620v-109
h-24zM707 1354q87 0 135 50t59 157h256q-14 -151 -93 -223q-105 -98 -357 -97q-357 0 -425 200q-20 58 -26 120h256q11 -107 59 -157t136 -50z" />
    <glyph glyph-name="afii10076" unicode="&#x43a;" horiz-adv-x="1315" 
d="M1284 983q0 -53 -35 -88t-86 -39q-18 105 -102 105q-36 0 -71.5 -35t-78.5 -97q-73 -107 -104 -145.5t-66 -67.5q159 -19 252 -178l113 -192q47 -83 89.5 -110t113.5 -27h6v-109h-86q-185 0 -256 27t-113.5 65.5t-77.5 102.5l-104 194q-41 79 -73.5 104t-88.5 25v-276
q0 -133 135 -133h4v-109h-620v109h24q146 0 146 133v614q0 133 -146 133h-24v109h620v-109h-4q-135 0 -135 -133v-225q90 0 127 37t109 150q73 113 137.5 202.5t229.5 89.5t165 -127z" />
    <glyph glyph-name="afii10077" unicode="&#x43b;" horiz-adv-x="1354" 
d="M702 109q136 0 136 133v739h-232q-40 -376 -121 -664q-53 -185 -124 -258t-171 -73q-190 0 -190 143q0 63 35 98t78 35q0 -37 22.5 -63.5t54.5 -26.5t98.5 18.5t124.5 310t58 346.5q0 90 -41 116t-119 26h-26v109h1034v-109h-25q-145 0 -145 -133v-614q0 -133 145 -133
h25v-109h-641v109h24z" />
    <glyph glyph-name="afii10078" unicode="&#x43c;" horiz-adv-x="1767" 
d="M205 856q0 133 -146 133h-24v109h536l303 -686l310 686h549v-109h-27q-80 0 -124 -26.5t-44 -110.5v-606q0 -117 67 -127t101 -10h27v-109h-664v109h6q80 0 124 26.5t44 110.5v631h-14l-398 -877h-94l-387 877h-14v-631q0 -117 67 -127t101 -10h6v-109h-475v109h24
q146 0 146 133v614z" />
    <glyph glyph-name="afii10079" unicode="&#x43d;" horiz-adv-x="1415" 
d="M1356 989q-146 0 -146 -133v-614q0 -133 146 -133h24v-109h-620v109h4q135 0 135 133v264h-383v-264q0 -133 135 -133h4v-109h-620v109h24q146 0 146 133v614q0 133 -146 133h-24v109h620v-109h-4q-135 0 -135 -133v-233h383v233q0 133 -135 133h-4v109h620v-109h-24z
" />
    <glyph glyph-name="afii10080" unicode="&#x43e;" horiz-adv-x="1255" 
d="M414 554q0 -110 12 -193t36 -139q26 -56 67 -84t100 -29q114 0 164 109q49 109 49 335q0 335 -115 413q-41 28 -100 27q-59 1 -100 -27t-66 -83t-36 -137t-11 -192zM96 553q0 571 535 571q383 0 491 -320q36 -108 37 -251q0 -573 -534 -573q-385 0 -493 321
q-36 108 -36 252z" />
    <glyph glyph-name="afii10081" unicode="&#x43f;" horiz-adv-x="1374" 
d="M1169 242q0 -133 146 -133h24v-109h-620v109h4q135 0 135 133v739h-342v-739q0 -133 135 -133h4v-109h-620v109h24q146 0 146 133v622q0 125 -146 125h-24v109h1304v-109h-24q-146 0 -146 -125v-622z" />
    <glyph glyph-name="afii10082" unicode="&#x440;" horiz-adv-x="1321" 
d="M909 540q-1 206 -45 316q-44 109 -154 109t-156 -103t-46 -320t46 -316t156 -99q110 -1 154 103t45 310zM508 -250q0 -133 145 -133h45v-109h-671v109h24q146 0 146 133v1096q1 122 -83 138q-26 5 -55 5h-14v109h401l37 -160h9q99 180 313 180q420 0 420 -572t-412 -571
q-211 0 -307 164h-14q16 -188 16 -248v-141z" />
    <glyph glyph-name="afii10083" unicode="&#x441;" horiz-adv-x="1079" 
d="M604 -20q-508 0 -508 572t502 572q292 0 380 -130q26 -40 26 -79q0 -180 -265 -180q0 264 -133 264q-144 0 -180 -234q-14 -87 -14 -218q0 -208 57 -311t200 -103q143 1 237 101q28 30 46 65q49 -29 49 -81q0 -101 -102 -170q-102 -68 -295 -68z" />
    <glyph glyph-name="afii10084" unicode="&#x442;" horiz-adv-x="1161" 
d="M279 109q147 0 147 137v735h-119q-56 0 -80.5 -34.5t-36.5 -131.5l-8 -67h-141l12 350h1055l12 -350h-141l-8 67q-12 97 -31 123.5t-38 34.5t-48 8h-117v-735q0 -137 137 -137h23v-109h-641v109h23z" />
    <glyph glyph-name="afii10085" unicode="&#x443;" horiz-adv-x="1186" 
d="M1186 1098v-109q-63 0 -98 -32t-68 -126q-34 -93 -73 -199t-79 -212t-78 -212q-40 -106 -76 -206t-69 -176q-31 -75 -67 -130q-69 -107 -177 -148q-107 -40 -311 -40h-35v119q287 0 395 215q34 67 58 148l-369 901q-31 75 -96 83q-20 2 -43 3v121h584v-109q-60 1 -94 -15
t-35 -53q0 -37 19 -83q38 -94 69 -177q30 -83 59 -162q64 -175 72 -257q6 60 24 108l21 56l135 401q20 51 20 99t-39 66t-110 17v109h461z" />
    <glyph glyph-name="afii10086" unicode="&#x444;" horiz-adv-x="1681" 
d="M991 121q287 39 287 427t-287 427v-854zM696 975q-293 -37 -293 -427t293 -429v856zM991 -252q0 -131 146 -131h24v-109h-635v109h25q145 0 145 131v242q-277 14 -438.5 163t-161.5 399t156.5 395t443.5 161v215q0 125 -145 125h-25v108h465v-450q277 -18 435.5 -164
t158.5 -394t-156 -396t-438 -162v-242z" />
    <glyph glyph-name="afii10087" unicode="&#x445;" horiz-adv-x="1323" 
d="M698 989q-116 0 -116 -59q0 -36 47 -94l114 -140l97 117q51 66 51 109q-1 43 -29 55t-76 12h-6v109h473v-109h-18q-59 0 -100 -25q-40 -25 -107 -106l-211 -258l301 -383q86 -108 164 -108h27v-109h-652v109h11q123 0 123 67q-1 37 -27 74t-51 67l-117 142l-143 -178
q-43 -57 -43 -103q0 -69 127 -69h6v-109h-520v109h18q72 0 116 27t107 104l258 311l-258 330q-86 108 -176 108h-27v109h644v-109h-7z" />
    <glyph glyph-name="afii10088" unicode="&#x446;" horiz-adv-x="1405" 
d="M868 864q0 125 -135 125h-4v109h610v-109h-24q-146 0 -146 -133v-631q0 -95 59.5 -105t88.5 -11h47v-539h-141l-11 149q-9 143 -64 212t-128 69h-985v109h24q146 0 146 124v623q0 133 -146 133h-24v109h610v-109h-4q-135 0 -135 -133v-739h362v747z" />
    <glyph glyph-name="afii10089" unicode="&#x447;" horiz-adv-x="1395" 
d="M496 670q0 -135 131 -135q88 0 150 31.5t102 54.5v229q0 113 -54 126t-82 13h-4v109h621v-109h-23q-106 0 -126.5 -47.5t-20.5 -89.5v-606q0 -137 147 -137h23v-109h-676v109h35q78 0 119 26.5t41 110.5v260q-171 -104 -255.5 -120.5t-149.5 -16.5q-134 0 -212 74
t-78 196v211q0 139 -145 139h-6v109h602v-109h-4q-135 0 -135 -137v-182z" />
    <glyph glyph-name="afii10090" unicode="&#x448;" horiz-adv-x="2038" 
d="M868 864q0 125 -135 125h-4v109h580v-109h-4q-136 0 -136 -133v-739h363v739q0 133 -135 133h-4v109h610v-109h-25q-145 0 -145 -133v-623q0 -124 145 -124h25v-109h-1968v109h24q146 0 146 124v623q0 133 -146 133h-24v109h610v-109h-4q-135 0 -135 -133v-739h362v747z
" />
    <glyph glyph-name="afii10091" unicode="&#x449;" horiz-adv-x="2068" 
d="M868 864q0 125 -135 125h-4v109h580v-109h-4q-136 0 -136 -133v-739h363v739q0 133 -135 133h-4v109h610v-109h-25q-145 0 -145 -133v-631q0 -95 59 -105t88 -11h48v-539h-142l-10 149q-9 143 -64 212t-129 69h-1648v109h24q146 0 146 124v623q0 133 -146 133h-24v109
h610v-109h-4q-135 0 -135 -133v-739h362v747z" />
    <glyph glyph-name="afii10092" unicode="&#x44a;" horiz-adv-x="1456" 
d="M891 119q101 0 144.5 47.5t43.5 152.5q0 106 -51 146.5t-145 40.5h-146v-387h154zM279 109q147 0 147 131v741h-119q-56 0 -80.5 -34.5t-36.5 -131.5l-8 -67h-141l12 350h879v-117h-27q-168 0 -168 -125v-231h197q219 0 345 -63t126 -240q0 -144 -118 -233t-343 -89h-688
v109h23z" />
    <glyph glyph-name="afii10093" unicode="&#x44b;" horiz-adv-x="1853" 
d="M1649 242q0 -133 135 -133h24v-109h-641v109h25q145 0 145 133v614q0 133 -145 133h-25v109h641v-109h-24q-135 0 -135 -133v-614zM629 119q101 0 144.5 47.5t43.5 152.5q0 106 -51.5 146.5t-144.5 40.5h-105v-387h113zM57 109q148 0 148 131v616q0 71 -37.5 102
t-110.5 31h-22v109h676v-117h-27q-168 0 -168 -125v-231h156q219 0 345 -63t126 -240q0 -144 -118 -233t-343 -89h-647v109h22z" />
    <glyph glyph-name="afii10094" unicode="&#x44c;" horiz-adv-x="1235" 
d="M670 119q101 0 144.5 47.5t43.5 152.5q0 106 -51.5 146.5t-144.5 40.5h-146v-387h154zM57 109q148 0 148 131v616q0 71 -37.5 102t-110.5 31h-22v109h676v-117h-27q-168 0 -168 -125v-231h197q219 0 345 -63t126 -240q0 -144 -118 -233t-343 -89h-688v109h22z" />
    <glyph glyph-name="afii10095" unicode="&#x44d;" horiz-adv-x="1063" 
d="M473 -18q-403 0 -403 233q0 75 51 116.5t151 41.5q0 -192 72 -235.5t118 -43.5q92 0 137.5 94.5t51.5 317.5h-356v131h356q-7 185 -34.5 251.5t-60.5 92t-79 25.5q-83 0 -127.5 -76.5t-44.5 -171.5q-104 0 -152.5 39t-48.5 92q0 104 95.5 168.5t292.5 64.5
q475 0 475 -547q0 -467 -191.5 -530t-302.5 -63z" />
    <glyph glyph-name="afii10096" unicode="&#x44e;" horiz-adv-x="1890" 
d="M1090 554q0 -110 10 -193t33 -139t60 -84.5t116 -28.5t123.5 109t44.5 332t-44 333t-151 110q-152 0 -172 -164.5t-20 -274.5zM1794 553q0 -289 -131 -431t-383 -142q-352 0 -427 196.5t-81 329.5h-256v-264q0 -133 135 -133h15v-109h-631v109h24q146 0 146 133v614
q0 133 -146 133h-24v109h631v-109h-15q-135 0 -135 -133v-233h258q32 501 512 501q369 0 438.5 -213.5t69.5 -357.5z" />
    <glyph glyph-name="afii10097" unicode="&#x44f;" horiz-adv-x="1255" 
d="M121 809q0 289 448 289h652v-109h-7q-89 0 -126 -31t-37 -94v-618q0 -137 143 -137h27v-109h-658v109h8q80 0 124 26.5t44 110.5v237h-108l-160 -295q-60 -110 -167 -149t-304 -39v109h6q54 0 90.5 28t77.5 94l180 289q-154 38 -193.5 130.5t-39.5 158.5zM604 981
q-162 -1 -162 -189t162 -188h135v377h-135z" />
    <glyph glyph-name="uni0450" unicode="&#x450;" horiz-adv-x="1169" 
d="M1030 199q0 -94 -104 -157q-104 -62 -266 -62t-262 38q-302 115 -302 536q0 422 292 534q94 36 211 36q231 0 357 -126t127 -367v-105h-671q11 -393 274 -393q154 1 244 101q28 30 45 65q55 -30 55 -100zM770 657q0 334 -162 334q-86 0 -136 -85t-56 -249h354zM781 1241
h-139q-158 91 -318 239q-44 40 -63 68v21h321q48 -102 199 -301v-27z" />
    <glyph glyph-name="afii10071" unicode="&#x451;" horiz-adv-x="1169" 
d="M1030 199q0 -94 -104 -157q-104 -62 -266 -62t-262 38q-302 115 -302 536q0 422 292 534q94 36 211 36q231 0 357 -126t127 -367v-105h-671q11 -393 274 -393q154 1 244 101q28 30 45 65q55 -30 55 -100zM770 657q0 334 -162 334q-86 0 -136 -85t-56 -249h354zM837 1282
q-136 0 -136 128q0 66 34 96t73 30q67 0 102 -31t35 -80q0 -80 -35 -112q-35 -31 -73 -31zM281 1410q0 34 10 58q11 24 27 40t38 22t46 6q53 0 88 -31t35 -80q-1 -51 -11 -75t-27 -39t-39 -22t-46 -7t-46 7t-38 22t-27 39q-10 26 -10 60z" />
    <glyph glyph-name="afii10099" unicode="&#x452;" horiz-adv-x="1333" 
d="M831 1063q338 0 338 -395v-684q0 -378 -189.5 -427t-295.5 -49h-39v127h12q101 0 151 82t50 283v612q0 207 -59.5 242t-107.5 35q-92 0 -133.5 -89.5t-41.5 -228.5v-329q0 -114 57 -123.5t91 -9.5h6v-109h-629v109h4q80 0 120 28t40 113v934h-178v108h178v31
q0 125 -146 125h-24v108h481v-264h318v-108h-318v-27q0 -84 -16 -260h18q78 147 171.5 156.5t141.5 9.5z" />
    <glyph glyph-name="afii10100" unicode="&#x453;" horiz-adv-x="1040" 
d="M205 856q0 133 -146 133h-24v109h964v-348h-141l-10 88q-9 91 -38 117t-105 26h-189v-739q0 -133 135 -133h45v-109h-661v109h24q146 0 146 133v614zM885 1569v-21q-61 -86 -275 -238q-58 -42 -106 -69h-139v27q148 196 198 301h322z" />
    <glyph glyph-name="afii10101" unicode="&#x454;" horiz-adv-x="1079" 
d="M604 -20q-508 0 -508 572t502 572q292 0 349 -85t57 -124q0 -180 -265 -180q0 264 -133 264q-90 0 -139 -90t-55 -309h356v-131h-354q9 -170 66.5 -253t174.5 -83q157 0 218 65.5t79 100.5q49 -29 49 -81q0 -101 -102 -169.5t-295 -68.5z" />
    <glyph glyph-name="afii10102" unicode="&#x455;" horiz-adv-x="999" 
d="M470 -20q-210 0 -309 65q-100 65 -100 163q0 167 191 167q0 -127 61 -201t160 -74q150 0 191 86q12 26 12 57q0 64 -54 107q-54 44 -167 83q-206 72 -290 152q-83 79 -83 225q0 147 118 230q118 82 310 82t282 -56q89 -56 89 -130q-1 -73 -49 -109t-160 -36
q0 103 -46 159t-145 56t-141 -72q-14 -24 -14 -56q0 -66 57 -108q57 -43 174 -83q117 -41 175 -71q186 -99 186 -276q0 -260 -256 -336q-84 -24 -192 -24z" />
    <glyph glyph-name="afii10103" unicode="&#x456;" horiz-adv-x="721" 
d="M516 242q0 -133 146 -133h24v-109h-651v109h24q146 0 146 133v622q0 125 -146 125h-24v109h481v-856zM329 1577q197 0 197 -147q0 -108 -109 -139q-32 -9 -68 -9q-35 0 -67 9t-56 27t-36 46q-14 28 -14 66q0 74 48 111q49 36 105 36z" />
    <glyph glyph-name="afii10104" unicode="&#x457;" horiz-adv-x="721" 
d="M516 242q0 -133 146 -133h24v-109h-651v109h24q146 0 146 133v622q0 125 -146 125h-24v109h481v-856zM555 1282q-136 0 -136 128q0 66 34 96t73 30q67 0 102 -31t35 -80q0 -80 -35 -112q-35 -31 -73 -31zM-1 1410q0 34 10 58q11 24 27 40t38 22t46 6q53 0 88 -31t35 -80
q-1 -51 -11 -75t-27 -39t-39 -22t-46 -7t-46 7t-38 22t-27 39q-10 26 -10 60z" />
    <glyph glyph-name="afii10105" unicode="&#x458;" horiz-adv-x="707" 
d="M331 1577q197 0 197 -147q0 -108 -109 -139q-32 -9 -68 -9q-35 0 -67 9t-56 27t-36 46q-14 28 -14 66q0 74 48 111q49 36 105 36zM516 1098v-1114q0 -378 -308 -453q-94 -23 -208 -23h-41v127h14q118 0 175 81t57 284v854q0 114 -101 130q-30 4 -63 5h-6v109h481z" />
    </font>
</defs>
</svg>
